<svg xmlns="http://www.w3.org/2000/svg" xmlns:xlink="http://www.w3.org/1999/xlink" viewBox="0 0 1366 768"><defs><style>.cls-1{fill:#2e2e2e;}.cls-2{fill:#664d3f;}.cls-3{fill:#b4815f;}.cls-4{fill:#630;}.cls-5{fill:#693534;}.cls-6{fill:#633;}.cls-7{fill:#97572c;}.cls-8{fill:#924e44;}.cls-9{fill:#606060;}.cls-10{fill:#442f20;}.cls-11{fill:#1c1c1c;}.cls-12{fill:#7b5438;}.cls-13{fill:#232323;}.cls-14{fill:#9c6a48;}.cls-15{fill:#b2b2b2;}.cls-16{fill:#c8a480;}.cls-17{fill:#cbcbcb;}.cls-18{fill:#fbfbfb;}.cls-19{fill:#454445;}.cls-20{fill:#aba798;}.cls-21{fill:#8d6c57;}.cls-22{fill:#fffdec;}</style></defs><g id="Capa_11" data-name="Capa 11"><image width="626" height="417" transform="translate(0 0) scale(2.18 1.84)" xlink:href="../t5.jpg"/></g><g id="Capa_14" data-name="Capa 14"><path class="cls-1" d="M806.28,691a7.6,7.6,0,0,0,.1-1.07l-2.46-.15A2.33,2.33,0,0,0,806.28,691Z" transform="translate(0 0)"/><path d="M1127.51,407.59c-6,3-12.73,3.9-19.16,5.68H1089c-5.43.23-10.58-1.16-17.28-2.8,2.71,2.63.53,5.21,2.77,7.08-1.77,2.76-4.11,5.26-4.67,8.56l-5.82,8.71c-6.67,8.9-15.37,16-24.67,22.81l11.33-1.12c3.71.12,7.22-1.66,11-.92,1.19.23,2.92-.65,3.32,1.28.28,1.37-.83,1.65-1.84,2.28-4.29,2.66-8.44,5.5-12.65,8.28-2.85,1.23-4.37,2-.67,4.64,3.16,2.25,7.09,4.41,8.13,8.53-4.83-.85-7-5.11-10.91-7.14-1.73-.89-2.82-1.89-4.53-.21-6.89,6.78-14.84,12.63-21.18,19.92-2.45,2.83-2,4.58.65,6.83,4.25,3.57,8.29,7.36,12.33,11.14,1.32,1.23,3.4,2.12,3.09,4.34-8.49-3.79-13.15-11.34-20.4-16.74-5.05,3.88-7.87,9.58-11.36,14.75-2.34,3.45-3.8,3.12-6.67.59-4.84-4.25-8.73-9.56-15.3-12-.71-1.85-1.78-2.63-3-.43a35.7,35.7,0,0,0-3.4,7.43,289,289,0,0,0-9.94,61.56c-.17,3.54-.77,7.13-1.17,10.7-.5,4.5,2.12,5.77,6.11,6,14.78.86,29.49-1,44.25-1.13,2.74,0,4.65-7.77,2-10.59-4.83-5.12-5.35-10.16-1.91-15.9,3-5,6.1-9.72,13-10.79,3.19-.49,2.43-3.35,2.1-4.68-.79-3.16,0-6,.49-9,1-6.73,2.13-13.44,5.15-19.74,1.51-.05,3.49.54,2.48,1.89-5.31,7.09-3.28,15.63-5.92,23.23-.76,2.19,2.17,2.58,4,3.23l46.28,16.82c.32-8-2.11-15.44-2.72-23-.75-9.18-4.28-17.82-6-26.83-.92-5-4.62-9.51-7.08-14.24-1.08-2.09-2.88-4-2.22-6.56l3.6,3.82,5,10.89,6.88,17.46q1.36,8.7,2.74,17.4c.71,5.77.84,11.61,2.4,17.29,0,1.21-.88,2.68,1.15,3.32,0,1.1,0,2.21,0,3.31-5.66-2.36-8,4.09-13.37,4.18l4.76,6.69c-2.77,9.18-8.9,15.88-18.16,20.3-.9.43-3,.68-1.94,2,4.16,5.19-1.52,6.27-4.27,7.69-4.47,2.3-7.25,4.59-5.71,9.71,1.1,3.65-1.27,7.72,1.21,11.33,1.65.56,3.86-.63,5.07,1.31-1.1,5.86,1,11.53,1.2,17.3.55,4,.87,8.13,1.75,12.11.45,2,.51,2.86-2.07,3.25-8.35,1.25-16.65,2.8-25.19,2.31H992.73c-5.89-.7-11.58-.41-17.64-2.71s-13.72-.54-20.7-.56c-3.48-.68-7,.16-10.61-1-4.08-1.27-3.16-2.77-1-4.45a39.77,39.77,0,0,1,15.14-7.53c5.51-1.26,10.9-2.95,17-3.93-3.43-5.06-5.48-10.45-9.63-14.78,3.68-.37,8.28,1.2,10.83-.93s-1.43-5.78-.52-8.91c.49.53,1.21,1,1.42,1.59,2.8,8.16,2.78,8.16,11.88,8.16h13.31c-.11-.45-.12-.91-.23-.92-11.08-1.89-11.81-2.38-11.45-12.54.21-6.21-1.37-12.23-1.32-18.38,0-2-.88-3-3.18-3-3.61,0-7.22,0-10.83,0-2.73-.07-3.77.33-3.14,3.38,1.5,7.22,4.08,14.32,3.6,21.81-1.73-2.32-1.76-5-2.27-7.67-.75-3.43-1.62-6.85-2.21-10.31-.5-2.9-2.34-4.14-5-2.63-3.81,2.18-7.9,1.87-12,2.15-2.19-.06-4.44-.45-6.54-.1-5.84,1-9.72-1.31-12.62-5.58l-1.14-1c-5.49-5.38-10.87-10.83-14.69-17.35.07-.36,0-.82.24-1,4-3.94,3.52-7-2.28-9,1.57-2.72,5.29-3.94,4.78-7.37,3-5,8.62-7.41,13.19-10.86,2.64-1.73,4.88-3.74,5.72-6.74a58.63,58.63,0,0,0,9.62-17.28,25.17,25.17,0,0,0,3.8-8.72c1.45-2.8,3.93-5.28,3.42-8.71,1.46-3.5.19-6.05-3.32-7.82-1.43-3.89-4.94-6.44-7.51-9.6l-6.84-13.08c5,1.17,9.22,4.11,14.32,3,6.91.54,13.69.49,19.68-3.73-5.39-2.42-11.63-.64-16.73-3.61a2,2,0,0,0-3.13,1.93c-1.33-.26-1-1.35-1.28-2.11,0-3.11-4-2.72-4.8-5.32-1.66,1.44-.64,2.94-1.22,4.12h-2c2.51-6.28-3.53-9.26-6.41-13.42-.68-1-2.17-.54-3.33-.4l-9.62-2.35c-2.93-1.7-5.26-3.84-6.35-7.27-1.4.82-1.54,2.75-3.34,2.85-1.26-1.45,5-5.18-1.93-5.1-.9,0,.34-2.06.88-2.62a23,23,0,0,0,5.94-11.73,96.87,96.87,0,0,0,33.67,3c9.85.95,18.68-2.33,27.58-5.36-1.58,4-6.23,4.09-9.49,5.13a47,47,0,0,1-18.1,2.61c-9.67-.76-19.57,1.51-29-2-1.89-.71-3.17.11-3.55,2.36-1.63,9.88,3.47,16.78,14.62,16.86,15.24.1,30.7,2.17,45.67-2.86,6.74-2.26,12.3-5.7,16.55-10.82,1.22-1.47,2.26-2.83,4.34-3C990,455.7,967.54,456.45,944.2,456c9.4,7.22,19.17,13.45,31.85,13.69,23.68.43,44.54-6.78,63.82-19,12.91-8.19,22.27-18.72,29.62-31.1,1-1.63.57-2.63,0-3.91q-4-9-8.11-17.89c10.16.25,17.85-3.59,20.14-10.38.92-2.72,2.28-5.93-3.16-6.54-2.24-.26-4.34-1.46-7.56-2.61,2.59,3.63-.87,5.79-.92,8.62a4.06,4.06,0,0,0-.77.72,6,6,0,0,1-3-2.81c1-.64,2.23-.63,2.95-1.93,1.22-2.22-.65-3.59-1.25-5.28a2.69,2.69,0,0,0-2.07-.1c-1.35,1.38-.83,2.89,0,4.4.5.9,1.09,1.88.45,3-2.09-1.42-2-3.6-2.68-5.61s-.64-5-4.5-4.4c-3-1.58-5.77-2.86-4.69,2.32l.08,1.11v2.11c0,.77,0,1.53-.05,2.3a2.13,2.13,0,0,1-1.55-2c-1.24-8.62-1.32-8.7-10.74-10.81-6.91-4-15.06-4.08-22.69-5.43-12.6-2.22-25.36-3.95-38.32-3.63-3.19.08-6.26.24-9.19,1.62,1.34,3.36,4.87,5.7,5.46,9.41-.88,3.65.54,7.11,1,10.66.38,2.88-.05,5.75-3.67,6.52-3.4.73-6.54.3-8.47-3.26A33.13,33.13,0,0,1,962.56,374c.42-3.53-.55-7.27,3.16-11.27-7.72,1.26-14,2.78-20.51,2.89-1.36,0-3.47.91-2.17,3.39.7,1.34.24,3.18.3,4.8-1.39,1.33-2.44,2.85-2.23,4.71.42,3.58-2.26,2.94-4.6,3-3.33.12-3-2.2-2.53-3.69,1.09-3.21-.36-6-.77-9-5,1.54-9.56,8.44-9,12.77.4,3.05,2.91,2.22,4.46,2,8.3-1.28,15.37,2,22.6,4.69.7.26,1.83,1,.68,2-7.31-2.72-14.37-5.63-22.85-4.62-6.91.82-12.57,2.8-16.92,7.71l-1.2,1.17,0,0c-3.61,6.85-3.17,13.79-.57,20.78.67,1.81,1.19,3.65,1.78,5.48-3.31.83-2-2.71-3.79-3.29C906.13,411.84,906,405.9,906,400c.92-5.89,4.55-10,10.18-12.87,1-.51,1.63-1.62,2.6-2.23a5.2,5.2,0,0,0,2.3-5.07c-.11-1-3-2.07-5.2-1.38-6.51-.27-13-.62-19.4,1.09-6.08-.11-12.08.87-18.14,1.11-8.86.36-17.1-.51-24.62-5.07.49-2,3.07-2.3,4.45-3.7,3.82-1.51,8.15-2.22,10.7-5.69a24.58,24.58,0,0,0,8.36-3.32l19.41-8.72c4.43-2.07,9.26-3.47,13.22-6.36,2.37,0,4-1.51,6-2.35,7.74-2.63,10.05-9.17,13.23-15.07a113.1,113.1,0,0,0,6.92-17.52c0-.71.07-1.42.1-2.13,2.85-4.78,3.34-10.15,4.75-15.29,3.19-7.78,11.21-11.8,16.84-17.68,1.27-1.32,2.69-.47,4.27,0,10.57,3,20.39,7.6,30.72,11.08a116.78,116.78,0,0,0,19.39,4.35c6.17,2.15,12.86.53,19.1,2.18,6.46.51,13-.43,19.41,1.06l8.36.09c.14,5.88,3.21,11,5,16.52l5.82,17.37c.27,6,2.65,11.54,3.8,17.35-.16,7.08,3,11.72,9.94,15.87,9,5.33,16.47,12.69,24.6,19.18l19.3,16.34,1.16,1.06C1130.74,402.91,1130.48,405.41,1127.51,407.59ZM968.92,592.05c-4.4-.25-8.11-1.52-10.48,2.32-.43.43-1.71.64-1,1.39.56.59,1.4.11,1.76-.66C962.47,595,965.61,594.58,968.92,592.05Zm34.9,38c-9.45-1.87-19-1.25-28.58-1.32-1.71,0-3.32.14-3,2.31,1.41,4.69,5.22,8.27,7.19,12.7-6.07.28-11.88,1.35-17,4.62a4.1,4.1,0,0,0-1,0c-6.32-.3-10.67,3.7-15.84,6.52l6-.25c8.54.09,17.07.22,25.61.26a6.63,6.63,0,0,0,3.4-.65c6.92-4.42,15.07-6.26,22.73-9.13.08,1.07.15,2.15.23,3.22-7,2.07-13.19,5.61-19.6,8.74-.65,0-1.48-.31-1.47.69a6.4,6.4,0,0,0,1.27.24l35.57,0c7.31.06,14.63.13,21.94.16.48,0,1.37-.3,1.38-.46,0-1.06-1.14-.41-1.64-.78.78-1.12,2-.85,3.2-.9,9.37-.35,9.82-.4,8.57-9.06a128.81,128.81,0,0,1-1-14.9c0-.9-.1-1.81-1.36-2.05a2.26,2.26,0,0,0-2.62.89.87.87,0,0,0-.9.12,305,305,0,0,1-31.56-1c-1.73-.18-4-1-5.47.85,1.7,5,5.7,9,6.91,14.18l-1.45,1.14a.92.92,0,0,0-.92.12c-3.23-.75-6.1,1.88-9.37.81l.18-3c6.14-.67,6.75-1.47,4.09-6.14-1-1.78-1.26-4.27-4.09-4.86C1004.44,632.2,1006.37,630.32,1003.82,630.09Zm51.38-76.15,5.29,2.56c4.65,2.8,9.33,5.58,13.94,8.43,2.47,1.52,2.88-.33,3.82-1.66,1.74-2.47-.64-1.69-1.82-2.17-4.91-2-9.58-4.51-15-5.39A6.46,6.46,0,0,0,1055.2,553.94Zm-81.6-67.78c6.27-2.57,10.55-7.55,16.16-10.92a7.22,7.22,0,0,0,2.26-1.92c-5.56.44-12-2.68-16.13,3.8-4.69,3.87-8.24,8.28-8.16,14.37,1.69,4.81,3.34,9.63,6.45,13.85,4.73-7.93,4.73-7.93-4.13-15C971.23,488.93,972.41,487.54,973.6,486.16ZM1046.21,594c9.16-.25,16.71-2.61,22.52-8.75,8.44-8.45,8.48-11.44-1.47-20.42s-22.76-12-35.88-14.36c-4.18-.75-13,7.48-13.28,12.19-.18,2.52,0,5.06,0,8.32,2.6-3.64,2.59-7.69,5.91-10.59v5.06c-2.7,5.13-2.23,10.62-2.34,16.06-.07,3.63,3.89,2.85,5.73,4.36,1.19,1,1.91-1.67,2.63-2.76,1.39-2.13,2.49-4.4,3.71-6.62l1.47,1c-1,2.26-1.39,4.75-3.27,6.75-1,1-2,2.33.36,3.69,1.88,1.06,3,2,4.93.15,2.71-2.56,5.76-4.81,8.67-7.19,1.3.33,1,1.25.94,2.08-1.87,1.56-3.88,3-5.57,4.72-.84.85-3.34,1.43-1.57,3.26,1.18,1.23,3,1,4.37.4a49.68,49.68,0,0,1,11.33-4.06C1054.92,592.23,1049.18,591.06,1046.21,594Zm-85.37-11.18a1.86,1.86,0,0,0-1.13-.8c-5.61.32-9.94-2.92-14.93-4.28-.35-.09-.93.49-1.4.76-4.61-4.31-11.55-5.07-16.49-8.88-.83-.63-1.79-1-2.48.07-1.21,1.88-2.27,3.8-.47,6,4.63,5.55,8.95,11.36,15.3,15.53,4.49,5.08,9.32,5.17,16.33.32C962.35,591.17,959.32,585.86,960.84,582.85ZM967.5,529c6.53-13.62,6.44-21.55-.13-29.89l-1.3-4.79c-6.44,13-7.14,18.06-3.36,23.37Zm-7.84-8.31c-3.32,2.2-2.29,5.68-2.6,8-1.86,13.55-2.78,27.22-3.91,40.85-.12,1.53-1.06,3.88,2.34,3.82a13.18,13.18,0,0,0,1.84,2c1.48,1.07,2.43,3.65,4.43,3s.65-3.15,1-4.81a309.42,309.42,0,0,0,4.83-33c.43-5.3-3.06-9.09-6-13.1ZM940.72,329.21a3,3,0,0,0-.6,0c-3.24.74-19.66,17.39-20.09,20.45a12.73,12.73,0,0,0,1.61.37c-14.6,6.48-29,13.26-43.14,20.55-.39.07-1,0-1.13.23-.81,1.35.6.83,1,.86,5,.28,9.87-.89,14.81-1.27,15.2-1.16,30-4.58,45-7,17.93-2.93,35.88-7,54.26-5.7,20.92,1.53,41.63,4.31,61.85,10.05,11.14,3.16,21.91,7.5,33.47,9.45,2.68,1.23,4.9,3.63,9.18,2.7-5.08-5.87-11.63-9.52-17.71-13.56-2.55-1.69-4.14-5.15-8.29-4.47a192.58,192.58,0,0,0-48.07-15.05l7.79-.41c-24.1-7.42-47.28-13.38-71.56-15.14A74.65,74.65,0,0,0,940.72,329.21Zm12.83,248c.62-.75-.6-.93-1.1-1.3-3.51-5.61-2.25-11.84-1.37-17.48,1.17-7.51.37-15.06,1.76-22.56.7-3.77,2.26-7.7,1.16-12.34-2.86,5.05-5.12,9.86-8.15,14.23-5.72,8.21-12,16.1-20.07,22.61-3,2.38-3.62,4.11.72,5.74,8.58,3.23,16.14,8.46,25.32,10.49C952.2,577.31,953,577.83,953.55,577.2Zm71.77,39.57c10.31-6.36,20.6-12.75,31-19.7-9.06,3.78-15.83-1.27-22.36-4.92-7.09-4-14-1.37-20.9-1.12-4.7.17-9.5.87-14.25.71-3.76-.14-5.1,1.13-4.7,4.4.71,5.83.57,11.76,2.22,17.5,0,3.13-.29,6.48,4.83,6.54A29.17,29.17,0,0,0,1025.32,616.77Zm29.51-157.34c-27.69,1.74-51.49,11.45-72.91,26.48-6.09,4.87-6.33,5.19.23,9.44,5.77,3.73,9.86,9.13,16,12.39,2.8,1.48,5.3,3.16,7.27-.91.59-1.22,1.88-2.17,2.85-3.24A175.07,175.07,0,0,1,1054.83,459.43ZM970,285.61c-.13-.13-.25-.34-.41-.38-5.33-1.18-10.38-7.58-16.12-.46-3.52,4.37-9.13,6.9-10.24,13.4-1.75,10.32-5.28,20.39-9.3,30.47,9-1.79,17.75.11,26.43-.47L983,331.5c1.69,1.83,4.06.58,6,1.11,9.16,3.53,19,5,28.49,7.44,18.55,4.72,36.19,11.55,54.86,18.41-2.82-9.77-5.56-19.06-8.15-28.38-2.71-9.73-5.27-19.5-7.89-29.25-5.11-2.7-10.79-.45-16.25-1.59-6.41-1.34-13.32-.57-21.56-2.28,5.36,4.35,10.92,2.74,15.08,5-12.94,1.35-24.34-3.73-36.14-7.13-7.65-2.2-15.25-4.58-22.87-6.89v0C973.61,286.3,971.83,285.87,970,285.61Zm119.67,99.44c-1.55-.49-3.76-2.64-4.19,1-.89,7.53-6.39,11.59-13.37,14.57-1.28.55-3.57.23-3.27,2.45a3.69,3.69,0,0,0,3,3.11c17.53,2.87,35.07,5.17,52.17-1.87a13.41,13.41,0,0,0,2.26-1.66C1113.18,397.61,1102.7,389.16,1089.62,385.05Zm-73.14,241.46c9.46,0,17.23.17,25-.08,3.76-.12,6.07-1.84,5.54-5.91-.45-3.38-.09-6.84-.09-11.16C1036.75,615.25,1028.47,622,1016.48,626.51ZM946.2,478.93c1.77,7.87,8.5,12.27,14.6,17.85,1.81-6.62,6.14-11.85,8.71-18A88.32,88.32,0,0,1,946.2,478.93Zm-44-103.55a40.21,40.21,0,0,1,16.59.34c1.49.37,3.33.89,4-1,.4-1.12.83-2.75.24-3.53-.85-1.1-2.48-.18-3.84.08-17.69,3.31-35.66,4.41-53.71,5.46C877.71,377.19,890,377.46,902.17,375.38ZM1097.91,382a7.09,7.09,0,0,0,1,.38c.08,0,.24-.26.37-.4l-.82-.61Z" transform="translate(0 0)"/><path class="cls-2" d="M1058.94,393.3a5.18,5.18,0,0,0,2.49,4.56l0-.08q4.06,9,8.11,17.89c.57,1.28,1,2.28,0,3.91-7.35,12.38-16.71,22.91-29.62,31.1-19.28,12.24-40.14,19.45-63.82,19-12.68-.24-22.45-6.47-31.85-13.69,23.34.44,45.83-.31,58.76-21.7-2.08.2-3.12,1.56-4.34,3-4.25,5.12-9.81,8.56-16.55,10.82-15,5-30.43,3-45.67,2.86-11.15-.08-16.25-7-14.62-16.86.38-2.25,1.66-3.07,3.55-2.36,9.48,3.54,19.38,1.27,29,2a47,47,0,0,0,18.1-2.61c3.26-1,7.91-1.12,9.49-5.13l-.06.05c3.39.31,5.87-1.39,8.33-3.12,7.06-3.78,13.9-7.82,19.54-13.31,2,0,2.81-.82,2.25-2.62q0-.52.6-.54l5.52,0-.09,0a5.55,5.55,0,0,0,4.68,2.14,26.24,26.24,0,0,0,7.5,4.6c.47.93,1.13,1.48,2.32.93l0,0c0,2.86,2.18,2.45,4.21,2.23.38,0,.58.18.59.53-.45,1.42,0,2.41,1.71,2.64s3.09-.06,3.08-2l1.34-2.36c2-1.51,2.23-3.58,2.3-5.78a80,80,0,0,1,2.68-20c.6-2.1-1.48-1.27-2.63-1.27,0-1.05,0-2.1-.07-3.15,2-4.19.14-7.68-2.39-11.05a6.47,6.47,0,0,1-1.26-4.1c9.42,2.11,9.5,2.19,10.74,10.81a2.13,2.13,0,0,0,1.55,2Zm-46.55,64c.53-.75-.66-.8-1.2-1.06-1.67-3-4.39-4.52-8.73-4.95a16.06,16.06,0,0,0,8.32,5.44C1011.15,457.39,1011.93,458,1012.39,457.32Zm-35.45-11.2c2.25-.74,3.25-.95,2.61-3.43-2.17-8.41-2-7.72-12.37-7a209.36,209.36,0,0,1-36.54-.26c-3.91-.43-4.07.86-4,3.34.2,5,5.35,9,12.12,9.19,4.8.15,9.61,0,14.42,0C961.14,447.77,969.14,448.66,976.94,446.12Zm4.71,20.32c2.34-.56,6,1.74,6.85-1.78.63-2.51-5.94-8.15-8.78-7.77a180.85,180.85,0,0,1-21.18,2c-1,0-2.22-.09-2.41,1.06-.21,1.31,1.08,1.63,2.14,2.16,7.92,4,9.78,4.39,20.41,4.39A12.78,12.78,0,0,0,981.65,466.44Zm22.07-34.2c3.76-2.86,6.42-6.1,5.61-12.1Z" transform="translate(0 0)"/><path class="cls-3" d="M1018.06,406.48l.09,0c-1.44-2.91-1.81-2.91-5.52,0q-.58,0-.6.54l-2.25,2.62c-5.64,5.49-12.48,9.53-19.54,13.31-3.42-.37-5.84,1.44-8.33,3.12l.06-.05c-8.9,3-17.73,6.31-27.58,5.36,4.37-2.86,8.78-5.67,12.32-9.41,1.27-1.36,3.19-2.7,2.12-4.61-1-1.68-3.3-1.25-5-1-7.66,1.17-15.37,1.81-23.09,2.53s-15.09,1.5-22.34-1.34c-4-1.55-5.54-.48-5.09,3.33l-1.22-.22.08.09c-.59-1.83-1.11-3.67-1.78-5.48-2.6-7-3-13.93.57-20.78.07,7.23,2.93,9.07,10.75,7.17a27.45,27.45,0,0,0,7.9-3.71A35.24,35.24,0,0,1,951,392.39a4,4,0,0,0,3.31-.9l.42-1.14c-1,.13-1.86-1.34-2.86-.08l.11.05c1.15-1.05,0-1.76-.68-2-7.23-2.69-14.3-6-22.6-4.69-1.55.24-4.06,1.07-4.46-2-.56-4.33,4-11.23,9-12.77.41,3,1.86,5.76.77,9-.51,1.49-.8,3.81,2.53,3.69,2.34-.09,5,.55,4.6-3-.21-1.86.84-3.38,2.23-4.71l19.22.19a33.13,33.13,0,0,0,3.65,11.74c1.93,3.56,5.07,4,8.47,3.26,3.62-.77,4.05-3.64,3.67-6.52-.47-3.55-1.89-7-1-10.66,15-3.12,29.87.57,44.77,1.21,5.55.24,11,2.71,16.47,4.16q1.15,2.26,2.4,0h0c3,.26,3.4,3.39,2.77,4.06-3,3.16,1.54,2.44,2,3.69,0,1,0,2.1.07,3.15-.49,5-.16,10-1.11,15-.74,3.92-.06,8.07-1.24,12l-1.34,2.36c-1.59-.21-3.31.35-4.79-.61,0-.35-.21-.53-.59-.53l-4.21-2.23,0,0c-.37-1.13-1.34-1-2.32-.93a26.24,26.24,0,0,1-7.5-4.6A3.71,3.71,0,0,0,1018.06,406.48Zm-31.27-17.65c-2.42,2.49-1.56,5.8-.12,8.73,1.29,2.63,3.56,3.39,6.69,3.64,13.23,1,23.33-3,30-13.78,3-4.87.93-9.42-5.24-10.19a77.43,77.43,0,0,0-8.33,0C999.47,375.3,993.14,382.28,986.79,388.83Zm-20.95,2.39c-1.54-4.16-1.54-4.16-8.75-5.15C959,389.72,962.3,390.44,965.84,391.22Z" transform="translate(0 0)"/><path class="cls-4" d="M1033.66,302c-12.94,1.35-24.34-3.73-36.14-7.13-7.65-2.2-15.25-4.58-22.87-6.89.37,2-.33,3.89-1.06,5.77q-6.66,17.22-13.28,34.44L983,331.5c7-7.14,14.12-14.18,20.91-21.47,3.93-4.22,7.3-4.1,10.37.94,1.85,3,1.09,6-.82,8.65-5.71,8-15.32,10.14-24.42,13,9.16,3.53,19,5,28.49,7.44,18.55,4.72,36.19,11.55,54.86,18.41-2.82-9.77-5.56-19.06-8.15-28.38-2.71-9.73-5.27-19.5-7.89-29.25C1048.88,302.34,1041.26,302,1033.66,302Z" transform="translate(0 0)"/><path class="cls-5" d="M983.61,502.06c-.71-1.85-1.78-2.63-3-.43a35.7,35.7,0,0,0-3.4,7.43,289,289,0,0,0-9.94,61.56c-.17,3.54-.77,7.13-1.17,10.7-.5,4.5,2.12,5.77,6.11,6,14.78.86,29.49-1,44.25-1.13,2.74,0,4.65-7.77,2-10.59-4.83-5.12-5.35-10.16-1.91-15.9,3-5,6.1-9.72,13-10.79,3.19-.49,2.43-3.35,2.1-4.68-.79-3.16,0-6,.49-9-5.58-2.94-7.93-8.31-11.41-12.77-5.5-7.06-5.52-7.27-10.6,0-2.46,3.54-4.37,4.63-8.07,1.24-2.62-2.4-6.37-3.83-8.84-6.32C988.89,512.94,980.93,510.17,983.61,502.06Z" transform="translate(0 0)"/><path class="cls-6" d="M1037.33,515.46c1.51-.05,3.49.54,2.48,1.89-5.31,7.09-3.28,15.63-5.92,23.23-.76,2.19,2.17,2.58,4,3.23l46.28,16.82c.32-8-2.11-15.44-2.72-23-.75-9.18-4.28-17.82-6-26.83-.92-5-4.62-9.51-7.08-14.24-1.08-2.09-2.88-4-2.22-6.56,0-.41-.22-.62-.68-.6-3,.33-3.1-1.39-2.91-3.33l.05,0c-2.85.13-2.58-1.63-2.45-3.31l0,0c-2,.35-2.38-.81-2.44-2.23l.11,0c-4.83-.85-7-5.11-10.91-7.14-1.73-.89-2.82-1.89-4.53-.21-6.89,6.78-14.84,12.63-21.18,19.92-2.45,2.83-2,4.58.65,6.83,4.25,3.57,8.29,7.36,12.33,11.14,1.32,1.23,3.4,2.12,3.09,4.34Z" transform="translate(0 0)"/><path class="cls-4" d="M878.5,370.6c-.39.07-1,0-1.13.23-.81,1.35.6.83,1,.86,5,.28,9.87-.89,14.81-1.27,15.2-1.16,30-4.58,45-7,17.93-2.93,35.88-7,54.26-5.7,20.92,1.53,41.63,4.31,61.85,10.05,11.14,3.16,21.91,7.5,33.47,9.45-1.11-.71-2.29-1.34-3.31-2.14-5-4-12.31-6-13.51-13.19a192.58,192.58,0,0,0-48.07-15.05c-9.28-.92-18.58-1.65-27.71-3.48H954.08c-8.34-.45-16.42.28-23.71,4.43,10.08-.44,19.77-4.92,30.31-1.27,7.9,2.74,16.6.73,26.58,1.55-18,3.68-34.48,6.66-50.74,10.47C917.29,363,897.81,366.45,878.5,370.6Z" transform="translate(0 0)"/><path class="cls-3" d="M1045.87,580.93c1.3.33,1,1.25.94,2.08,3.16.46,6.58.36,8.55,3.31l2.36.07c3.43-2.28,7.33-.76,11-1.11,8.44-8.45,8.48-11.44-1.47-20.42s-22.76-12-35.88-14.36c-4.18-.75-13,7.48-13.28,12.19-.18,2.52,0,5.06,0,8.32,2.6-3.64,2.59-7.69,5.91-10.59v5.06c2.42,4.28,8.35,6,9.73,11l1.47,1C1039.22,577.43,1042,580.57,1045.87,580.93Z" transform="translate(0 0)"/><path class="cls-7" d="M960.31,328.17q6.63-17.22,13.28-34.44c.73-1.88,1.43-3.74,1.06-5.77v0c-2,0-3.87-.32-4.71-2.32-.13-.13-.25-.34-.41-.38-5.33-1.18-10.38-7.58-16.12-.46-3.52,4.37-9.13,6.9-10.24,13.4-1.75,10.32-5.28,20.39-9.3,30.47C942.92,326.85,951.63,328.75,960.31,328.17Z" transform="translate(0 0)"/><path class="cls-8" d="M1008.29,503.59a175.07,175.07,0,0,1,46.54-44.16c-27.69,1.74-51.49,11.45-72.91,26.48,8.38,5.31,17.54,9.7,24.21,17C1006.54,503.38,1007.56,503.38,1008.29,503.59Z" transform="translate(0 0)"/><path class="cls-4" d="M1001.11,620.18a29.17,29.17,0,0,0,24.21-3.41c10.31-6.36,20.6-12.75,31-19.7-9.06,3.78-15.83-1.27-22.36-4.92-7.09-4-14-1.37-20.9-1.12-4.7.17-9.5.87-14.25.71-3.76-.14-5.1,1.13-4.7,4.4.71,5.83.57,11.76,2.22,17.5.05-1.8.22-3.6.11-5.38-.15-2.58,1.2-3.27,3.88-3.51,3.81-.33,6,.79,6.77,4.22C1008,613.19,1005,619,1001.11,620.18Z" transform="translate(0 0)"/><path class="cls-9" d="M1009.83,630.85c1.7,5,5.7,9,6.91,14.18.86.27,2-.26,2.77,1.14h-4.22a.92.92,0,0,0-.92.12c-1.06,2.52-4,2.66-6,2.88-4,.43-3.51,2.61-3.58,5-.08,3,2.09,3,4.41,3,3.4,0,6.79.06,10.19.09l21.64-.29c.78-1.12,2-.85,3.2-.9,9.37-.35,9.82-.4,8.57-9.06a128.81,128.81,0,0,1-1-14.9c0-.9-.1-1.81-1.36-2.05-.58,1-1.56,1.05-2.62.89a.87.87,0,0,0-.9.12c-.46,3.23-3.27,1.82-5.15,2C1030.92,634.32,1020.52,630.89,1009.83,630.85Z" transform="translate(0 0)"/><path class="cls-10" d="M1126.22,402.68c-13-5.07-23.52-13.52-36.6-17.63-1.55-.49-3.76-2.64-4.19,1-.89,7.53-6.39,11.59-13.37,14.57-1.28.55-3.57.23-3.27,2.45a3.69,3.69,0,0,0,3,3.11c17.53,2.87,35.07,5.17,52.17-1.87A13.41,13.41,0,0,0,1126.22,402.68Z" transform="translate(0 0)"/><path class="cls-7" d="M878.5,370.6c19.31-4.15,38.79-7.56,58-12.07,16.26-3.81,32.75-6.79,50.74-10.47-10-.82-18.68,1.19-26.58-1.55-10.54-3.65-20.23.83-30.31,1.26-2.58,1.81-6,.94-8.73,2.28C907,356.53,892.62,363.31,878.5,370.6Z" transform="translate(0 0)"/><path class="cls-10" d="M983.61,502.06c-2.68,8.11,5.28,10.88,9.65,15.31,2.47,2.49,6.22,3.92,8.84,6.32,3.7,3.39,5.61,2.3,8.07-1.24,5.08-7.29,5.1-7.08,10.6,0,3.48,4.46,5.83,9.83,11.41,12.77,1-6.73,2.13-13.44,5.15-19.74v0c-8.49-3.79-13.15-11.34-20.4-16.74-5.05,3.88-7.87,9.58-11.36,14.75-2.34,3.45-3.8,3.12-6.67.59C994.07,509.83,990.18,504.52,983.61,502.06Z" transform="translate(0 0)"/><path class="cls-8" d="M952.46,575.89c-3.52-5.6-2.26-11.83-1.38-17.47,1.17-7.51.37-15.06,1.76-22.56.7-3.77,2.26-7.7,1.16-12.34-2.86,5.05-5.12,9.86-8.15,14.23-5.72,8.21-12,16.1-20.07,22.61-3,2.38-3.62,4.11.72,5.74,8.58,3.23,16.14,8.46,25.32,10.49A7.08,7.08,0,0,1,952.46,575.89Z" transform="translate(0 0)"/><path class="cls-11" d="M962.52,648.4a4.1,4.1,0,0,0-1,0c-2.47,3.15-7.75,2.66-9.87,6.27,8.54.09,17.07.22,25.61.26a6.63,6.63,0,0,0,3.4-.65c6.92-4.42,15.07-6.26,22.73-9.13l.09-14.12-31.14,0c1.41,4.69,5.22,8.27,7.19,12.7.88.39,2.41-.48,2.7,1.17Z" transform="translate(0 0)"/><path class="cls-12" d="M977.34,371.79c15-3.12,29.87.57,44.77,1.21,5.55.24,11,2.71,16.47,4.16l2.4,0h0c-1.12-2.23,2-1.93,2.38-3.3a6.47,6.47,0,0,1-1.26-4.1c-6.91-4-15.06-4.08-22.69-5.43-12.6-2.22-25.36-3.95-38.32-3.63-3.19.08-6.26.24-9.19,1.62C973.22,365.74,976.75,368.08,977.34,371.79Z" transform="translate(0 0)"/><path class="cls-13" d="M975.59,616.86c.49.53,1.21,1,1.42,1.59,2.8,8.16,2.78,8.16,11.88,8.16h13.31c-.11-.45-.12-.91-.23-.92-11.08-1.89-11.81-2.38-11.45-12.54.21-6.21-1.37-12.23-1.32-18.38,0-2-.88-3-3.18-3-3.61,0-7.22,0-10.83,0-2.73-.07-3.77.33-3.14,3.38,1.5,7.22,4.08,14.32,3.6,21.81Z" transform="translate(0 0)"/><path class="cls-14" d="M920.72,428.44c-1-.12-2.06-.27-2.58-1.26-.71-1-1.33-2.25-3-1-.58-.52-1.16-1-1.73-1.57a1.38,1.38,0,0,0,.52-1.85c.36-.48.13-.74-.4-.89a1.43,1.43,0,0,1-.2-.9c-.45-3.81,1.11-4.88,5.09-3.33,7.25,2.84,14.7,2.06,22.34,1.34s15.43-1.36,23.09-2.53c1.66-.25,4-.68,5,1,1.07,1.91-.85,3.25-2.12,4.61-3.54,3.74-8,6.55-12.32,9.41A96.87,96.87,0,0,1,920.72,428.44Zm15.85-2.6a10.13,10.13,0,0,0,10.33,2c.65-.22,1.3-1,.53-1.7-2.46-2.28-5.64-2.25-8.83-2.11-.93,0-1.85.12-3.05.2A7.27,7.27,0,0,0,936.57,425.84Zm-14-2.38c2,3.37,5.22,4.12,9,3.6.34-.05.9-1.06.8-1.16-2.6-2.56-5.93-3.13-9.45-2.95C922.72,423.24,922.53,423.4,922.56,423.46Z" transform="translate(0 0)"/><path class="cls-3" d="M995.23,343.34c9.13,1.83,18.43,2.56,27.71,3.48l7.79-.41c-24.1-7.42-47.28-13.38-71.56-15.14-3,3.23-3.66,7.3-4.76,11.21,2.88-.64,5.81-.2,8.79-.79C974,339.55,984.65,341.12,995.23,343.34Z" transform="translate(0 0)"/><path class="cls-15" d="M954.41,342.48c1.1-3.91,1.73-8,4.76-11.21a74.65,74.65,0,0,0-18.45-2.06,3,3,0,0,0-.6,0c-3.24.74-19.66,17.39-20.09,20.45a12.73,12.73,0,0,0,1.61.37c2.72-1.34,6.15-.47,8.73-2.28,7.29-4.14,15.37-4.87,23.71-4.42A2.31,2.31,0,0,0,954.41,342.48Z" transform="translate(0 0)"/><path class="cls-16" d="M911,394.56c.07,7.23,2.93,9.07,10.75,7.17a27.45,27.45,0,0,0,7.9-3.71A35.24,35.24,0,0,1,951,392.39a4,4,0,0,0,3.31-.9c-.89-.28-2.14,0-2.44-1.22l.11.05c-7.31-2.72-14.37-5.63-22.85-4.62-6.91.82-12.57,2.8-16.92,7.71l-1.2,1.17Z" transform="translate(0 0)"/><path class="cls-17" d="M955.49,573.33a13.18,13.18,0,0,0,1.84,2c1.48,1.07,2.43,3.65,4.43,3s.65-3.15,1-4.81a309.42,309.42,0,0,0,4.83-33c.43-5.3-3.06-9.09-6-13.1-.28.25-.76.48-.8.75C958.86,543.25,955.42,558.12,955.49,573.33Z" transform="translate(0 0)"/><path class="cls-7" d="M989.08,332.61c9.1-2.85,18.71-5,24.42-13,1.91-2.69,2.67-5.62.82-8.65-3.07-5-6.44-5.16-10.37-.94C997.16,317.32,990,324.36,983,331.5,984.73,333.33,987.1,332.08,989.08,332.61Z" transform="translate(0 0)"/><path class="cls-14" d="M1054.37,382.67q2.28,5.31,4.57,10.64c1.87,1.05,3.16,2.36,2.49,4.55l0-.08c10.16.25,17.85-3.59,20.14-10.38.92-2.72,2.28-5.93-3.16-6.54-2.24-.26-4.34-1.46-7.56-2.61,2.59,3.63-.87,5.79-.92,8.62,2.08.47,4.45-.61,7.55,1.58-3.64.5-6.08,1.94-8.32-.86a6,6,0,0,1-3-2.81l.07.06c-2.09-1.42-2-3.6-2.68-5.61s-.64-5-4.5-4.4c1.93,6.28,3.85,12.55,5.89,19.21-3.3-1-3.59-3.44-4.92-5.15-2.1-2.72-2.22-6.48-5.58-8.52C1054.41,381.14,1054.39,381.9,1054.37,382.67Z" transform="translate(0 0)"/><path class="cls-18" d="M1008.29,503.59c-.73-.21-1.75-.21-2.16-.66-6.67-7.32-15.83-11.71-24.21-17-6.09,4.87-6.33,5.19.23,9.44,5.77,3.73,9.86,9.13,16,12.39,2.8,1.48,5.3,3.16,7.27-.91C1006,505.61,1007.32,504.66,1008.29,503.59Z" transform="translate(0 0)"/><path class="cls-12" d="M943.38,578.53c-4.61-4.31-11.55-5.07-16.49-8.88-.83-.63-1.79-1-2.48.07-1.21,1.88-2.27,3.8-.47,6,4.63,5.55,8.95,11.36,15.31,15.52a5,5,0,0,1,.79-.66,7,7,0,0,1,4.68-2.1l-.07.06,3.7-2.42C947.5,583.13,944.86,581.14,943.38,578.53Z" transform="translate(0 0)"/><path class="cls-19" d="M1046.91,609.36c-10.16,5.89-18.44,12.68-30.43,17.15,9.46,0,17.23.17,25-.08,3.76-.12,6.07-1.84,5.54-5.91C1046.55,617.14,1046.91,613.68,1046.91,609.36Z" transform="translate(0 0)"/><path class="cls-8" d="M969.51,478.81a88.32,88.32,0,0,1-23.31.12c1.77,7.87,8.5,12.27,14.6,17.85C962.61,490.16,966.94,484.93,969.51,478.81Z" transform="translate(0 0)"/><path class="cls-12" d="M943.34,373.78l19.22.19c.42-3.53-.55-7.27,3.16-11.27-7.72,1.26-14,2.78-20.51,2.89-1.36,0-3.47.91-2.17,3.39C943.74,370.32,943.28,372.16,943.34,373.78Z" transform="translate(0 0)"/><path class="cls-4" d="M962.71,517.7,967.5,529c6.53-13.62,6.44-21.55-.13-29.89C965.2,505.19,962.87,511.22,962.71,517.7Z" transform="translate(0 0)"/><path class="cls-14" d="M1033.71,576.52c-1.38-5-7.31-6.76-9.73-11-2.7,5.13-2.23,10.62-2.34,16.06-.07,3.63,3.89,2.85,5.73,4.36,1.19,1,1.91-1.67,2.63-2.76C1031.39,581,1032.49,578.74,1033.71,576.52Z" transform="translate(0 0)"/><path class="cls-7" d="M1001.11,620.18c3.87-1.16,6.9-7,5.93-11.21-.79-3.43-3-4.55-6.77-4.22-2.68.24-4,.93-3.88,3.51.11,1.78-.06,3.58-.11,5.38C996.31,616.77,996,620.12,1001.11,620.18Z" transform="translate(0 0)"/><path class="cls-18" d="M955.49,573.33c-.07-15.21,3.37-30.08,5.25-45.11,0-.27.52-.5.8-.75l-1.88-6.77c-3.32,2.2-2.29,5.68-2.6,8-1.86,13.55-2.78,27.22-3.91,40.85C953,571,952.09,573.39,955.49,573.33Z" transform="translate(0 0)"/><path class="cls-7" d="M1071,361.87c1.2,7.17,8.49,9.23,13.51,13.19,1,.8,2.2,1.43,3.31,2.14,2.68,1.23,4.9,3.63,9.18,2.7-5.08-5.87-11.63-9.52-17.71-13.56C1076.75,364.65,1075.16,361.19,1071,361.87Z" transform="translate(0 0)"/><path class="cls-10" d="M865.47,376.69c12.24.5,24.48.77,36.7-1.31a40.21,40.21,0,0,1,16.59.34c1.49.37,3.33.89,4-1,.4-1.12.83-2.75.24-3.53-.85-1.1-2.48-.18-3.84.08C901.49,374.54,883.52,375.64,865.47,376.69Z" transform="translate(0 0)"/><path class="cls-14" d="M943.38,578.53c1.48,2.61,4.12,4.6,5,7.55l1.65-.4c.66-.79,1.14-1.93,2.64-1.14l-1.84,1.84c-.07.33-.15.65-.25,1,2,1,4.72,1.42,5,4.17,6.78-.36,3.75-5.67,5.27-8.68a1.86,1.86,0,0,0-1.13-.8c-5.61.32-9.94-2.92-14.93-4.28C944.43,577.68,943.85,578.26,943.38,578.53Z" transform="translate(0 0)"/><path class="cls-20" d="M1019.34,658l-35.57,0a1,1,0,0,0,.2-.93c6.41-3.13,12.61-6.67,19.6-8.74l1.43-1.28c3.27,1.07,6.14-1.56,9.37-.81-1.06,2.52-4,2.66-6,2.88-4,.43-3.51,2.61-3.58,5-.08,3,2.09,3,4.41,3,3.4,0,6.79.06,10.19.09A7,7,0,0,0,1019.34,658Zm-18.53-.92c1.58,0,2.77-.51,2.75-2.12,0-1.24.22-2.8-.49-3.63-1.09-1.27-2.54.1-3.68.58-2.82,1.19-5.54,2.58-8.31,3.89.12.43.23.86.34,1.28Z" transform="translate(0 0)"/><path class="cls-17" d="M973.6,486.16c6.27-2.57,10.55-7.55,16.16-10.92a7.22,7.22,0,0,0,2.26-1.92c-5.56.44-12-2.68-16.13,3.8C976.42,480.41,973.8,483,973.6,486.16Z" transform="translate(0 0)"/><path class="cls-14" d="M1045.87,580.93c-3.86-.36-6.65-3.5-10.69-3.4-1,2.26-1.39,4.75-3.27,6.75-1,1-2,2.33.36,3.69,1.88,1.06,3,2,4.93.15C1039.91,585.56,1043,583.31,1045.87,580.93Z" transform="translate(0 0)"/><path class="cls-3" d="M1054.42,380.37c3.36,2,3.48,5.8,5.58,8.52,1.33,1.71,1.62,4.14,4.92,5.15-2-6.66-4-12.93-5.89-19.21-3-1.58-5.77-2.86-4.69,2.32.14.1.41.22.4.31a3.82,3.82,0,0,1-.32.8Z" transform="translate(0 0)"/><path class="cls-7" d="M1033.66,302c7.6,0,15.22.36,22.73-1.15-5.11-2.7-10.79-.45-16.25-1.59-6.41-1.34-13.32-.57-21.56-2.28C1023.94,301.31,1029.5,299.7,1033.66,302Z" transform="translate(0 0)"/><path class="cls-14" d="M1055.36,586.32c-2-3-5.39-2.85-8.55-3.31-1.87,1.56-3.88,3-5.57,4.72-.84.85-3.34,1.43-1.57,3.26,1.18,1.23,3,1,4.37.4a49.68,49.68,0,0,1,11.33-4.06l-.06.07C1055.33,587,1055.34,586.68,1055.36,586.32Z" transform="translate(0 0)"/><path class="cls-12" d="M955.57,591.53c-.3-2.75-3-3.15-5-4.17-2.1-.16-3.67,1.89-5.9,1.14l.07-.06c-.13,3.33-2.9,1.81-4.68,2.1a5,5,0,0,0-.79.66C943.73,596.29,948.56,596.38,955.57,591.53Z" transform="translate(0 0)"/><path class="cls-14" d="M1068.73,585.28c-3.68.35-7.58-1.17-11,1.11-.59.76-.92,2-2.41,1l.06-.07c-.45,4.9-6.19,3.73-9.16,6.7C1055.37,593.78,1062.92,591.42,1068.73,585.28Z" transform="translate(0 0)"/><path class="cls-17" d="M967.73,491.49c1.69,4.81,3.34,9.63,6.45,13.85,4.73-7.93,4.73-7.93-4.13-15A2.22,2.22,0,0,1,967.73,491.49Z" transform="translate(0 0)"/><path class="cls-20" d="M1009.83,630.85c10.69,0,21.09,3.47,31.88,2.23,1.88-.22,4.69,1.19,5.15-2a305,305,0,0,1-31.56-1C1013.57,629.82,1011.33,629,1009.83,630.85Z" transform="translate(0 0)"/><path class="cls-7" d="M962.71,517.7c.16-6.48,2.49-12.51,4.66-18.58l-1.3-4.79C959.63,507.37,958.93,512.39,962.71,517.7Z" transform="translate(0 0)"/><path class="cls-17" d="M1060.49,556.5c4.65,2.8,9.33,5.58,13.94,8.43,2.47,1.52,2.88-.33,3.82-1.66,1.74-2.47-.64-1.69-1.82-2.17-4.91-2-9.58-4.51-15-5.39Z" transform="translate(0 0)"/><path class="cls-9" d="M972.29,631.08l31.14,0a1,1,0,0,0,.39-.95c-9.45-1.87-19-1.25-28.58-1.32C973.53,628.76,971.92,628.91,972.29,631.08Z" transform="translate(0 0)"/><path class="cls-18" d="M967.73,491.49a2.22,2.22,0,0,0,2.32-1.18c1.18-1.38,2.36-2.77,3.55-4.15.2-3.13,2.82-5.75,2.29-9C971.2,481,967.65,485.4,967.73,491.49Z" transform="translate(0 0)"/><path class="cls-1" d="M1005.18,644.1c6.14-.67,6.75-1.47,4.09-6.14-1-1.78-1.26-4.27-4.09-4.86A37.9,37.9,0,0,0,1005.18,644.1Z" transform="translate(0 0)"/><path class="cls-9" d="M951.6,654.68c2.12-3.61,7.4-3.12,9.87-6.27-6.32-.3-10.67,3.7-15.84,6.52Z" transform="translate(0 0)"/><path class="cls-9" d="M962.52,648.4,982.18,645c-.29-1.65-1.82-.78-2.7-1.17C973.41,644.06,967.6,645.13,962.52,648.4Z" transform="translate(0 0)"/><path class="cls-14" d="M1066.14,384.78c1-.64,2.23-.63,2.95-1.93,1.22-2.22-.65-3.59-1.25-5.28a2.69,2.69,0,0,0-2.07-.1c-1.35,1.38-.83,2.89,0,4.4.5.9,1.09,1.88.45,3Z" transform="translate(0 0)"/><path class="cls-18" d="M1019.38,657.23a7,7,0,0,0,0,.79c7.31.06,14.63.13,21.94.16.48,0,1.37-.3,1.38-.46,0-1.06-1.14-.41-1.64-.78Z" transform="translate(0 0)"/><path class="cls-17" d="M1005.18,644.1a37.9,37.9,0,0,1,0-11c-.74-.9,1.19-2.78-1.36-3a1,1,0,0,1-.39.95l-.09,14.12c.08,1.07.15,2.15.23,3.22l1.43-1.28Z" transform="translate(0 0)"/><path class="cls-14" d="M959.21,595.1c3.26-.09,6.4-.52,9.71-3.05-4.4-.25-8.11-1.52-10.48,2.32A4.46,4.46,0,0,1,959.21,595.1Z" transform="translate(0 0)"/><path class="cls-17" d="M1061.45,555.71a6.46,6.46,0,0,0-6.25-1.77l5.29,2.56Z" transform="translate(0 0)"/><path class="cls-4" d="M970,285.61c.84,2,2.67,2.34,4.71,2.32C973.61,286.3,971.83,285.87,970,285.61Z" transform="translate(0 0)"/><path class="cls-20" d="M1015.29,646.17h4.22c-.72-1.4-1.91-.87-2.77-1.14Z" transform="translate(0 0)"/><path class="cls-11" d="M984,657.12c-.65,0-1.48-.31-1.47.69a6.4,6.4,0,0,0,1.27.24A1,1,0,0,0,984,657.12Z" transform="translate(0 0)"/><path class="cls-7" d="M1098.45,381.38l-.54.62a7.09,7.09,0,0,0,1,.38c.08,0,.24-.26.37-.4Z" transform="translate(0 0)"/><path class="cls-8" d="M951.82,576.59c.38.72,1.2,1.24,1.73.61s-.6-.93-1.1-1.3A7,7,0,0,0,951.82,576.59Z" transform="translate(0 0)"/><path class="cls-14" d="M958.44,594.37c-.43.43-1.71.64-1,1.39.56.59,1.4.11,1.76-.66A4.46,4.46,0,0,0,958.44,594.37Z" transform="translate(0 0)"/><path class="cls-20" d="M1047.76,630.92c1.06.16,2,.11,2.62-.89A2.26,2.26,0,0,0,1047.76,630.92Z" transform="translate(0 0)"/><path class="cls-3" d="M911,394.58l1.2-1.17Z" transform="translate(0 0)"/><path class="cls-14" d="M1054.42,378.26a3.82,3.82,0,0,0,.32-.8c0-.09-.26-.21-.4-.31C1054.37,377.52,1054.4,377.89,1054.42,378.26Z" transform="translate(0 0)"/><path class="cls-21" d="M953.2,448c7.94-.2,15.94.69,23.74-1.85,2.25-.74,3.25-.95,2.61-3.43-2.17-8.41-2-7.72-12.37-7a209.36,209.36,0,0,1-36.54-.26c-3.91-.43-4.07.86-4,3.34.2,5,5.35,9,12.12,9.19C943.58,448.08,948.39,448,953.2,448Z" transform="translate(0 0)"/><path class="cls-21" d="M978.68,466.48a12.78,12.78,0,0,0,3,0c2.34-.56,6,1.74,6.85-1.78.63-2.51-5.94-8.15-8.78-7.77a180.85,180.85,0,0,1-21.18,2c-1,0-2.22-.09-2.41,1.06-.21,1.31,1.08,1.63,2.14,2.16C966.19,466.05,968.05,466.48,978.68,466.48Z" transform="translate(0 0)"/><path d="M1045.8,388.12c-.49,5-.16,10-1.11,15-.74,3.92-.06,8.07-1.24,12,2-1.51,2.23-3.58,2.3-5.78a80,80,0,0,1,2.68-20C1049,387.29,1047,388.12,1045.8,388.12Z" transform="translate(0 0)"/><path d="M1043.34,373.92c-.33,1.37-3.5,1.07-2.38,3.3,3,.26,3.4,3.39,2.77,4.06-3,3.16,1.54,2.44,2,3.69C1047.76,380.78,1045.87,377.29,1043.34,373.92Z" transform="translate(0 0)"/><path d="M1009.33,420.14l-5.61,12.1C1007.48,429.38,1010.14,426.14,1009.33,420.14Z" transform="translate(0 0)"/><path d="M1011.2,456.24c-1.68-3-4.4-4.5-8.74-4.93a16.06,16.06,0,0,0,8.32,5.44A5.17,5.17,0,0,0,1011.2,456.24Z" transform="translate(0 0)"/><path d="M990.24,423c-3.42-.37-5.84,1.44-8.33,3.12C985.3,426.45,987.78,424.75,990.24,423Z" transform="translate(0 0)"/><path d="M1042.11,417.5c-1.59-.21-3.31.35-4.79-.61-.45,1.42,0,2.41,1.71,2.64S1042.12,419.47,1042.11,417.5Z" transform="translate(0 0)"/><path d="M1018.15,406.53c-1.44-2.91-1.81-2.91-5.52,0Z" transform="translate(0 0)"/><path d="M1022.74,408.62a3.71,3.71,0,0,0-4.68-2.14A5.55,5.55,0,0,0,1022.74,408.62Z" transform="translate(0 0)"/><path d="M1061.43,397.86c.67-2.19-.62-3.5-2.49-4.55A5.18,5.18,0,0,0,1061.43,397.86Z" transform="translate(0 0)"/><path d="M1036.73,416.36l-4.21-2.23C1032.55,417,1034.7,416.58,1036.73,416.36Z" transform="translate(0 0)"/><path d="M1012,407.09l-2.25,2.62C1011.81,409.74,1012.59,408.89,1012,407.09Z" transform="translate(0 0)"/><path d="M1010.78,456.75c.37.64,1.15,1.22,1.61.57s-.66-.8-1.2-1.07A4.72,4.72,0,0,1,1010.78,456.75Z" transform="translate(0 0)"/><path d="M1032.56,414.15c-.37-1.13-1.34-1-2.32-.93C1030.71,414.15,1031.37,414.7,1032.56,414.15Z" transform="translate(0 0)"/><path class="cls-16" d="M1009.75,377.19c-10.28-1.89-16.61,5.09-23,11.64-2.42,2.49-1.56,5.8-.12,8.73,1.29,2.63,3.56,3.39,6.69,3.64,13.23,1,23.33-3,30-13.78,3-4.87.93-9.42-5.24-10.19A77.43,77.43,0,0,0,1009.75,377.19Z" transform="translate(0 0)"/><path d="M957.09,386.07c1.91,3.65,5.21,4.37,8.75,5.15C964.3,387.06,964.3,387.06,957.09,386.07Z" transform="translate(0 0)"/><path d="M951.84,390.27c.3,1.25,1.55.94,2.44,1.22l.42-1.14C953.74,390.48,952.84,389,951.84,390.27Z" transform="translate(0 0)"/><path d="M912.13,420.73c-.84,1.64.34,2.72,1.3,3.86a1.38,1.38,0,0,0,.52-1.85.65.65,0,0,1-.4-.89,1.43,1.43,0,0,1-.2-.9Z" transform="translate(0 0)"/><path d="M1041,377.21l-2.4,0Q1039.73,379.43,1041,377.21Z" transform="translate(0 0)"/><path d="M1065.49,489.36l-.6-2.18-2.31-1.15C1062.39,488,1062.5,489.69,1065.49,489.36Z" transform="translate(0 0)"/><path d="M1062.63,486.07a3.24,3.24,0,0,0-2.45-3.31C1060.05,484.44,1059.78,486.2,1062.63,486.07Z" transform="translate(0 0)"/><path d="M1060.22,482.8c-.26-1.24,0-2.9-2.44-2.23C1057.84,482,1058.19,483.15,1060.22,482.8Z" transform="translate(0 0)"/><path d="M954.41,342.48a2.31,2.31,0,0,1-.33.87h41.15c-10.58-2.22-21.27-3.79-32-1.65C960.22,342.28,957.29,341.84,954.41,342.48Z" transform="translate(0 0)"/><path d="M1055.31,587.4c1.49,1,1.82-.25,2.41-1l-2.36-.07C1055.34,586.68,1055.33,587,1055.31,587.4Z" transform="translate(0 0)"/><path d="M935.55,424.2a7.27,7.27,0,0,0,1,1.64,10.13,10.13,0,0,0,10.33,2c.65-.22,1.3-1,.53-1.7-2.46-2.28-5.64-2.25-8.83-2.11C937.67,424,936.75,424.12,935.55,424.2Z" transform="translate(0 0)"/><path d="M922.94,423c-.22.29-.41.45-.38.51,2,3.37,5.22,4.12,9,3.6.34-.05.9-1.06.8-1.16C929.79,423.34,926.46,422.77,922.94,423Z" transform="translate(0 0)"/><path d="M915.16,426.16l.77,1,2.21.05C917.43,426.16,916.81,424.93,915.16,426.16Z" transform="translate(0 0)"/><path class="cls-3" d="M913.55,421.85a.65.65,0,0,0,.4.89C914.31,422.26,914.08,422,913.55,421.85Z" transform="translate(0 0)"/><path d="M1069.11,387.59c2.24,2.8,4.68,1.36,8.32.86-3.1-2.19-5.47-1.11-7.55-1.58A4.06,4.06,0,0,0,1069.11,387.59Z" transform="translate(0 0)"/><path d="M940,590.54c1.78-.29,4.55,1.23,4.68-2.1A7,7,0,0,0,940,590.54Z" transform="translate(0 0)"/><path d="M944.65,588.5c2.23.75,3.8-1.3,5.9-1.14.1-.33.18-.65.25-1a3.88,3.88,0,0,1-.8-.71l-1.65.41Z" transform="translate(0 0)"/><path d="M950.8,586.38l1.84-1.84c-1.5-.79-2,.35-2.64,1.14A4.14,4.14,0,0,0,950.8,586.38Z" transform="translate(0 0)"/><path class="cls-9" d="M991.42,657.1h9.39c1.58,0,2.77-.51,2.75-2.12,0-1.24.22-2.8-.49-3.63-1.09-1.27-2.54.1-3.68.58-2.82,1.19-5.54,2.58-8.31,3.89C991.2,656.25,991.31,656.68,991.42,657.1Z" transform="translate(0 0)"/><path d="M967.91,376.53a1.5,1.5,0,0,0,0-3,1.5,1.5,0,0,0,0,3Z" transform="translate(0 0)"/><path d="M970.14,373.36a2.17,2.17,0,0,0-.82.47,1.76,1.76,0,0,0-.33.43,3.12,3.12,0,0,0-.18.42s0,.07,0,.1a3.81,3.81,0,0,0-.07.59,6.68,6.68,0,0,1,0,.89l0-.4a.53.53,0,0,1,0,.17l.15-.36,0,.1.23-.3-.07.07.3-.24-.09.06.35-.15a.28.28,0,0,1-.13,0l.4-.05h-.1l.39.06-.14,0,.36.15-.16-.1.31.24a.75.75,0,0,1-.15-.16l.23.31a.94.94,0,0,1-.12-.22l.15.36a4.31,4.31,0,0,1-.15-.62,2.82,2.82,0,0,0-.24-.63,1.81,1.81,0,0,0-.4-.55,1.58,1.58,0,0,0-1.06-.44,1.15,1.15,0,0,0-.58.13,1,1,0,0,0-.48.31,1.47,1.47,0,0,0-.44,1.06,1.54,1.54,0,0,0,.44,1.06l.07.08-.23-.3a1.14,1.14,0,0,1,.1.19l-.15-.36a2.3,2.3,0,0,1,.12.45,2.93,2.93,0,0,0,.26.79,1.18,1.18,0,0,0,.11.19,2.73,2.73,0,0,0,.38.46,2.36,2.36,0,0,0,.47.34,2,2,0,0,0,.93.24,1.63,1.63,0,0,0,.58-.08,2.37,2.37,0,0,0,.41-.17l.06,0a1.57,1.57,0,0,0,.38-.3,2.78,2.78,0,0,0,.26-.34l0-.06a2.39,2.39,0,0,0,.26-1,2.8,2.8,0,0,0,0-.29,3.31,3.31,0,0,1,0-.7l-.05.4a1.16,1.16,0,0,1,0-.18l-.15.36.06-.1-.23.3.07-.07-.31.24.1-.06-.36.15h0a1.06,1.06,0,0,0,.51-.27,1,1,0,0,0,.38-.42A1.12,1.12,0,0,0,972,375a1.08,1.08,0,0,0,0-.59,1.5,1.5,0,0,0-1.84-1.05Z" transform="translate(0 0)"/><path d="M968.49,374.44a1.5,1.5,0,0,0,0-3,1.5,1.5,0,0,0,0,3Z" transform="translate(0 0)"/><path d="M967.45,373a12.34,12.34,0,0,0-.66,1.69,10.73,10.73,0,0,0-.33,1.78l0,.4a1.14,1.14,0,0,0,.27.51,1.43,1.43,0,0,0,.78.54,1.8,1.8,0,0,0,.8,0,1.5,1.5,0,0,0,.89-.69,8,8,0,0,0,.55-1.43,7,7,0,0,0,.22-1.51,1.5,1.5,0,0,0-1.5-1.5,1.54,1.54,0,0,0-1.06.44,1.61,1.61,0,0,0-.44,1.06c0,.16,0,.33,0,.49l0-.4a5.75,5.75,0,0,1-.39,1.42l.15-.36a2.39,2.39,0,0,1-.13.28l2.8.75a.59.59,0,0,1,0-.14l-.06.39a9,9,0,0,1,.61-2.2l-.15.36.16-.37a1.12,1.12,0,0,0,.18-.56,1.08,1.08,0,0,0,0-.59,1.56,1.56,0,0,0-.69-.9,1.52,1.52,0,0,0-1.16-.15,1.49,1.49,0,0,0-.9.69Z" transform="translate(0 0)"/><path d="M967,373.47l.1,1.22a1.67,1.67,0,0,0,.32.91,1.48,1.48,0,0,0,.78.54,1.57,1.57,0,0,0,1.7-.69,5.15,5.15,0,0,0,.73-2.25,5.28,5.28,0,0,0-.06-1.19,3,3,0,0,0-.36-1.05,2.56,2.56,0,0,0-1-1,2.12,2.12,0,0,0-2,0,2.22,2.22,0,0,0-1,1.05,4.47,4.47,0,0,0-.4,1.13,4.86,4.86,0,0,0-.07,1.32,4.37,4.37,0,0,0,.14.79,6,6,0,0,0,.3.8,1.52,1.52,0,0,0,.9.69,1.57,1.57,0,0,0,1.16-.16,1.5,1.5,0,0,0,.69-.89l0-.4a1.48,1.48,0,0,0-.21-.76l0,0,.15.36a3.46,3.46,0,0,1-.21-.78l0,.4a3.66,3.66,0,0,1,0-.81l0,.4a3.46,3.46,0,0,1,.21-.78l-.15.36a1.78,1.78,0,0,1,.23-.43l-.23.31a.52.52,0,0,1,.1-.11l-.3.23a.57.57,0,0,1,.13-.08l-.36.15.14,0-.4.06h.13l-.4-.05a.48.48,0,0,1,.17.05l-.36-.15a.51.51,0,0,1,.16.09l-.3-.24a1.34,1.34,0,0,1,.2.21l-.23-.3a1.75,1.75,0,0,1,.18.29l-.16-.36a1.9,1.9,0,0,1,.14.57l0-.4a3.39,3.39,0,0,1,0,.9l0-.4a3.74,3.74,0,0,1-.24.87l.15-.35a4.82,4.82,0,0,1-.27.5l2.79.76-.1-1.22a1.59,1.59,0,0,0-.44-1.07,1.51,1.51,0,0,0-1.06-.43,1.49,1.49,0,0,0-1.5,1.5Z" transform="translate(0 0)"/><path d="M970.16,375.42q.18-1,.33-1.92a6.54,6.54,0,0,0,.13-2.49,2.51,2.51,0,0,0-1.3-1.6,3.53,3.53,0,0,0-2.15-.25,3.61,3.61,0,0,0-2.7,2.58,9.28,9.28,0,0,0-.32,1.81,2.53,2.53,0,0,0,.7,2.24,2.2,2.2,0,0,0,1.58.58,2,2,0,0,0,1.67-1.07,3.9,3.9,0,0,0,.35-1.24,10.69,10.69,0,0,0,.11-1.38,1.5,1.5,0,0,0-3,0,8.06,8.06,0,0,1-.06,1l.06-.4a4.32,4.32,0,0,1-.2.88l.15-.36a1,1,0,0,1-.07.15l.23-.31a.63.63,0,0,1-.11.12l.3-.24-.09.05.36-.15-.09,0,.39-.06h-.14l.4.05a.65.65,0,0,1-.2-.05l.36.15a.52.52,0,0,1-.18-.1l.3.24-.11-.11.24.3a1.22,1.22,0,0,1-.12-.19l.16.36a1,1,0,0,1-.06-.25l0,.4a4.13,4.13,0,0,1,.07-1l-.06.4a5.2,5.2,0,0,1,.31-1.28l-.15.36a3.2,3.2,0,0,1,.32-.57l-.23.3a2.31,2.31,0,0,1,.34-.36l-.3.24a1.47,1.47,0,0,1,.4-.24l-.36.15A2.48,2.48,0,0,1,968,372l-.4.06a2.18,2.18,0,0,1,.51,0l-.4,0a2.09,2.09,0,0,1,.43.11l-.35-.15a1.28,1.28,0,0,1,.25.15l-.3-.23a1.37,1.37,0,0,1,.17.17l-.23-.3a1.41,1.41,0,0,1,.13.24l-.15-.35a1.19,1.19,0,0,1,.07.27l0-.4a4.08,4.08,0,0,1,0,.78l.05-.4c-.12.9-.27,1.8-.44,2.7a1.59,1.59,0,0,0,.15,1.15,1.52,1.52,0,0,0,.9.69,1.49,1.49,0,0,0,1.15-.15,1.45,1.45,0,0,0,.69-.9Z" transform="translate(0 0)"/><path class="cls-22" d="M968.2,374.18a1.5,1.5,0,0,0,0-3,1.5,1.5,0,0,0,0,3Z" transform="translate(0 0)"/><path class="cls-22" d="M937.88,372.87a1.5,1.5,0,0,0,0-3,1.5,1.5,0,0,0,0,3Z" transform="translate(0 0)"/></g></svg>