<svg xmlns="http://www.w3.org/2000/svg" xmlns:xlink="http://www.w3.org/1999/xlink" viewBox="0 0 1366 771"><defs><style>.cls-1{fill:#2e2e2e;}.cls-2{fill:#664d3f;}.cls-3{fill:#b4815f;}.cls-4{fill:#630;}.cls-5{fill:#693534;}.cls-6{fill:#633;}.cls-7{fill:#97572c;}.cls-8{fill:#924e44;}.cls-9{fill:#606060;}.cls-10{fill:#442f20;}.cls-11{fill:#1c1c1c;}.cls-12{fill:#7b5438;}.cls-13{fill:#232323;}.cls-14{fill:#9c6a48;}.cls-15{fill:#b2b2b2;}.cls-16{fill:#c8a480;}.cls-17{fill:#cbcbcb;}.cls-18{fill:#fbfbfb;}.cls-19{fill:#454445;}.cls-20{fill:#aba798;}.cls-21{fill:#8d6c57;}.cls-22{fill:#fffdec;}</style></defs><g id="Capa_12" data-name="Capa 12"><image width="626" height="469" transform="translate(0 0) scale(2.18 1.64)" xlink:href="../t6.jpg"/></g><g id="Capa_14" data-name="Capa 14"><path class="cls-1" d="M707.56,771a7.31,7.31,0,0,1-.1-1.14l2.54-.17A2.38,2.38,0,0,1,707.56,771Z" transform="translate(0 0)"/><path d="M374.4,459.75l1.2-1.13,19.94-17.48C404,434.2,411.7,426.31,421,420.61c7.21-4.43,10.44-9.4,10.27-17,1.19-6.21,3.65-12.19,3.93-18.57q3-9.29,6-18.59c1.81-5.86,5-11.38,5.12-17.67l8.65-.1c6.61-1.58,13.39-.58,20.07-1.13,6.44-1.77,13.36,0,19.73-2.33a116.15,116.15,0,0,0,20.06-4.66c10.67-3.72,20.82-8.68,31.74-11.85,1.64-.48,3.1-1.39,4.42,0,5.83,6.29,14.11,10.59,17.41,18.92,1.46,5.5,2,11.25,4.91,16.36,0,.76.07,1.52.1,2.28a124,124,0,0,0,7.16,18.74c3.29,6.32,5.67,13.32,13.67,16.13,2,.9,3.78,2.48,6.22,2.52,4.1,3.09,9.09,4.59,13.68,6.81l20.06,9.32a24.89,24.89,0,0,0,8.64,3.56c2.63,3.71,7.11,4.47,11,6.09,1.44,1.49,4.1,1.78,4.61,3.95-7.77,4.88-16.29,5.81-25.45,5.43-6.27-.26-12.47-1.3-18.75-1.19-6.59-1.83-13.33-1.46-20.06-1.17-2.25-.73-5.26.46-5.37,1.48a5.66,5.66,0,0,0,2.37,5.43c1,.65,1.65,1.84,2.69,2.39,5.82,3.06,9.57,7.46,10.53,13.76,0,6.36-.12,12.72-2.49,18.8-1.86.63-.49,4.42-3.91,3.52.61-1.95,1.15-3.93,1.84-5.86,2.69-7.48,3.13-14.9-.59-22.23h0l-1.23-1.25c-4.5-5.25-10.35-7.37-17.49-8.25-8.77-1.08-16.07,2-23.63,4.95-1.18-1.12,0-1.88.71-2.16,7.48-2.89,14.78-6.4,23.36-5,1.6.26,4.2,1.16,4.61-2.11.59-4.64-4.11-12-9.3-13.67-.43,3.22-1.92,6.17-.8,9.61.53,1.59.83,4.07-2.61,3.94-2.42-.09-5.2.59-4.76-3.24.22-2-.87-3.62-2.3-5,.06-1.73-.41-3.7.31-5.14,1.34-2.65-.84-3.6-2.25-3.62-6.73-.12-13.22-1.75-21.2-3.1,3.83,4.29,2.83,8.28,3.27,12.06a36.31,36.31,0,0,1-3.77,12.56c-2,3.82-5.24,4.27-8.77,3.5-3.74-.83-4.17-3.9-3.78-7,.48-3.79,1.95-7.5,1-11.4.61-4,4.26-6.47,5.65-10.07-3-1.47-6.21-1.65-9.5-1.73-13.4-.35-26.59,1.51-39.62,3.88C479.38,423,471,423,463.8,427.32c-9.73,2.26-9.82,2.34-11.1,11.56a2.26,2.26,0,0,1-1.6,2.19l-.06-2.45v-2.27l.09-1.19c1.12-5.54-1.77-4.17-4.85-2.47-4-.6-4,2.66-4.65,4.7s-.61,4.48-2.77,6c-.66-1.16-.05-2.21.47-3.18.85-1.61,1.39-3.23,0-4.71a2.64,2.64,0,0,0-2.14.12c-.62,1.81-2.55,3.27-1.29,5.64.74,1.39,2.05,1.38,3.05,2.07a6.43,6.43,0,0,1-3.08,3,3.85,3.85,0,0,0-.79-.77c-.05-3-3.63-5.35-.95-9.22-3.33,1.22-5.51,2.51-7.82,2.78-5.62.66-4.22,4.09-3.27,7,2.38,7.27,10.32,11.38,20.82,11.11-2.79,6.38-5.6,12.76-8.38,19.15-.59,1.36-1,2.43,0,4.17,7.58,13.25,17.26,24.52,30.61,33.29,19.93,13.09,41.5,20.81,66,20.35,13.11-.25,23.21-6.93,32.93-14.65-24.13.47-47.37-.34-60.75-23.22,2.15.22,3.23,1.67,4.49,3.24,4.39,5.48,10.14,9.16,17.11,11.58,15.47,5.38,31.46,3.17,47.21,3.06,11.52-.08,16.8-7.46,15.11-18-.38-2.41-1.71-3.28-3.67-2.52-9.79,3.78-20,1.35-30,2.17-6.54.54-12.82-.84-18.72-2.8-3.37-1.12-8.17-1.19-9.81-5.49,9.2,3.24,18.34,6.76,28.51,5.74A96.6,96.6,0,0,0,589.26,490a24.89,24.89,0,0,0,6.14,12.56c.56.6,1.84,2.81.91,2.8-7.22-.09-.69,3.91-2,5.46-1.86-.11-2-2.17-3.44-3a13.58,13.58,0,0,1-6.57,7.77l-9.95,2.52c-1.2-.15-2.73-.64-3.44.42-3,4.46-9.22,7.65-6.62,14.36h-2.11c-.59-1.26.46-2.87-1.26-4.4-.79,2.77-5,2.36-4.95,5.68-.33.82,0,2-1.33,2.27a2.1,2.1,0,0,0-3.24-2.08c-5.27,3.18-11.72,1.29-17.29,3.88,6.2,4.51,13.2,4.56,20.35,4,5.27,1.15,9.63-2,14.8-3.25l-7.08,14c-2.65,3.38-6.28,6.11-7.76,10.27-3.63,1.89-4.94,4.62-3.43,8.37-.53,3.67,2,6.32,3.53,9.32a27.59,27.59,0,0,0,3.93,9.33,63.69,63.69,0,0,0,9.95,18.49c.87,3.2,3.18,5.36,5.91,7.22,4.73,3.68,10.55,6.24,13.64,11.62-.53,3.67,3.31,5,4.94,7.88-6,2.08-6.46,5.41-2.36,9.62.24.24.17.74.25,1.12-3.95,7-9.51,12.82-15.19,18.56l-1.17,1.11c-3,4.57-7,7-13,6-2.17-.38-4.5,0-6.76.1-4.21-.29-8.44,0-12.37-2.3-2.72-1.61-4.62-.28-5.13,2.82-.61,3.7-1.51,7.36-2.28,11-.54,2.8-.57,5.72-2.35,8.2-.5-8,2.17-15.62,3.72-23.34.65-3.26-.43-3.69-3.25-3.62-3.73.09-7.46.07-11.19,0-2.38,0-3.31,1.1-3.29,3.23,0,6.58-1.59,13-1.36,19.67.37,10.87-.39,11.4-11.84,13.41-.11,0-.13.5-.24,1h13.76c9.41,0,9.39,0,12.28-8.73.21-.65,1-1.14,1.47-1.7.94,3.34-3.12,7.29-.53,9.53s7.38.6,11.18,1c-4.28,4.63-6.4,10.4-10,15.81,6.32,1,11.89,2.86,17.59,4.21a40.4,40.4,0,0,1,15.65,8.06c2.21,1.79,3.16,3.39-1.06,4.76-3.72,1.2-7.37.31-11,1-7.21,0-15.25-1.81-21.4.61s-12.14,2.14-18.23,2.89H475c-8.82.52-17.4-1.13-26-2.47-2.68-.42-2.61-1.32-2.15-3.48.92-4.26,1.24-8.63,1.81-13,.26-6.18,2.38-12.25,1.24-18.51,1.25-2.08,3.53-.81,5.24-1.41,2.56-3.87.12-8.21,1.25-12.12,1.59-5.48-1.27-7.94-5.9-10.4-2.84-1.51-8.72-2.67-4.41-8.22,1.1-1.41-1.07-1.68-2-2.14-9.57-4.74-15.91-11.9-18.77-21.72l4.92-7.16c-5.5-.09-8-7-13.82-4.47,0-1.18,0-2.37,0-3.55,2.09-.68,1.18-2.25,1.18-3.55,1.61-6.08,1.76-12.32,2.49-18.5q1.41-9.31,2.83-18.62,3.56-9.34,7.12-18.68,2.58-5.83,5.17-11.66l3.73-4.08c.68,2.76-1.18,4.78-2.31,7-2.53,5.06-6.36,9.92-7.31,15.23-1.73,9.65-5.38,18.89-6.15,28.72C422.5,615,420,623,420.32,631.5l47.85-18c1.86-.7,4.88-1.12,4.1-3.46-2.73-8.13-.63-17.26-6.11-24.86-1.05-1.44,1-2.07,2.56-2,3.11,6.75,4.26,13.93,5.32,21.13.46,3.19,1.32,6.28.51,9.66-.35,1.42-1.13,4.48,2.17,5,7.18,1.14,10.4,6.22,13.48,11.54,3.56,6.14,3,11.54-2,17-2.75,3-.77,11.31,2.06,11.33,15.26.11,30.46,2.13,45.75,1.21,4.12-.25,6.83-1.61,6.31-6.42-.41-3.82-1-7.66-1.21-11.45a318.35,318.35,0,0,0-10.28-65.87,37.91,37.91,0,0,0-3.51-8c-1.26-2.36-2.37-1.52-3.1.45-6.79,2.64-10.81,8.32-15.82,12.87-3,2.7-4.47,3.06-6.89-.64-3.62-5.53-6.52-11.63-11.74-15.77-7.5,5.77-12.31,13.85-21.1,17.91-.31-2.38,1.84-3.33,3.2-4.65,4.17-4,8.35-8.1,12.75-11.92,2.77-2.41,3.2-4.28.66-7.31-6.55-7.8-14.76-14.06-21.89-21.31-1.77-1.8-2.89-.73-4.68.22-4.08,2.17-6.28,6.74-11.28,7.65,1.08-4.41,5.14-6.73,8.41-9.13,3.82-2.81,2.25-3.65-.7-5-4.34-3-8.64-6-13.07-8.86-1.05-.68-2.2-1-1.91-2.44.41-2.07,2.2-1.12,3.44-1.37,3.89-.8,7.52,1.11,11.35,1l11.72,1.21c-9.61-7.33-18.61-14.89-25.5-24.42l-6-9.32c-.58-3.53-3-6.2-4.83-9.15,2.31-2,.07-4.77,2.87-7.58-6.93,1.75-12.25,3.24-17.87,3H395.3c-6.64-1.9-13.61-2.88-19.8-6.07C372.42,465.4,372.15,462.73,374.4,459.75ZM549.47,668.39c.37.82,1.24,1.33,1.82.7.74-.81-.58-1-1-1.49-2.45-4.11-6.28-2.75-10.83-2.49C542.86,667.83,546.1,668.29,549.47,668.39ZM502,709c-2.93.63-3.18,3.29-4.23,5.21-2.74,5-2.11,5.84,4.23,6.56.06,1.08.13,2.15.19,3.22-3.38,1.14-6.35-1.68-9.69-.88a1,1,0,0,0-.95-.12l-1.5-1.22c1.25-5.53,5.39-9.86,7.14-15.17-1.54-2-3.87-1.1-5.65-.92a301.25,301.25,0,0,1-32.63,1.11.91.91,0,0,0-.93-.12,2.3,2.3,0,0,0-2.7-1c-1.31.26-1.38,1.23-1.41,2.19a142.6,142.6,0,0,1-1.09,15.95c-1.29,9.26-.82,9.31,8.87,9.69,1.18,0,2.49-.24,3.31,1-.53.4-1.71-.3-1.7.84,0,.17.93.49,1.42.49,7.56,0,15.12-.11,22.68-.17l36.77,0a6.6,6.6,0,0,0,1.32-.25c0-1.08-.85-.76-1.52-.74-6.63-3.35-13-7.14-20.27-9.35.08-1.15.16-2.3.25-3.45,7.91,3.07,16.33,5,23.48,9.77a6.81,6.81,0,0,0,3.52.7c8.83,0,17.65-.18,26.48-.29l6.17.27c-5.35-3-9.85-7.29-16.38-7a3.91,3.91,0,0,0-1.08,0c-5.25-3.5-11.26-4.65-17.53-4.95,2-4.74,6-8.56,7.43-13.58.38-2.33-1.28-2.49-3.05-2.47-9.87.06-19.78-.59-29.54,1.4C500.72,706.07,502.72,708.08,502,709Zm-58.17-82.81c-5.58.95-10.4,3.65-15.49,5.77-1.21.51-3.68-.32-1.88,2.32,1,1.43,1.4,3.4,3.95,1.77,4.77-3.05,9.6-6,14.41-9l5.47-2.74C447.12,623.65,445.4,624.8,443.78,626.23Zm94.49-70c-9.16,7.6-9.16,7.6-4.27,16.08,3.21-4.51,4.92-9.67,6.66-14.82.08-6.52-3.58-11.23-8.44-15.37-4.25-6.93-10.92-3.6-16.67-4.06a7.59,7.59,0,0,0,2.34,2c5.79,3.61,10.23,8.93,16.71,11.68ZM450.06,660.07c4.18.8,7.94,2.57,11.72,4.34,1.44.68,3.29.89,4.52-.42,1.82-2-.76-2.58-1.63-3.49a75.37,75.37,0,0,0-5.76-5c-.05-.89-.36-1.88,1-2.23,3,2.55,6.16,5,9,7.69,2,2,3.15,1,5.09-.16,2.47-1.45,1.38-2.84.38-4-1.95-2.13-2.31-4.8-3.38-7.22l1.52-1.08c1.26,2.37,2.39,4.81,3.83,7.08.74,1.17,1.49,4,2.73,3,1.89-1.61,6-.79,5.92-4.66-.12-5.83.36-11.7-2.43-17.19v-5.42c3.44,3.11,3.42,7.44,6.12,11.34,0-3.5.15-6.21,0-8.91-.35-5-9.41-13.84-13.73-13-13.57,2.49-26.78,5.74-37.09,15.37s-10.25,12.8-1.52,21.85c6,6.57,13.81,9.09,23.27,9.35C456.47,664.06,450.53,665.31,450.06,660.07Zm103.18,4.49c7.24,5.19,12.23,5.09,16.87-.34,6.57-4.46,11-10.68,15.83-16.62,1.86-2.31.76-4.36-.5-6.38-.7-1.13-1.7-.75-2.56-.07-5.11,4.07-12.28,4.89-17,9.51-.48-.29-1.08-.92-1.44-.82-5.17,1.45-9.64,4.92-15.44,4.57a1.93,1.93,0,0,0-1.16.86C549.35,658.5,546.23,664.18,553.24,664.56Zm-7.39-79c3.91-5.7,3.18-11.06-3.47-25-.49,1.87-.92,3.5-1.34,5.13-6.79,8.93-6.89,17.41-.14,32ZM547.06,596c-3,4.29-6.65,8.34-6.21,14a342.2,342.2,0,0,0,5,35.3c.33,1.77-1.23,4.39,1,5.14,2.06.7,3-2.06,4.57-3.21a12.92,12.92,0,0,0,1.91-2.18c3.51.07,2.54-2.45,2.41-4.08-1.16-14.59-2.11-29.21-4-43.71-.33-2.44.73-6.16-2.69-8.52C548.31,591.4,547.68,593.71,547.06,596Zm2.45-209.95c-25.1,1.88-49.06,8.26-74,16.2l8.06.44a194.23,194.23,0,0,0-49.69,16.11c-4.29-.73-5.94,3-8.57,4.78-6.29,4.32-13.05,8.23-18.31,14.51,4.43,1,6.72-1.57,9.49-2.89,11.95-2.09,23.08-6.73,34.6-10.11C472,419,493.42,416,515,414.36c19-1.44,37.56,3,56.1,6.09,15.49,2.61,30.82,6.27,46.53,7.51,5.11.41,10.15,1.67,15.31,1.36.47,0,1.93.53,1.09-.92-.12-.22-.77-.17-1.17-.24-14.59-7.81-29.5-15.06-44.59-22a12.94,12.94,0,0,0,1.66-.4c-.44-3.27-17.42-21.09-20.77-21.88a2.54,2.54,0,0,0-.62,0A74.61,74.61,0,0,0,549.51,386.07Zm7.6,262.5c9.49-2.16,17.31-7.76,26.17-11.22,4.49-1.75,3.81-3.6.75-6.14-8.36-7-14.83-15.41-20.74-24.2-3.14-4.67-5.48-9.81-8.44-15.23-1.13,5,.48,9.18,1.2,13.21,1.44,8,.61,16.1,1.82,24.14.91,6,2.21,12.7-1.41,18.71-.51.4-1.78.58-1.14,1.39S556.72,649.35,557.11,648.57Zm-50.95,46.65c5.29-.07,5-3.65,5-7,1.71-6.14,1.56-12.48,2.3-18.73.41-3.49-1-4.85-4.86-4.71-4.91.18-9.87-.57-14.73-.75-7.09-.27-14.28-3-21.61,1.2-6.75,3.9-13.75,9.3-23.11,5.26,10.69,7.44,21.33,14.27,32,21.08A29.26,29.26,0,0,0,506.16,695.22Zm-7.43-124.76c1,1.15,2.34,2.16,2.95,3.47,2,4.36,4.63,2.56,7.52,1,6.37-3.49,10.6-9.26,16.56-13.26,6.78-4.54,6.53-4.88.23-10.09-22.14-16.09-46.74-26.48-75.36-28.34A183.93,183.93,0,0,1,498.73,570.46ZM533.5,339.69v0c-7.88,2.47-15.73,5-23.65,7.38-12.19,3.63-24,9.07-37.35,7.62,4.3-2.45,10.05-.72,15.59-5.37-8.52,1.82-15.66,1-22.29,2.44-5.65,1.22-11.52-1.19-16.79,1.69-2.72,10.44-5.36,20.89-8.16,31.31-2.68,10-5.52,19.91-8.43,30.36,19.3-7.33,37.54-14.65,56.71-19.69,9.84-2.59,20-4.19,29.46-8,2-.56,4.49.78,6.23-1.18l23.51-3.56c9,.62,18-1.41,27.32.5-4.16-10.79-7.81-21.56-9.62-32.61-1.14-6.95-6.94-9.66-10.58-14.34-5.94-7.61-11.16-.77-16.66.5-.17,0-.29.27-.43.41C536.42,337.49,534.59,338,533.5,339.69ZM376.82,462.48a14.06,14.06,0,0,0,2.34,1.78c17.68,7.53,35.81,5.08,53.93,2a3.88,3.88,0,0,0,3.1-3.33c.31-2.38-2.05-2-3.37-2.62-7.22-3.18-12.9-7.54-13.82-15.59-.45-3.92-2.73-1.63-4.34-1.11C401.14,448,390.31,457.06,376.82,462.48Zm82,221.16c0,4.62.36,8.33-.1,11.94-.55,4.36,1.84,6.2,5.73,6.33,8,.27,16.05.08,25.81.08C477.87,697.21,469.32,690,458.82,683.64Zm80-139.69c2.65,6.55,7.12,12.14,9,19.23,6.31-6,13.26-10.69,15.09-19.1A88.76,88.76,0,0,1,538.83,544ZM646.37,434.67c-18.66-1.12-37.23-2.29-55.52-5.84-1.4-.27-3.09-1.26-4-.08-.61.83-.18,2.57.24,3.77.72,2.06,2.61,1.52,4.16,1.11a40.37,40.37,0,0,1,17.15-.36C621.07,435.49,633.72,435.21,646.37,434.67Zm-240.84,5-.86.66c.14.14.31.44.39.42a6.5,6.5,0,0,0,1-.41Z" transform="translate(0 0)"/><path class="cls-2" d="M451.1,441.07a2.26,2.26,0,0,0,1.6-2.19c1.28-9.22,1.37-9.3,11.1-11.56a7,7,0,0,1-1.3,4.39c-2.61,3.61-4.56,7.34-2.47,11.82,0,1.13,0,2.25-.07,3.38-1.19,0-3.34-.9-2.72,1.35A88.84,88.84,0,0,1,460,469.63c.08,2.36.26,4.57,2.38,6.18l1.38,2.53c0,2.1,1.42,2.42,3.18,2.17s2.24-1.3,1.78-2.82c0-.37.21-.56.61-.57,2.1.24,4.32.68,4.35-2.39l0,0c1.23.58,1.91,0,2.39-1a27,27,0,0,0,7.76-4.92,5.64,5.64,0,0,0,4.83-2.29l-.09.05,5.71,0c.4,0,.61.2.61.57-.57,1.93.24,2.84,2.34,2.81,5.83,5.87,12.89,10.2,20.19,14.24,2.55,1.85,5.11,3.67,8.61,3.34l-.06-.06c1.64,4.3,6.44,4.37,9.81,5.49,5.9,2,12.18,3.34,18.72,2.8,10-.82,20.23,1.61,30-2.17,2-.76,3.29.11,3.67,2.52,1.69,10.58-3.59,18-15.11,18-15.75.11-31.74,2.32-47.21-3.06-7-2.42-12.72-6.1-17.11-11.58-1.26-1.57-2.34-3-4.49-3.24C517.62,519.21,540.86,520,565,519.55c-9.72,7.72-19.82,14.4-32.93,14.65-24.47.46-46-7.26-66-20.35-13.35-8.77-23-20-30.61-33.29-1-1.74-.6-2.81,0-4.17,2.78-6.39,5.59-12.77,8.38-19.15l-.05.09a5.63,5.63,0,0,0,2.58-4.88Zm45.07,79.27a16.61,16.61,0,0,0,8.6-5.82c-4.49.46-7.3,2.06-9,5.29-.56.29-1.79.34-1.24,1.15S495.78,521,496.17,520.34Zm59.52-9.4c5,0,9.94.13,14.9,0,7-.22,12.32-4.5,12.53-9.83.1-2.65-.08-4-4.11-3.58a210,210,0,0,1-37.78.29c-10.73-.75-10.54-1.49-12.79,7.51-.66,2.65.37,2.88,2.71,3.67C539.2,511.69,547.48,510.73,555.69,510.94Zm-26.34,19.81c11,0,12.91-.45,21.09-4.7,1.1-.57,2.43-.91,2.21-2.31-.19-1.22-1.5-1.11-2.48-1.13a178.39,178.39,0,0,1-21.9-2.12c-2.93-.4-9.73,5.63-9.08,8.31.92,3.77,4.67,1.31,7.08,1.91A12.65,12.65,0,0,0,529.35,530.75Zm-31.68-49.58c-.84,6.41,1.9,9.89,5.79,12.94C501.73,490.26,500,486.4,497.67,481.17Z" transform="translate(0 0)"/><path class="cls-3" d="M483.8,468.84a27,27,0,0,1-7.76,4.92c-1-.12-2-.21-2.39,1l0,0-4.35,2.39c-.4,0-.6.2-.61.57-1.53,1-3.31.42-5,.65l-1.38-2.52c-1.22-4.23-.51-8.67-1.28-12.86-1-5.37-.65-10.72-1.15-16,0-1.13.05-2.25.07-3.38.48-1.33,5.13-.56,2.07-3.94-.65-.72-.2-4.07,2.86-4.35v0q1.29,2.38,2.47,0c5.67-1.56,11.29-4.2,17-4.45,15.41-.69,30.76-4.64,46.29-1.3.91,3.9-.56,7.61-1,11.4-.39,3.09,0,6.16,3.78,7,3.53.77,6.77.32,8.77-3.5A36.31,36.31,0,0,0,546,431.76l19.87-.2c1.43,1.42,2.52,3.05,2.3,5-.44,3.83,2.34,3.15,4.76,3.24,3.44.13,3.14-2.35,2.61-3.94-1.12-3.44.37-6.39.8-9.61,5.19,1.65,9.89,9,9.3,13.67-.41,3.27-3,2.37-4.61,2.11-8.58-1.37-15.88,2.14-23.36,5-.73.28-1.89,1-.71,2.16l.12-.06c-1-1.35-2,.23-3,.09l.44,1.22a4,4,0,0,0,3.42,1,35.48,35.48,0,0,1,22,6,27.66,27.66,0,0,0,8.17,4c8.08,2,11,.07,11.11-7.66,3.72,7.33,3.28,14.75.59,22.23-.69,1.93-1.23,3.91-1.84,5.86l.08-.1-1.27.24c.48-4.07-1.14-5.22-5.25-3.56-7.5,3-15.2,2.2-23.1,1.44s-15.94-1.46-23.86-2.71c-1.72-.27-4.14-.74-5.13,1.07-1.11,2,.87,3.48,2.19,4.93,3.66,4,8.22,7,12.73,10.07-10.17,1-19.31-2.5-28.51-5.74l.06.06c-2.56-1.8-5.07-3.74-8.61-3.34-7.3-4-14.36-8.37-20.19-14.24l-2.34-2.81c0-.37-.21-.56-.61-.57-3.83-3.14-4.22-3.14-5.71,0l.09-.05C486.25,465.89,484.78,466.9,483.8,468.84Zm13.43-33.64c-3.65,0-6.17-.26-8.61.06-6.39.82-8.53,5.68-5.42,10.89,6.85,11.5,17.29,15.85,31,14.75,3.24-.26,5.58-1.08,6.91-3.89,1.49-3.14,2.38-6.68-.12-9.35C514.4,440.65,507.85,433.19,497.23,435.2Zm54.44,9.51c-7.46,1.06-7.46,1.06-9,5.51C546.27,449.38,549.69,448.61,551.67,444.71Z" transform="translate(0 0)"/><path class="cls-4" d="M472.51,354.73c13.38,1.45,25.16-4,37.35-7.62,7.92-2.36,15.77-4.91,23.65-7.38-.38,2.17.34,4.16,1.09,6.17q6.9,18.42,13.74,36.86l-23.51,3.56c-7.22-7.64-14.58-15.17-21.61-23-4.06-4.52-7.55-4.4-10.72,1-1.91,3.24-1.13,6.38.85,9.25,5.9,8.59,15.83,10.85,25.25,13.9-9.47,3.78-19.62,5.38-29.46,8-19.17,5-37.41,12.36-56.71,19.69,2.91-10.45,5.75-20.39,8.43-30.36,2.8-10.42,5.44-20.87,8.16-31.31C456.78,355.12,464.65,354.77,472.51,354.73Z" transform="translate(0 0)"/><path class="cls-5" d="M524.25,568.82c.73-2,1.84-2.81,3.1-.45a37.91,37.91,0,0,1,3.51,8,318.35,318.35,0,0,1,10.28,65.87c.18,3.79.8,7.63,1.21,11.45.52,4.81-2.19,6.17-6.31,6.42-15.29.92-30.49-1.1-45.75-1.21-2.83,0-4.81-8.32-2.06-11.33,5-5.48,5.53-10.88,2-17-3.08-5.32-6.3-10.4-13.48-11.54-3.3-.53-2.52-3.59-2.17-5,.81-3.38-.05-6.47-.51-9.66,5.77-3.15,8.2-8.89,11.8-13.67,5.68-7.55,5.7-7.78,11,0,2.55,3.78,4.52,5,8.34,1.32,2.71-2.57,6.59-4.1,9.14-6.77C518.78,580.47,527,577.51,524.25,568.82Z" transform="translate(0 0)"/><path class="cls-6" d="M468.72,583.16c-1.56,0-3.61.58-2.56,2,5.48,7.6,3.38,16.73,6.11,24.86.78,2.34-2.24,2.76-4.1,3.46l-47.85,18C420,623,422.5,615,423.14,606.85c.77-9.83,4.42-19.07,6.15-28.72.95-5.31,4.78-10.17,7.31-15.23,1.13-2.24,3-4.26,2.31-7,0-.44.22-.66.7-.65,3.08.36,3.2-1.48,3-3.56l0,.05c2.94.13,2.66-1.75,2.52-3.54l0,0c2.1.37,2.46-.87,2.52-2.39l-.11,0c5-.91,7.2-5.48,11.28-7.65,1.79-1,2.91-2,4.68-.22,7.13,7.25,15.34,13.51,21.89,21.31,2.54,3,2.11,4.9-.66,7.31-4.4,3.82-8.58,7.87-12.75,11.92-1.36,1.32-3.51,2.27-3.2,4.65Z" transform="translate(0 0)"/><path class="cls-4" d="M632.9,428.16c.4.07,1.05,0,1.17.24.84,1.45-.62.89-1.09.92-5.16.31-10.2-.95-15.31-1.36-15.71-1.24-31-4.9-46.53-7.51-18.54-3.13-37.1-7.53-56.1-6.09-21.62,1.63-43,4.61-63.93,10.75-11.52,3.38-22.65,8-34.6,10.11a40.73,40.73,0,0,0,3.42-2.29c5.19-4.24,12.73-6.44,14-14.11a194.23,194.23,0,0,1,49.69-16.11c9.59-1,19.21-1.76,28.65-3.72h42.53c8.63-.48,17,.3,24.52,4.73-10.42-.46-20.44-5.25-31.34-1.35-8.17,2.93-17.16.78-27.48,1.66,18.6,3.93,35.65,7.13,52.45,11.2C592.8,420.06,612.94,423.71,632.9,428.16Z" transform="translate(0 0)"/><path class="cls-3" d="M459.89,653.22c-1.34.35-1,1.34-1,2.23-3.26.49-6.79.38-8.83,3.54l-2.44.07c-3.55-2.44-7.58-.82-11.38-1.18-8.73-9-8.77-12.25,1.52-21.85s23.52-12.88,37.09-15.37c4.32-.8,13.38,8,13.73,13,.18,2.7,0,5.41,0,8.91-2.7-3.9-2.68-8.23-6.12-11.34v5.42c-2.5,4.57-8.63,6.43-10.05,11.81l-1.52,1.08C466.76,649.47,463.88,652.84,459.89,653.22Z" transform="translate(0 0)"/><path class="cls-7" d="M548.34,382.76q-6.87-18.43-13.74-36.86c-.75-2-1.47-4-1.09-6.17v0c2.11,0,4-.34,4.87-2.47.14-.14.26-.37.43-.41,5.5-1.27,10.72-8.11,16.66-.5,3.64,4.68,9.44,7.39,10.58,14.34,1.81,11.05,5.46,21.82,9.62,32.61C566.32,381.35,557.31,383.38,548.34,382.76Z" transform="translate(0 0)"/><path class="cls-8" d="M498.73,570.46a183.93,183.93,0,0,0-48.1-47.25c28.62,1.86,53.22,12.25,75.37,28.34-8.66,5.68-18.14,10.37-25,18.21C500.55,570.24,499.49,570.24,498.73,570.46Z" transform="translate(0 0)"/><path class="cls-4" d="M506.16,695.22a29.26,29.26,0,0,1-25-3.65c-10.66-6.81-21.3-13.64-32-21.08,9.36,4,16.36-1.36,23.11-5.26,7.33-4.25,14.52-1.47,21.61-1.2,4.86.18,9.82.93,14.73.75,3.88-.14,5.27,1.22,4.86,4.71-.74,6.25-.59,12.59-2.3,18.73,0-1.92-.22-3.85-.12-5.76.16-2.76-1.23-3.49-4-3.75-3.94-.36-6.17.85-7,4.51C499,687.74,502.15,694,506.16,695.22Z" transform="translate(0 0)"/><path class="cls-9" d="M497.14,706.64c-1.75,5.31-5.89,9.64-7.14,15.17-.89.29-2.12-.27-2.86,1.22h4.36a1,1,0,0,1,.95.12c1.09,2.7,4.09,2.85,6.21,3.09,4.1.46,3.63,2.8,3.7,5.35.09,3.21-2.16,3.18-4.55,3.18-3.51,0-7,.06-10.54.09l-22.36-.31c-.82-1.2-2.13-.91-3.31-1-9.69-.38-10.16-.43-8.87-9.69A142.6,142.6,0,0,0,453.82,708c0-1,.1-1.93,1.41-2.19.6,1.07,1.6,1.12,2.7,1a.91.91,0,0,1,.93.12c.48,3.47,3.39,2,5.33,2.19C475.34,710.35,486.09,706.68,497.14,706.64Z" transform="translate(0 0)"/><path class="cls-10" d="M376.82,462.48c13.49-5.42,24.32-14.46,37.84-18.87,1.61-.52,3.89-2.81,4.34,1.11.92,8,6.6,12.41,13.82,15.59,1.32.59,3.68.24,3.37,2.62a3.88,3.88,0,0,1-3.1,3.33c-18.12,3.08-36.25,5.53-53.93-2A14.06,14.06,0,0,1,376.82,462.48Z" transform="translate(0 0)"/><path class="cls-7" d="M632.9,428.16c-20-4.45-40.1-8.1-60-12.92-16.8-4.07-33.85-7.27-52.45-11.2,10.32-.88,19.31,1.27,27.48-1.66,10.9-3.9,20.92.89,31.34,1.35,2.66,1.93,6.21,1,9,2.44C603.4,413.1,618.31,420.35,632.9,428.16Z" transform="translate(0 0)"/><path class="cls-10" d="M524.25,568.82c2.77,8.69-5.47,11.65-10,16.38-2.55,2.67-6.43,4.2-9.14,6.77-3.82,3.63-5.79,2.46-8.34-1.32-5.25-7.81-5.27-7.58-11,0-3.6,4.78-6,10.52-11.8,13.67-1.06-7.2-2.21-14.38-5.32-21.13l0,0c8.79-4.06,13.6-12.14,21.1-17.91,5.22,4.14,8.12,10.24,11.74,15.77,2.42,3.7,3.93,3.34,6.89.64C513.44,577.14,517.46,571.46,524.25,568.82Z" transform="translate(0 0)"/><path class="cls-8" d="M556.45,647.83c3.63-6,2.33-12.66,1.42-18.7-1.21-8-.38-16.11-1.82-24.14-.72-4-2.33-8.24-1.2-13.21,3,5.42,5.3,10.56,8.44,15.23,5.91,8.79,12.38,17.23,20.74,24.2,3.06,2.54,3.74,4.39-.75,6.14-8.86,3.46-16.68,9.06-26.17,11.22C556.9,648.31,556.68,648.07,556.45,647.83Z" transform="translate(0 0)"/><path class="cls-11" d="M546.05,725.42a3.91,3.91,0,0,1,1.08,0c2.55,3.37,8,2.84,10.21,6.7-8.83.11-17.65.24-26.48.29a6.81,6.81,0,0,1-3.52-.7c-7.15-4.73-15.57-6.7-23.48-9.77q-.06-7.56-.1-15.11l32.19,0c-1.45,5-5.4,8.84-7.43,13.58-.91.41-2.49-.51-2.79,1.25Z" transform="translate(0 0)"/><path class="cls-12" d="M530.73,429.43c-15.53-3.34-30.88.61-46.29,1.3-5.73.25-11.35,2.89-17,4.45l-2.47,0v0c1.16-2.39-2.12-2.06-2.46-3.53a7,7,0,0,0,1.3-4.39c7.15-4.28,15.58-4.37,23.46-5.81,13-2.37,26.22-4.23,39.62-3.88,3.29.08,6.46.26,9.5,1.73C535,423,531.34,425.46,530.73,429.43Z" transform="translate(0 0)"/><path class="cls-13" d="M532.54,691.67c-.5.56-1.26,1.05-1.47,1.7-2.89,8.73-2.87,8.73-12.28,8.73H505c.11-.49.13-1,.24-1,11.45-2,12.21-2.54,11.84-13.41-.23-6.64,1.41-13.09,1.36-19.67,0-2.13.91-3.25,3.29-3.23,3.73,0,7.46.05,11.19,0,2.82-.07,3.9.36,3.25,3.62-1.55,7.72-4.22,15.33-3.72,23.34Z" transform="translate(0 0)"/><path class="cls-14" d="M554.45,493.27c-4.51-3.06-9.07-6.06-12.73-10.07-1.32-1.45-3.3-2.89-2.19-4.93,1-1.81,3.41-1.34,5.13-1.07,7.92,1.25,15.88,1.93,23.86,2.71s15.6,1.59,23.1-1.44c4.11-1.66,5.73-.51,5.25,3.56a1.52,1.52,0,0,1-.2,1c-.55.16-.79.44-.41.95a1.5,1.5,0,0,0,.54,2L595,487.61c-1.71-1.32-2.35,0-3.08,1.09-.54,1.06-1.6,1.22-2.67,1.34A96.6,96.6,0,0,1,554.45,493.27Zm19.48-7.76c-1.24-.08-2.2-.17-3.15-.21-3.3-.15-6.59-.18-9.13,2.26-.8.76-.12,1.58.55,1.81a10.18,10.18,0,0,0,10.68-2.1A8.2,8.2,0,0,0,573.93,485.51Zm13-1.34c-3.63-.19-7.08.42-9.76,3.16-.11.1.47,1.19.82,1.24,3.94.55,7.32-.24,9.33-3.85C587.39,484.66,587.19,484.48,587,484.17Z" transform="translate(0 0)"/><path class="cls-3" d="M512.24,399c-9.44,2-19.06,2.74-28.65,3.72l-8.06-.44c24.92-7.94,48.88-14.32,74-16.2,3.14,3.46,3.79,7.82,4.92,12-3-.69-6-.22-9.08-.85C534.22,394.93,523.17,396.61,512.24,399Z" transform="translate(0 0)"/><path class="cls-15" d="M554.43,398.07c-1.13-4.18-1.78-8.54-4.92-12a74.61,74.61,0,0,1,19.07-2.2,2.54,2.54,0,0,1,.62,0c3.35.79,20.33,18.61,20.77,21.88a12.94,12.94,0,0,1-1.66.4c-2.81-1.44-6.36-.51-9-2.44-7.55-4.43-15.89-5.21-24.52-4.73A2.81,2.81,0,0,1,554.43,398.07Z" transform="translate(0 0)"/><path class="cls-16" d="M599.31,453.8c-.08,7.73-3,9.7-11.11,7.66a27.66,27.66,0,0,1-8.17-4,35.48,35.48,0,0,0-22-6,4,4,0,0,1-3.42-1c.92-.3,2.21,0,2.52-1.31l-.12.06c7.56-2.92,14.86-6,23.63-4.95,7.14.88,13,3,17.49,8.25l1.23,1.25Z" transform="translate(0 0)"/><path class="cls-17" d="M553.32,645.08a12.92,12.92,0,0,1-1.91,2.18c-1.53,1.15-2.51,3.91-4.57,3.21-2.23-.75-.67-3.37-1-5.14a342.2,342.2,0,0,1-5-35.3c-.44-5.67,3.16-9.72,6.21-14,.29.27.79.51.83.8C549.83,612.9,553.39,628.81,553.32,645.08Z" transform="translate(0 0)"/><path class="cls-7" d="M518.6,387.5c-9.42-3.05-19.35-5.31-25.25-13.9-2-2.87-2.76-6-.85-9.25,3.17-5.4,6.66-5.52,10.72-1,7,7.8,14.39,15.33,21.61,23C523.09,388.28,520.64,386.94,518.6,387.5Z" transform="translate(0 0)"/><path class="cls-14" d="M451.1,441.07l-4.72,11.38c-1.93,1.13-3.27,2.53-2.58,4.88l.05-.09c-10.5.27-18.44-3.84-20.82-11.11-.95-2.91-2.35-6.34,3.27-7,2.31-.27,4.49-1.56,7.82-2.78-2.68,3.87.9,6.19.95,9.22-2.15.5-4.61-.66-7.81,1.69,3.77.53,6.29,2.07,8.6-.92a6.43,6.43,0,0,0,3.08-3l-.08.06c2.16-1.52,2.1-3.85,2.77-6s.67-5.3,4.65-4.7c-2,6.71-4,13.42-6.09,20.55,3.42-1.09,3.72-3.68,5.09-5.51,2.17-2.91,2.3-6.94,5.76-9.11Z" transform="translate(0 0)"/><path class="cls-18" d="M498.73,570.46c.76-.22,1.82-.22,2.24-.7,6.89-7.84,16.37-12.53,25-18.21,6.29,5.21,6.54,5.55-.24,10.09-6,4-10.19,9.77-16.56,13.26-2.89,1.59-5.48,3.39-7.52-1C501.07,572.62,499.74,571.61,498.73,570.46Z" transform="translate(0 0)"/><path class="cls-12" d="M565.83,650.66c4.77-4.62,11.94-5.44,17-9.51.86-.68,1.86-1.06,2.56.07,1.26,2,2.36,4.07.5,6.38-4.8,5.94-9.26,12.16-15.83,16.61a5.57,5.57,0,0,0-.82-.71,7.15,7.15,0,0,0-4.84-2.24l.08.06-3.83-2.58C561.58,655.58,564.3,653.45,565.83,650.66Z" transform="translate(0 0)"/><path class="cls-19" d="M458.82,683.64c10.5,6.31,19.05,13.57,31.44,18.35-9.76,0-17.8.19-25.81-.08-3.89-.13-6.28-2-5.73-6.33C459.18,692,458.82,688.26,458.82,683.64Z" transform="translate(0 0)"/><path class="cls-8" d="M538.83,544a88.76,88.76,0,0,0,24.09.13c-1.83,8.41-8.78,13.12-15.09,19.1C546,556.09,541.48,550.5,538.83,544Z" transform="translate(0 0)"/><path class="cls-12" d="M565.88,431.56l-19.87.2c-.44-3.78.56-7.77-3.27-12.06,8,1.35,14.47,3,21.2,3.1,1.41,0,3.59,1,2.25,3.62C565.47,427.86,565.94,429.83,565.88,431.56Z" transform="translate(0 0)"/><path class="cls-4" d="M545.85,585.57l-5,12.09c-6.75-14.57-6.65-23,.13-32C543.28,572.18,545.69,578.63,545.85,585.57Z" transform="translate(0 0)"/><path class="cls-14" d="M472.46,648.5c1.42-5.38,7.55-7.24,10.05-11.81,2.79,5.49,2.31,11.36,2.43,17.19.07,3.87-4,3-5.92,4.66-1.24,1.05-2-1.79-2.73-3C474.85,653.31,473.72,650.87,472.46,648.5Z" transform="translate(0 0)"/><path class="cls-7" d="M506.16,695.22c-4-1.24-7.13-7.48-6.13-12,.82-3.66,3.05-4.87,7-4.51,2.78.26,4.17,1,4,3.75-.1,1.91.07,3.84.12,5.76C511.12,691.57,511.45,695.15,506.16,695.22Z" transform="translate(0 0)"/><path class="cls-18" d="M553.32,645.08c.07-16.27-3.49-32.18-5.43-48.26,0-.29-.54-.53-.83-.8.62-2.31,1.25-4.62,2-7.25,3.42,2.36,2.36,6.08,2.69,8.52,1.92,14.5,2.87,29.12,4,43.71C555.86,642.63,556.83,645.15,553.32,645.08Z" transform="translate(0 0)"/><path class="cls-7" d="M433.9,418.82c-1.24,7.67-8.78,9.87-14,14.11a40.73,40.73,0,0,1-3.42,2.29c-2.77,1.32-5.06,3.89-9.49,2.89,5.26-6.28,12-10.19,18.31-14.51C428,421.79,429.61,418.09,433.9,418.82Z" transform="translate(0 0)"/><path class="cls-10" d="M646.37,434.67c-12.65.54-25.3.82-37.93-1.4a40.37,40.37,0,0,0-17.15.36c-1.55.41-3.44.95-4.16-1.11-.42-1.2-.85-2.94-.24-3.77.87-1.18,2.56-.19,4,.08C609.14,432.38,627.71,433.55,646.37,434.67Z" transform="translate(0 0)"/><path class="cls-14" d="M565.83,650.66c-1.53,2.79-4.25,4.92-5.13,8.08L559,658.3c-.68-.85-1.18-2.06-2.73-1.21.63.65,1.27,1.3,1.9,2a10.12,10.12,0,0,0,.27,1.05c-2.12,1.1-4.89,1.52-5.19,4.46-7-.38-3.89-6.06-5.45-9.29a1.93,1.93,0,0,1,1.16-.86c5.8.35,10.27-3.12,15.44-4.57C564.75,649.74,565.35,650.37,565.83,650.66Z" transform="translate(0 0)"/><path class="cls-20" d="M487.27,734.86c3.51,0,7-.09,10.54-.09,2.39,0,4.64,0,4.55-3.18-.07-2.55.4-4.89-3.7-5.35-2.12-.24-5.12-.39-6.21-3.09,3.34-.8,6.31,2,9.69.88l1.47,1.37c7.23,2.21,13.64,6,20.27,9.35a1.08,1.08,0,0,0,.2,1l-36.77,0A6.12,6.12,0,0,0,487.27,734.86Zm28.9-.13.35-1.37c-2.85-1.4-5.67-2.89-8.58-4.17-1.18-.51-2.68-2-3.81-.62-.73.89-.49,2.56-.51,3.88,0,1.73,1.21,2.28,2.85,2.28Z" transform="translate(0 0)"/><path class="cls-17" d="M534.6,551.81c-6.48-2.75-10.92-8.07-16.71-11.68a7.59,7.59,0,0,1-2.34-2c5.75.46,12.42-2.87,16.67,4.06C531.68,545.65,534.38,548.46,534.6,551.81Z" transform="translate(0 0)"/><path class="cls-14" d="M459.89,653.22c4-.38,6.87-3.75,11.05-3.64,1.07,2.42,1.43,5.09,3.38,7.22,1,1.11,2.09,2.5-.38,4-1.94,1.13-3.05,2.15-5.09.16C466.05,658.18,462.89,655.77,459.89,653.22Z" transform="translate(0 0)"/><path class="cls-3" d="M451,438.62c-3.46,2.17-3.59,6.2-5.76,9.11-1.37,1.83-1.67,4.42-5.09,5.51,2.11-7.13,4.1-13.84,6.09-20.55,3.08-1.7,6-3.07,4.85,2.47-.15.11-.42.25-.41.33a4.45,4.45,0,0,0,.32.86Z" transform="translate(0 0)"/><path class="cls-7" d="M472.51,354.73c-7.86,0-15.73.39-23.49-1.24,5.27-2.88,11.14-.47,16.79-1.69,6.63-1.43,13.77-.62,22.29-2.44C482.56,354,476.81,352.28,472.51,354.73Z" transform="translate(0 0)"/><path class="cls-14" d="M450.08,659c2-3.16,5.57-3,8.83-3.54a75.37,75.37,0,0,1,5.76,5c.87.91,3.45,1.53,1.63,3.49-1.23,1.31-3.08,1.1-4.52.42-3.78-1.77-7.54-3.54-11.72-4.34l.07.08C450.11,659.76,450.09,659.38,450.08,659Z" transform="translate(0 0)"/><path class="cls-12" d="M553.24,664.56c.3-2.94,3.07-3.36,5.19-4.46,2.16-.17,3.79,2,6.1,1.22l-.08-.06c.13,3.56,3,1.93,4.84,2.24a5.57,5.57,0,0,1,.82.71C565.47,669.65,560.48,669.75,553.24,664.56Z" transform="translate(0 0)"/><path class="cls-14" d="M436.26,657.88c3.8.36,7.83-1.26,11.38,1.18.6.82.95,2.15,2.49,1.09l-.07-.08c.47,5.24,6.41,4,9.47,7.16C450.07,667,442.27,664.45,436.26,657.88Z" transform="translate(0 0)"/><path class="cls-17" d="M540.66,557.51c-1.74,5.15-3.45,10.31-6.66,14.82-4.89-8.48-4.89-8.48,4.27-16.08A2.25,2.25,0,0,0,540.66,557.51Z" transform="translate(0 0)"/><path class="cls-20" d="M497.14,706.64c-11.05,0-21.8,3.71-32.95,2.38-1.94-.23-4.85,1.28-5.33-2.19a301.25,301.25,0,0,0,32.63-1.11C493.27,705.54,495.6,704.6,497.14,706.64Z" transform="translate(0 0)"/><path class="cls-7" d="M545.85,585.57c-.16-6.94-2.57-13.39-4.82-19.89l1.35-5.13C549,574.51,549.76,579.87,545.85,585.57Z" transform="translate(0 0)"/><path class="cls-17" d="M444.77,627.08c-4.81,3-9.64,6-14.41,9-2.55,1.63-3-.34-3.95-1.77-1.8-2.64.67-1.81,1.88-2.32,5.09-2.12,9.91-4.82,15.49-5.77Z" transform="translate(0 0)"/><path class="cls-9" d="M536,706.89l-32.19,0a1,1,0,0,1-.4-1c9.76-2,19.67-1.34,29.54-1.4C534.67,704.4,536.33,704.56,536,706.89Z" transform="translate(0 0)"/><path class="cls-18" d="M540.66,557.51a2.25,2.25,0,0,1-2.39-1.26l-3.67-4.44c-.22-3.35-2.92-6.16-2.38-9.67C537.08,546.28,540.74,551,540.66,557.51Z" transform="translate(0 0)"/><path class="cls-1" d="M502,720.81c-6.34-.72-7-1.56-4.23-6.56,1-1.92,1.3-4.58,4.23-5.21A41.81,41.81,0,0,1,502,720.81Z" transform="translate(0 0)"/><path class="cls-9" d="M557.34,732.13c-2.19-3.86-7.66-3.33-10.21-6.7,6.53-.32,11,4,16.38,7Z" transform="translate(0 0)"/><path class="cls-9" d="M546.05,725.42l-20.32-3.7c.3-1.76,1.88-.84,2.79-1.25C534.79,720.77,540.8,721.92,546.05,725.42Z" transform="translate(0 0)"/><path class="cls-14" d="M438.94,443.33c-1-.69-2.31-.68-3.05-2.07-1.26-2.37.67-3.83,1.29-5.64a2.64,2.64,0,0,1,2.14-.12c1.4,1.48.86,3.1,0,4.71-.52,1-1.13,2-.47,3.18Z" transform="translate(0 0)"/><path class="cls-18" d="M487.27,734.86a6.12,6.12,0,0,1,0,.85c-7.56.06-15.12.13-22.68.17-.49,0-1.42-.32-1.42-.49,0-1.14,1.17-.44,1.7-.84Z" transform="translate(0 0)"/><path class="cls-17" d="M502,720.81A41.81,41.81,0,0,0,502,709c.77-1-1.23-3,1.41-3.22a1,1,0,0,0,.4,1q0,7.56.1,15.11c-.09,1.15-.17,2.3-.25,3.45L502.14,724C502.08,723,502,721.89,502,720.81Z" transform="translate(0 0)"/><path class="cls-14" d="M549.47,668.39c-3.37-.1-6.61-.56-10-3.28,4.55-.26,8.38-1.62,10.83,2.49A4.28,4.28,0,0,0,549.47,668.39Z" transform="translate(0 0)"/><path class="cls-17" d="M443.78,626.23c1.62-1.43,3.34-2.58,6.46-1.89l-5.47,2.74Z" transform="translate(0 0)"/><path class="cls-4" d="M538.37,337.22c-.87,2.13-2.76,2.5-4.87,2.47C534.59,338,536.42,337.49,538.37,337.22Z" transform="translate(0 0)"/><path class="cls-20" d="M491.5,723h-4.36c.74-1.49,2-.93,2.86-1.22Z" transform="translate(0 0)"/><path class="cls-11" d="M523.88,734.75c.67,0,1.52-.34,1.52.74a6.6,6.6,0,0,1-1.32.25A1.08,1.08,0,0,1,523.88,734.75Z" transform="translate(0 0)"/><path class="cls-7" d="M405.54,439.69l.55.66a6.5,6.5,0,0,1-1,.41c-.08,0-.25-.28-.39-.42C405,440.12,405.24,439.9,405.54,439.69Z" transform="translate(0 0)"/><path class="cls-8" d="M557.11,648.57c-.39.78-1.24,1.33-1.79.66s.63-1,1.13-1.4C556.68,648.07,556.9,648.31,557.11,648.57Z" transform="translate(0 0)"/><path class="cls-14" d="M550.27,667.6c.44.47,1.76.68,1,1.49-.58.63-1.45.12-1.82-.7A4.28,4.28,0,0,1,550.27,667.6Z" transform="translate(0 0)"/><path class="cls-20" d="M457.93,706.71c-1.1.17-2.1.12-2.7-1A2.3,2.3,0,0,1,457.93,706.71Z" transform="translate(0 0)"/><path class="cls-3" d="M599.32,453.81l-1.23-1.25Z" transform="translate(0 0)"/><path class="cls-14" d="M451,436.35a4.45,4.45,0,0,1-.32-.86c0-.08.26-.22.41-.33Z" transform="translate(0 0)"/><path class="cls-21" d="M555.69,510.94c-8.21-.21-16.49.75-24.54-2-2.34-.79-3.37-1-2.71-3.67,2.25-9,2.06-8.26,12.79-7.51a210,210,0,0,0,37.78-.29c4-.45,4.21.93,4.11,3.58-.21,5.33-5.53,9.61-12.53,9.83C565.63,511.07,560.66,510.94,555.69,510.94Z" transform="translate(0 0)"/><path class="cls-21" d="M529.35,530.75a12.65,12.65,0,0,1-3.08,0c-2.41-.6-6.16,1.86-7.08-1.91-.65-2.68,6.15-8.71,9.08-8.31a178.39,178.39,0,0,0,21.9,2.12c1,0,2.29-.09,2.48,1.13.22,1.4-1.11,1.74-2.21,2.31C542.26,530.3,540.34,530.75,529.35,530.75Z" transform="translate(0 0)"/><path d="M460,446.91c.5,5.33.16,10.68,1.15,16,.77,4.19.06,8.63,1.28,12.86-2.12-1.62-2.3-3.83-2.38-6.19a88.84,88.84,0,0,0-2.77-21.37C456.62,446,458.77,446.91,460,446.91Z" transform="translate(0 0)"/><path d="M462.5,431.71c.34,1.47,3.62,1.14,2.46,3.53-3.06.28-3.51,3.63-2.86,4.35,3.06,3.38-1.59,2.61-2.07,3.94C457.94,439.05,459.89,435.32,462.5,431.71Z" transform="translate(0 0)"/><path d="M497.67,481.17c2.34,5.23,4.06,9.09,5.79,12.94C499.57,491.06,496.83,487.58,497.67,481.17Z" transform="translate(0 0)"/><path d="M495.73,519.8c1.74-3.22,4.55-4.82,9-5.28a16.61,16.61,0,0,1-8.6,5.82A4.51,4.51,0,0,1,495.73,519.8Z" transform="translate(0 0)"/><path d="M517.39,484.25c3.54-.4,6.05,1.54,8.61,3.34C522.5,487.92,519.94,486.1,517.39,484.25Z" transform="translate(0 0)"/><path d="M463.77,478.34c1.65-.23,3.43.38,5-.65.46,1.52,0,2.57-1.78,2.82S463.76,480.44,463.77,478.34Z" transform="translate(0 0)"/><path d="M488.54,466.6c1.49-3.11,1.88-3.11,5.71,0Z" transform="translate(0 0)"/><path d="M483.8,468.84c1-1.94,2.45-2.95,4.83-2.29A5.64,5.64,0,0,1,483.8,468.84Z" transform="translate(0 0)"/><path d="M443.8,457.33c-.69-2.35.65-3.75,2.58-4.88A5.63,5.63,0,0,1,443.8,457.33Z" transform="translate(0 0)"/><path d="M469.34,477.12l4.35-2.39C473.66,477.8,471.44,477.36,469.34,477.12Z" transform="translate(0 0)"/><path d="M494.86,467.2,497.2,470C495.1,470,494.29,469.13,494.86,467.2Z" transform="translate(0 0)"/><path d="M496.17,520.34c-.39.68-1.19,1.31-1.67.62s.68-.86,1.23-1.15A5.37,5.37,0,0,0,496.17,520.34Z" transform="translate(0 0)"/><path d="M473.65,474.76c.38-1.21,1.38-1.12,2.39-1C475.56,474.76,474.88,475.34,473.65,474.76Z" transform="translate(0 0)"/><path class="cls-16" d="M497.23,435.2c10.62-2,17.17,5.45,23.73,12.46,2.5,2.67,1.61,6.21.12,9.35-1.33,2.81-3.67,3.63-6.91,3.89-13.68,1.1-24.12-3.25-31-14.75-3.11-5.21-1-10.07,5.42-10.89C491.06,434.94,493.58,435.2,497.23,435.2Z" transform="translate(0 0)"/><path d="M551.67,444.71c-2,3.9-5.4,4.67-9,5.51C544.21,445.77,544.21,445.77,551.67,444.71Z" transform="translate(0 0)"/><path d="M557.09,449.2c-.31,1.35-1.6,1-2.52,1.31l-.44-1.22C555.12,449.43,556.05,447.85,557.09,449.2Z" transform="translate(0 0)"/><path d="M598.14,481.79c.87,1.76-.35,2.92-1.34,4.14a1.5,1.5,0,0,1-.54-2,.7.7,0,0,0,.41-.95,1.52,1.52,0,0,0,.2-1Z" transform="translate(0 0)"/><path d="M465,435.22l2.47,0Q466.24,437.61,465,435.22Z" transform="translate(0 0)"/><path d="M439.61,555.23c.2-.78.41-1.55.61-2.33l2.39-1.23C442.81,553.75,442.69,555.59,439.61,555.23Z" transform="translate(0 0)"/><path d="M442.57,551.72a3.44,3.44,0,0,1,2.52-3.54C445.23,550,445.51,551.85,442.57,551.72Z" transform="translate(0 0)"/><path d="M445.05,548.22c.28-1.33.06-3.11,2.52-2.39C447.51,547.35,447.15,548.59,445.05,548.22Z" transform="translate(0 0)"/><path d="M554.43,398.07a2.81,2.81,0,0,0,.34.93H512.24c10.93-2.38,22-4.06,33.11-1.77C548.43,397.85,551.46,397.38,554.43,398.07Z" transform="translate(0 0)"/><path d="M450.13,660.15c-1.54,1.06-1.89-.27-2.49-1.09l2.44-.07C450.09,659.38,450.11,659.76,450.13,660.15Z" transform="translate(0 0)"/><path d="M573.93,485.51a8.2,8.2,0,0,1-1,1.76,10.18,10.18,0,0,1-10.68,2.1c-.67-.23-1.35-1.05-.55-1.81,2.54-2.44,5.83-2.41,9.13-2.26C571.73,485.34,572.69,485.43,573.93,485.51Z" transform="translate(0 0)"/><path d="M587,484.17c.23.31.43.49.39.55-2,3.61-5.39,4.4-9.33,3.85-.35-.05-.93-1.14-.82-1.24C579.88,484.59,583.33,484,587,484.17Z" transform="translate(0 0)"/><path d="M595,487.61l-.8,1-2.28.06C592.66,487.6,593.3,486.29,595,487.61Z" transform="translate(0 0)"/><path class="cls-3" d="M596.67,483a.7.7,0,0,1-.41.95C595.88,483.44,596.12,483.16,596.67,483Z" transform="translate(0 0)"/><path d="M435.86,446.34c-2.31,3-4.83,1.45-8.6.92,3.2-2.35,5.66-1.19,7.81-1.69A3.85,3.85,0,0,1,435.86,446.34Z" transform="translate(0 0)"/><path d="M569.29,663.5c-1.84-.31-4.71,1.32-4.84-2.24A7.15,7.15,0,0,1,569.29,663.5Z" transform="translate(0 0)"/><path d="M564.53,661.32c-2.31.8-3.94-1.39-6.1-1.22a10.12,10.12,0,0,1-.27-1.05,4.58,4.58,0,0,0,.83-.75l1.71.44Z" transform="translate(0 0)"/><path d="M558.16,659.05c-.63-.66-1.27-1.31-1.9-2,1.55-.85,2,.36,2.73,1.21A4.58,4.58,0,0,1,558.16,659.05Z" transform="translate(0 0)"/><path class="cls-9" d="M516.17,734.73h-9.7c-1.64,0-2.87-.55-2.85-2.28,0-1.32-.22-3,.51-3.88,1.13-1.36,2.63.11,3.81.62,2.91,1.28,5.73,2.77,8.58,4.17Z" transform="translate(0 0)"/><path d="M540.47,434.4a1.5,1.5,0,0,0,0-3,1.5,1.5,0,0,0,0,3Z" transform="translate(0 0)"/><path d="M537.36,434.1l0,0L537,434l.1.06-.3-.23.07.08-.23-.31.06.11-.15-.36a1,1,0,0,1,0,.17l0-.39a3.64,3.64,0,0,1,0,.66,2.65,2.65,0,0,0,.08,1,2,2,0,0,0,.51.85,1.45,1.45,0,0,0,.4.3,2.87,2.87,0,0,0,.4.18l.13,0a1.77,1.77,0,0,0,.95,0,1.57,1.57,0,0,0,.55-.23,2.69,2.69,0,0,0,.83-.85l.06-.13a3.85,3.85,0,0,0,.19-.47,2.21,2.21,0,0,0,.05-.25,3.39,3.39,0,0,1,.14-.57l-.15.35a1,1,0,0,1,.11-.2l-.24.31.08-.09a1.56,1.56,0,0,0,.44-1.06,1.06,1.06,0,0,0-.13-.58,1,1,0,0,0-.31-.48,1.5,1.5,0,0,0-1.06-.44,1.56,1.56,0,0,0-1.06.44,2.56,2.56,0,0,0-.65,1.21,5,5,0,0,1-.15.67l.15-.36a1.28,1.28,0,0,1-.15.25l.24-.3a1.21,1.21,0,0,1-.16.16l.3-.24a.67.67,0,0,1-.14.09l.36-.15-.15,0,.4-.06h-.11l.4.06-.12,0,.36.15-.11-.06.31.23a.27.27,0,0,1-.08-.07l.23.3-.06-.11.15.36a1.05,1.05,0,0,1,0-.19l.06.4a7.48,7.48,0,0,1,0-.95,2.45,2.45,0,0,0-.28-1.13,1.45,1.45,0,0,0-.33-.44,2.91,2.91,0,0,0-.33-.26l0,0a2.57,2.57,0,0,0-.45-.2,1.22,1.22,0,0,0-.6,0,1.16,1.16,0,0,0-.56.18,1.21,1.21,0,0,0-.42.39,1,1,0,0,0-.26.51,1.49,1.49,0,0,0,.15,1.15l.23.31a1.57,1.57,0,0,0,.66.38Z" transform="translate(0 0)"/><path d="M539.88,432.16a1.5,1.5,0,0,0,0-3,1.5,1.5,0,0,0,0,3Z" transform="translate(0 0)"/><path d="M538.31,432.25a2.55,2.55,0,0,1,.13.29l-.15-.36a9.54,9.54,0,0,1,.67,2.46l-.05-.4c0,.05,0,.11,0,.16l2.79-.76a2.56,2.56,0,0,0-.11-.24l.16.36a6.21,6.21,0,0,1-.43-1.57l0,.4a4.73,4.73,0,0,1,0-.53,1.63,1.63,0,0,0-.44-1.06,1.56,1.56,0,0,0-1.06-.44,1.54,1.54,0,0,0-1.06.44,1.47,1.47,0,0,0-.44,1.06,7.62,7.62,0,0,0,.22,1.59,8.71,8.71,0,0,0,.56,1.5l.24.31a1.11,1.11,0,0,0,.48.31,1.44,1.44,0,0,0,1,.07,1.9,1.9,0,0,0,.66-.38,1.52,1.52,0,0,0,.44-1.06,11.76,11.76,0,0,0-.35-1.88,11.37,11.37,0,0,0-.68-1.79A1.47,1.47,0,0,0,540,430a1.5,1.5,0,0,0-1.85,1l0,.4a1.57,1.57,0,0,0,.2.76Z" transform="translate(0 0)"/><path d="M538.38,431.22l-.11,1.31,2.8-.75a4.25,4.25,0,0,1-.29-.56l.15.36a4.43,4.43,0,0,1-.25-.95l.06.4a3.62,3.62,0,0,1,0-.93l-.06.4a2.48,2.48,0,0,1,.15-.61l-.15.36a1.65,1.65,0,0,1,.18-.32l-.24.3a2.28,2.28,0,0,1,.22-.22l-.31.24.17-.1-.36.15.17-.05-.4.05h.14l-.4-.06.14,0-.36-.15a.33.33,0,0,1,.1.06l-.31-.24a.71.71,0,0,1,.15.15l-.23-.3a1.94,1.94,0,0,1,.22.4l-.15-.36a3.45,3.45,0,0,1,.24.89l0-.4a4.12,4.12,0,0,1,0,.86l0-.4a3.47,3.47,0,0,1-.22.84l.15-.36,0,.06a1.09,1.09,0,0,0-.18.55,1.11,1.11,0,0,0,0,.6,1.5,1.5,0,0,0,1.85,1.05,1.46,1.46,0,0,0,.9-.69,4.86,4.86,0,0,0,.38-1.19,4.43,4.43,0,0,0,.07-1.26,4.64,4.64,0,0,0-.25-1.23,3.42,3.42,0,0,0-.74-1.28,2.09,2.09,0,0,0-2-.52,2.33,2.33,0,0,0-1.26.89,3.79,3.79,0,0,0-.68,2.4,5.23,5.23,0,0,0,.77,2.63,1.51,1.51,0,0,0,1.69.69,1.7,1.7,0,0,0,.66-.39,1.54,1.54,0,0,0,.44-1.06l.11-1.31a1.52,1.52,0,0,0-.44-1.06,1.56,1.56,0,0,0-1.06-.44,1.54,1.54,0,0,0-1.06.44,1.68,1.68,0,0,0-.44,1.06Z" transform="translate(0 0)"/><path d="M541.09,432.49q-.24-1.31-.42-2.64l.05.4a4.36,4.36,0,0,1-.07-1.08l-.06.4a1.48,1.48,0,0,1,.1-.36l-.15.36a1.06,1.06,0,0,1,.12-.2l-.24.31a1.14,1.14,0,0,1,.19-.19l-.31.23.27-.16-.36.15a1.91,1.91,0,0,1,.41-.11l-.4,0a2.44,2.44,0,0,1,.54,0l-.4,0a2.38,2.38,0,0,1,.58.16l-.36-.16a2.4,2.4,0,0,1,.38.23l-.3-.24a2.16,2.16,0,0,1,.36.38l-.23-.31a3.42,3.42,0,0,1,.35.62l-.15-.36a5.57,5.57,0,0,1,.32,1.34l0-.4a4.74,4.74,0,0,1,.07,1.13l.06-.4a1.17,1.17,0,0,1-.09.32l.15-.35a1.1,1.1,0,0,1-.09.14l.24-.3-.12.11.31-.23a1.18,1.18,0,0,1-.19.11l.36-.15-.2.05.4-.05H542l.4,0-.1,0,.36.16-.09-.05.31.23a.34.34,0,0,1-.09-.08l.24.3a.76.76,0,0,1-.12-.19l.15.35a4.91,4.91,0,0,1-.2-.94l.06.4a6.17,6.17,0,0,1-.06-1.05,1.5,1.5,0,0,0-3,0,6.24,6.24,0,0,0,0,1,8.33,8.33,0,0,0,.22,1.31,2.22,2.22,0,0,0,1,1.31,2.06,2.06,0,0,0,1.61.18,2.39,2.39,0,0,0,1.63-2.43,9.43,9.43,0,0,0-.25-1.91,3.9,3.9,0,0,0-2.59-3A3,3,0,0,0,538,428a4.65,4.65,0,0,0-.15,3c.11.77.24,1.54.38,2.31a1.51,1.51,0,0,0,.69.9,1.5,1.5,0,0,0,2.05-.54,1.67,1.67,0,0,0,.15-1.16Z" transform="translate(0 0)"/><path class="cls-22" d="M540.18,431.88a1.5,1.5,0,0,0,0-3,1.5,1.5,0,0,0,0,3Z" transform="translate(0 0)"/><path class="cls-22" d="M571.52,430.48a1.5,1.5,0,0,0,0-3,1.5,1.5,0,0,0,0,3Z" transform="translate(0 0)"/></g></svg>