<svg xmlns="http://www.w3.org/2000/svg" xmlns:xlink="http://www.w3.org/1999/xlink" viewBox="0 0 1366 768"><defs><style>.cls-1{fill:#2e2e2e;}.cls-2{fill:#664d3f;}.cls-3{fill:#b4815f;}.cls-4{fill:#630;}.cls-5{fill:#693534;}.cls-6{fill:#633;}.cls-7{fill:#97572c;}.cls-8{fill:#924e44;}.cls-9{fill:#606060;}.cls-10{fill:#442f20;}.cls-11{fill:#1c1c1c;}.cls-12{fill:#7b5438;}.cls-13{fill:#232323;}.cls-14{fill:#9c6a48;}.cls-15{fill:#b2b2b2;}.cls-16{fill:#c8a480;}.cls-17{fill:#cbcbcb;}.cls-18{fill:#fbfbfb;}.cls-19{fill:#454445;}.cls-20{fill:#aba798;}.cls-21{fill:#8d6c57;}.cls-22{fill:#fffdec;}</style></defs><g id="Capa_13" data-name="Capa 13"><image width="626" height="281" transform="translate(0 0) scale(2.18 2.73)" xlink:href="../t7.jpg"/></g><g id="Capa_14" data-name="Capa 14"><path class="cls-1" d="M708.36,756a8.77,8.77,0,0,0,.1-1.14l-2.54-.17A2.38,2.38,0,0,0,708.36,756Z" transform="translate(0 0)"/><path d="M1040.42,452.74c-6.19,3.19-13.16,4.17-19.8,6.07h-20c-5.62.25-10.94-1.24-17.87-3,2.8,2.81.56,5.58,2.87,7.58-1.83,3-4.25,5.62-4.83,9.15l-6,9.32c-6.89,9.53-15.89,17.09-25.5,24.42l11.72-1.21c3.83.13,7.46-1.78,11.35-1,1.24.25,3-.7,3.44,1.37.29,1.47-.86,1.76-1.91,2.44-4.43,2.85-8.73,5.89-13.07,8.86-3,1.32-4.52,2.16-.7,5,3.27,2.4,7.33,4.72,8.41,9.13-5-.91-7.2-5.48-11.28-7.65-1.79-1-2.91-2-4.68-.22-7.13,7.25-15.34,13.51-21.89,21.31-2.54,3-2.12,4.9.66,7.31,4.4,3.82,8.58,7.87,12.75,11.92,1.36,1.32,3.51,2.27,3.2,4.65-8.79-4.06-13.6-12.14-21.1-17.91-5.22,4.14-8.12,10.24-11.74,15.77-2.42,3.7-3.93,3.34-6.89.64-5-4.55-9-10.23-15.82-12.87-.73-2-1.84-2.81-3.1-.45a37.91,37.91,0,0,0-3.51,8,318.35,318.35,0,0,0-10.28,65.87c-.18,3.79-.8,7.63-1.21,11.45-.52,4.81,2.19,6.17,6.31,6.42,15.29.92,30.49-1.1,45.75-1.21,2.83,0,4.81-8.32,2.06-11.33-5-5.48-5.53-10.88-2-17,3.08-5.32,6.3-10.4,13.48-11.54,3.3-.53,2.52-3.59,2.17-5-.81-3.38,0-6.47.51-9.66,1.06-7.2,2.21-14.38,5.32-21.13,1.56,0,3.61.58,2.56,2-5.48,7.6-3.39,16.73-6.11,24.86-.79,2.34,2.24,2.76,4.1,3.46l47.85,18c.33-8.54-2.18-16.52-2.82-24.65-.77-9.83-4.42-19.07-6.15-28.72-1-5.31-4.78-10.17-7.31-15.23-1.13-2.24-3-4.26-2.31-7l3.73,4.08q2.58,5.84,5.17,11.66Q989.48,566,993,575.3q1.41,9.3,2.83,18.62c.73,6.18.88,12.42,2.49,18.5,0,1.3-.91,2.87,1.18,3.55,0,1.18,0,2.37,0,3.55-5.84-2.53-8.32,4.38-13.82,4.47l4.92,7.16c-2.86,9.82-9.2,17-18.77,21.72-.94.46-3.11.73-2,2.14,4.31,5.55-1.57,6.71-4.41,8.22-4.63,2.46-7.49,4.92-5.9,10.4,1.13,3.91-1.31,8.25,1.25,12.12,1.71.6,4-.67,5.24,1.41-1.14,6.26,1,12.33,1.24,18.51.57,4.32.89,8.69,1.81,13,.46,2.16.53,3.06-2.15,3.48-8.63,1.34-17.21,3-26,2.47H901.1c-6.09-.75-12-.43-18.23-2.89s-14.19-.58-21.4-.61c-3.6-.72-7.25.17-11-1-4.22-1.37-3.27-3-1.06-4.76a40.4,40.4,0,0,1,15.65-8.06c5.7-1.35,11.27-3.16,17.59-4.21-3.55-5.41-5.67-11.18-9.95-15.81,3.8-.4,8.55,1.28,11.18-1s-1.47-6.19-.53-9.53c.5.56,1.26,1.05,1.47,1.7,2.89,8.73,2.87,8.73,12.28,8.73h13.76c-.11-.49-.13-1-.24-1-11.45-2-12.21-2.54-11.84-13.41.23-6.64-1.41-13.09-1.36-19.67,0-2.13-.91-3.25-3.29-3.23-3.73,0-7.46.05-11.19,0-2.82-.07-3.9.36-3.25,3.62,1.55,7.72,4.22,15.33,3.72,23.34-1.78-2.48-1.81-5.4-2.35-8.2-.77-3.68-1.67-7.34-2.28-11-.51-3.1-2.41-4.43-5.13-2.82-3.93,2.34-8.16,2-12.37,2.3-2.26-.06-4.59-.48-6.76-.1-6,1-10-1.4-13-6l-1.17-1.11c-5.68-5.74-11.24-11.58-15.19-18.56.08-.38,0-.88.25-1.12,4.1-4.21,3.64-7.54-2.36-9.62,1.63-2.91,5.47-4.21,4.94-7.88,3.09-5.38,8.91-7.94,13.64-11.62,2.73-1.86,5-4,5.91-7.22a63.69,63.69,0,0,0,10-18.49,27.59,27.59,0,0,0,3.93-9.33c1.49-3,4.05-5.65,3.53-9.32,1.51-3.75.2-6.48-3.43-8.37-1.48-4.16-5.11-6.89-7.76-10.27l-7.08-14c5.16,1.26,9.53,4.4,14.8,3.25,7.15.57,14.15.52,20.35-4-5.57-2.59-12-.7-17.29-3.88a2.1,2.1,0,0,0-3.24,2.08c-1.38-.28-1-1.45-1.33-2.27,0-3.32-4.16-2.91-5-5.68-1.72,1.53-.67,3.14-1.26,4.4h-2.11c2.6-6.71-3.64-9.9-6.62-14.36-.71-1.06-2.24-.57-3.44-.42l-10-2.52a13.58,13.58,0,0,1-6.57-7.77c-1.44.87-1.58,2.93-3.44,3-1.31-1.55,5.22-5.55-2-5.46-.93,0,.35-2.2.91-2.8A24.89,24.89,0,0,0,826.66,475a96.6,96.6,0,0,0,34.81,3.23c10.17,1,19.31-2.5,28.51-5.74-1.64,4.3-6.44,4.37-9.81,5.49-5.9,2-12.19,3.34-18.72,2.8-10-.82-20.23,1.61-30-2.17-2-.76-3.29.11-3.67,2.52-1.69,10.58,3.59,18,15.11,18,15.75.11,31.74,2.32,47.2-3.06,7-2.42,12.73-6.1,17.12-11.58,1.26-1.57,2.34-3,4.49-3.24-13.38,22.88-36.62,23.69-60.75,23.22,9.72,7.72,19.82,14.4,32.93,14.65,24.47.46,46-7.26,66-20.35,13.36-8.77,23-20,30.62-33.29,1-1.74.6-2.81,0-4.17-2.78-6.39-5.59-12.77-8.38-19.15,10.5.27,18.44-3.84,20.82-11.11,1-2.91,2.35-6.34-3.27-7-2.31-.27-4.49-1.56-7.82-2.78,2.68,3.87-.9,6.19-.95,9.22a3.85,3.85,0,0,0-.79.77,6.43,6.43,0,0,1-3.08-3c1-.69,2.31-.68,3-2.07,1.26-2.37-.67-3.83-1.29-5.64a2.65,2.65,0,0,0-2.14-.12c-1.4,1.48-.86,3.1,0,4.71.51,1,1.13,2,.47,3.18-2.16-1.52-2.1-3.85-2.78-6s-.66-5.3-4.64-4.7c-3.08-1.7-6-3.07-4.85,2.47l.08,1.19c0,.76,0,1.51,0,2.27l-.06,2.45a2.26,2.26,0,0,1-1.6-2.19c-1.28-9.22-1.37-9.3-11.1-11.56C945,408,936.54,408,928.66,406.51c-13-2.37-26.22-4.23-39.62-3.88-3.3.08-6.46.26-9.5,1.73,1.39,3.6,5,6.1,5.65,10.07-.91,3.9.56,7.61,1,11.4.39,3.09,0,6.16-3.79,7-3.52.77-6.76.32-8.76-3.5a36.31,36.31,0,0,1-3.77-12.56c.44-3.78-.56-7.77,3.27-12.06-8,1.35-14.47,3-21.2,3.1-1.41,0-3.59,1-2.25,3.62.72,1.44.25,3.41.31,5.14-1.43,1.42-2.52,3.05-2.3,5,.43,3.83-2.34,3.15-4.76,3.24-3.44.13-3.14-2.35-2.61-3.94,1.12-3.44-.37-6.39-.8-9.61-5.19,1.65-9.89,9-9.3,13.67.41,3.27,3,2.37,4.61,2.11,8.58-1.37,15.88,2.14,23.36,5,.72.28,1.89,1,.71,2.16-7.56-2.92-14.86-6-23.63-4.95-7.14.88-13,3-17.49,8.25l-1.23,1.25h0c-3.72,7.33-3.28,14.75-.59,22.23.69,1.93,1.23,3.91,1.84,5.86-3.42.9-2.05-2.89-3.91-3.52-2.37-6.08-2.46-12.44-2.49-18.8,1-6.3,4.71-10.7,10.53-13.76,1-.55,1.68-1.74,2.69-2.39a5.66,5.66,0,0,0,2.37-5.43c-.11-1-3.12-2.21-5.37-1.48-6.73-.29-13.47-.66-20.06,1.17-6.28-.11-12.48.93-18.75,1.19-9.16.38-17.68-.55-25.45-5.43.51-2.17,3.17-2.46,4.6-3.95,4-1.62,8.43-2.38,11.06-6.09a24.89,24.89,0,0,0,8.64-3.56l20.06-9.32c4.59-2.22,9.58-3.72,13.68-6.81,2.44,0,4.17-1.62,6.22-2.52,8-2.81,10.38-9.81,13.67-16.13a124,124,0,0,0,7.16-18.74c0-.76.07-1.52.1-2.28,2.95-5.11,3.45-10.86,4.91-16.36,3.3-8.33,11.58-12.63,17.41-18.92,1.32-1.42,2.78-.51,4.42,0,10.92,3.17,21.07,8.13,31.74,11.85a116.15,116.15,0,0,0,20.06,4.66c6.37,2.3,13.29.56,19.73,2.33,6.68.55,13.46-.45,20.07,1.13l8.65.1c.14,6.29,3.31,11.81,5.12,17.67q3,9.3,6,18.59c.28,6.38,2.74,12.36,3.93,18.57-.17,7.58,3.06,12.55,10.27,17,9.28,5.7,17,13.59,25.44,20.53l19.94,17.48,1.2,1.13C1043.77,447.73,1043.5,450.4,1040.42,452.74ZM876.48,650.11c-4.55-.26-8.38-1.62-10.83,2.49-.44.47-1.76.68-1,1.49.58.63,1.45.12,1.82-.7C869.82,653.29,873.06,652.83,876.48,650.11Zm36.08,40.71c-9.76-2-19.67-1.34-29.55-1.4-1.76,0-3.42.14-3,2.47,1.45,5,5.4,8.84,7.43,13.58-6.27.3-12.28,1.45-17.53,4.95a3.91,3.91,0,0,0-1.08,0c-6.53-.32-11,4-16.38,7l6.17-.27c8.83.11,17.65.24,26.48.29a6.75,6.75,0,0,0,3.51-.7c7.16-4.73,15.58-6.7,23.49-9.77.09,1.15.17,2.3.25,3.45-7.23,2.21-13.64,6-20.27,9.35-.67,0-1.52-.34-1.52.74a6.6,6.6,0,0,0,1.32.25l36.77,0c7.56.06,15.12.13,22.68.17.49,0,1.42-.32,1.42-.49,0-1.14-1.17-.44-1.7-.84.82-1.2,2.13-.91,3.31-1,9.69-.38,10.15-.43,8.86-9.69A145,145,0,0,1,962.1,693c0-1-.1-1.93-1.41-2.19a2.3,2.3,0,0,0-2.7,1,.91.91,0,0,0-.93.12,301.25,301.25,0,0,1-32.63-1.11c-1.78-.18-4.11-1.12-5.65.92,1.75,5.31,5.88,9.64,7.14,15.17l-1.5,1.22a1,1,0,0,0-.95.12c-3.34-.8-6.31,2-9.69.88.06-1.07.12-2.14.19-3.22,6.34-.72,7-1.56,4.23-6.56-1.05-1.92-1.3-4.58-4.23-5.21C913.2,693.08,915.2,691.07,912.56,690.82Zm53.12-81.48,5.47,2.74c4.81,3,9.64,6,14.41,9,2.55,1.63,3-.34,3.94-1.77,1.81-2.64-.66-1.81-1.88-2.32-5.08-2.12-9.9-4.82-15.48-5.77C970.52,609.8,968.8,608.65,965.68,609.34Zm-84.36-72.53c6.48-2.75,10.91-8.07,16.71-11.68a7.59,7.59,0,0,0,2.34-2c-5.75.46-12.42-2.87-16.67,4.06-4.86,4.14-8.52,8.85-8.44,15.37,1.74,5.15,3.44,10.31,6.66,14.82,4.89-8.48,4.89-8.48-4.27-16.08Zm75.07,115.42c9.46-.26,17.26-2.78,23.27-9.35,8.73-9,8.77-12.25-1.52-21.85s-23.52-12.88-37.09-15.37c-4.32-.8-13.38,8-13.73,13-.18,2.7,0,5.41,0,8.91,2.7-3.9,2.68-8.23,6.12-11.34v5.42c-2.79,5.49-2.31,11.36-2.43,17.19-.07,3.87,4,3,5.92,4.66,1.24,1.05,2-1.79,2.73-3,1.44-2.27,2.57-4.71,3.83-7.08l1.52,1.08c-1.07,2.42-1.43,5.09-3.38,7.22-1,1.11-2.09,2.5.38,4,1.94,1.13,3,2.15,5.09.16,2.8-2.73,6-5.14,9-7.69,1.34.35,1,1.34,1,2.23a75.37,75.37,0,0,0-5.76,5c-.87.91-3.45,1.53-1.63,3.49,1.23,1.31,3.08,1.1,4.52.42,3.78-1.77,7.54-3.54,11.72-4.34C965.39,650.31,959.45,649.06,956.39,652.23Zm-88.26-12a1.93,1.93,0,0,0-1.16-.86c-5.8.35-10.28-3.12-15.44-4.57-.36-.1-1,.53-1.44.82-4.77-4.62-11.94-5.44-17.05-9.51-.86-.68-1.86-1.06-2.56.07-1.26,2-2.36,4.07-.5,6.38,4.8,5.94,9.26,12.16,15.83,16.62,4.64,5.43,9.63,5.53,16.87.34C869.69,649.18,866.57,643.5,868.13,640.27ZM875,582.66c6.75-14.57,6.65-23-.14-32-.42-1.63-.85-3.26-1.34-5.13-6.65,14-7.38,19.32-3.47,25Zm-8.11-8.89c-3.42,2.36-2.36,6.08-2.69,8.52-1.92,14.5-2.87,29.12-4,43.71-.13,1.63-1.1,4.15,2.41,4.08a12.92,12.92,0,0,0,1.91,2.18c1.53,1.15,2.51,3.91,4.57,3.21,2.23-.75.67-3.37,1-5.14a342.2,342.2,0,0,0,5-35.3c.44-5.67-3.16-9.72-6.21-14C868.23,578.71,867.61,576.4,866.91,573.77Zm-19.57-204.9a2.54,2.54,0,0,0-.62,0c-3.35.79-20.33,18.61-20.77,21.88a12.94,12.94,0,0,0,1.66.4c-15.09,6.93-30,14.18-44.59,22-.4.07-1,0-1.17.24-.84,1.45.62.89,1.09.92,5.16.31,10.2-.95,15.31-1.36,15.71-1.24,31-4.9,46.53-7.51,18.53-3.13,37.1-7.53,56.09-6.09,21.63,1.63,43,4.61,63.94,10.75,11.52,3.38,22.65,8,34.6,10.11,2.77,1.32,5.06,3.89,9.49,2.89-5.26-6.28-12-10.19-18.31-14.51-2.63-1.81-4.28-5.51-8.57-4.78a194.23,194.23,0,0,0-49.69-16.11l8.06-.44c-24.92-7.94-48.88-14.32-74-16.2A74.61,74.61,0,0,0,847.34,368.87ZM860.6,634.23c.64-.81-.63-1-1.14-1.39-3.62-6-2.32-12.67-1.41-18.71,1.21-8,.38-16.11,1.82-24.14.72-4,2.33-8.24,1.2-13.21-3,5.42-5.3,10.56-8.44,15.23-5.91,8.79-12.38,17.23-20.74,24.2-3.06,2.54-3.74,4.39.75,6.14,8.86,3.46,16.68,9.06,26.17,11.22C859.2,634.35,860.05,634.9,860.6,634.23Zm74.19,42.34c10.66-6.81,21.29-13.64,32-21.08-9.36,4-16.36-1.36-23.11-5.26-7.33-4.25-14.52-1.47-21.61-1.2-4.86.18-9.82.93-14.73.75-3.88-.14-5.27,1.22-4.86,4.71.74,6.25.59,12.59,2.3,18.73,0,3.35-.3,6.93,5,7A29.27,29.27,0,0,0,934.79,676.57Zm30.5-168.36c-28.62,1.86-53.22,12.25-75.37,28.34-6.29,5.21-6.54,5.55.24,10.09,6,4,10.19,9.77,16.56,13.26,2.89,1.59,5.48,3.39,7.52-1,.61-1.31,1.94-2.32,3-3.47A183.93,183.93,0,0,1,965.29,508.21Zm-87.74-186c-.14-.14-.26-.37-.43-.41-5.5-1.27-10.72-8.11-16.66-.5-3.64,4.68-9.44,7.39-10.58,14.34-1.81,11.05-5.46,21.82-9.62,32.61,9.34-1.91,18.35.12,27.32-.5l23.51,3.56c1.74,2,4.19.62,6.23,1.18,9.47,3.78,19.62,5.38,29.46,8,19.17,5,37.41,12.36,56.71,19.69-2.91-10.45-5.75-20.39-8.43-30.36-2.8-10.42-5.44-20.87-8.16-31.31-5.27-2.88-11.14-.47-16.79-1.69-6.63-1.43-13.77-.62-22.29-2.44,5.54,4.65,11.29,2.92,15.59,5.37-13.38,1.45-25.16-4-37.35-7.62-7.92-2.36-15.77-4.91-23.65-7.38v0C881.33,323,879.5,322.49,877.55,322.22Zm123.71,106.39c-1.61-.52-3.89-2.81-4.34,1.11-.92,8-6.6,12.41-13.82,15.59-1.32.59-3.68.24-3.37,2.62a3.88,3.88,0,0,0,3.1,3.33c18.12,3.08,36.25,5.53,53.93-2a14.06,14.06,0,0,0,2.34-1.78C1025.61,442.06,1014.78,433,1001.26,428.61ZM925.66,687c9.76,0,17.8.19,25.81-.08,3.89-.13,6.28-2,5.73-6.33-.46-3.61-.1-7.32-.1-11.94C946.6,675,938.05,682.21,925.66,687ZM853,529.08c1.83,8.41,8.78,13.12,15.09,19.1,1.88-7.09,6.35-12.68,9-19.23A88.76,88.76,0,0,1,853,529.08ZM807.48,418.27a40.37,40.37,0,0,1,17.15.36c1.55.41,3.44.95,4.16-1.11.42-1.2.85-2.94.24-3.77-.87-1.18-2.56-.19-4,.08-18.29,3.55-36.86,4.72-55.52,5.84C782.2,420.21,794.85,420.49,807.48,418.27Zm202.35,7.08a6.5,6.5,0,0,0,1,.41c.08,0,.25-.28.39-.42l-.86-.66Z" transform="translate(0 0)"/><path class="cls-2" d="M969.54,437.45a5.63,5.63,0,0,0,2.58,4.88l0-.09c2.79,6.38,5.6,12.76,8.38,19.15.59,1.36,1,2.43,0,4.17-7.58,13.25-17.26,24.52-30.62,33.29-19.92,13.09-41.49,20.81-66,20.35-13.11-.25-23.21-6.93-32.93-14.65,24.13.47,47.37-.34,60.75-23.22-2.15.22-3.23,1.67-4.49,3.24-4.39,5.48-10.14,9.16-17.12,11.58-15.46,5.38-31.45,3.17-47.2,3.06-11.52-.08-16.8-7.46-15.11-18,.38-2.41,1.71-3.28,3.67-2.52,9.79,3.78,20,1.35,30,2.17,6.53.54,12.82-.84,18.72-2.8,3.37-1.12,8.17-1.19,9.81-5.49l-.07.06c3.51.33,6.07-1.49,8.62-3.34,7.3-4,14.36-8.37,20.19-14.24,2.1,0,2.91-.88,2.34-2.81,0-.37.21-.56.61-.57l5.71,0-.09-.05a5.64,5.64,0,0,0,4.83,2.29,27,27,0,0,0,7.76,4.92c.48,1,1.16,1.58,2.39,1l0,0c0,3.07,2.25,2.63,4.35,2.39.4,0,.6.2.61.57-.46,1.52,0,2.57,1.78,2.82s3.19-.07,3.18-2.17l1.38-2.53c2.12-1.61,2.3-3.82,2.38-6.18a88.84,88.84,0,0,1,2.77-21.37c.62-2.25-1.53-1.35-2.72-1.35,0-1.13-.05-2.25-.07-3.38,2.09-4.48.14-8.21-2.47-11.82a7,7,0,0,1-1.3-4.39c9.73,2.26,9.82,2.34,11.1,11.56a2.26,2.26,0,0,0,1.6,2.19ZM921.42,506c.55-.81-.68-.86-1.24-1.15-1.73-3.23-4.54-4.83-9-5.29a16.61,16.61,0,0,0,8.6,5.82C920.14,506,920.94,506.65,921.42,506Zm-36.65-12c2.34-.79,3.37-1,2.71-3.67-2.25-9-2.06-8.26-12.79-7.51a210,210,0,0,1-37.78-.29c-4-.45-4.21.93-4.11,3.58.21,5.33,5.53,9.61,12.53,9.83,5,.17,9.93,0,14.9,0C868.44,495.73,876.72,496.69,884.77,494Zm4.88,21.75c2.41-.6,6.16,1.86,7.08-1.91.65-2.68-6.15-8.71-9.08-8.31a178.39,178.39,0,0,1-21.9,2.12c-1,0-2.29-.09-2.48,1.13-.22,1.4,1.11,1.74,2.21,2.31,8.18,4.25,10.1,4.7,21.09,4.7A12.65,12.65,0,0,0,889.65,515.71Zm22.81-36.6c3.89-3.05,6.63-6.53,5.79-12.94C915.91,471.4,914.19,475.26,912.46,479.11Z" transform="translate(0 0)"/><path class="cls-3" d="M927.29,451.55l.09.05c-1.49-3.11-1.88-3.11-5.71,0-.4,0-.61.2-.61.57L918.72,455c-5.83,5.87-12.89,10.2-20.19,14.24-3.54-.4-6,1.54-8.62,3.34l.07-.06c-9.2,3.24-18.34,6.76-28.51,5.74,4.51-3.06,9.07-6.06,12.73-10.07,1.32-1.45,3.3-2.89,2.19-4.93-1-1.81-3.41-1.34-5.13-1.07-7.92,1.25-15.88,1.93-23.86,2.71s-15.6,1.59-23.1-1.44c-4.11-1.66-5.73-.51-5.25,3.56l-1.27-.24.08.1c-.61-1.95-1.15-3.93-1.84-5.86-2.69-7.48-3.13-14.9.59-22.23.08,7.73,3,9.7,11.11,7.66a27.66,27.66,0,0,0,8.17-4,35.48,35.48,0,0,1,22-6,4,4,0,0,0,3.42-1l.44-1.22c-1,.14-1.92-1.44-3-.09l.12.06c1.18-1.12,0-1.88-.71-2.16-7.48-2.89-14.78-6.4-23.36-5-1.6.26-4.2,1.16-4.61-2.11-.59-4.64,4.11-12,9.3-13.67.43,3.22,1.92,6.17.8,9.61-.53,1.59-.83,4.07,2.61,3.94,2.42-.09,5.19.59,4.76-3.24-.22-2,.87-3.62,2.3-5l19.87.2a36.31,36.31,0,0,0,3.77,12.56c2,3.82,5.24,4.27,8.76,3.5,3.75-.83,4.18-3.9,3.79-7-.48-3.79-2-7.5-1-11.4,15.53-3.34,30.88.61,46.28,1.3,5.74.25,11.36,2.89,17,4.45.8,1.62,1.62,1.63,2.48,0v0c3.06.28,3.51,3.63,2.86,4.35-3.06,3.38,1.59,2.61,2.07,3.94,0,1.13.05,2.25.07,3.38-.5,5.33-.16,10.68-1.15,16-.77,4.19-.06,8.63-1.28,12.86l-1.38,2.52c-1.65-.23-3.43.38-5-.65,0-.37-.21-.56-.61-.57l-4.35-2.39,0,0c-.38-1.21-1.38-1.12-2.39-1a27,27,0,0,1-7.76-4.92C931.14,451.9,929.67,450.89,927.29,451.55ZM895,432.66c-2.5,2.67-1.61,6.21-.12,9.35,1.33,2.81,3.67,3.63,6.91,3.89,13.68,1.1,24.12-3.25,31-14.75,3.11-5.21,1-10.07-5.42-10.89-2.44-.32-5-.06-8.61-.06C908.07,418.19,901.52,425.65,895,432.66Zm-21.66,2.56c-1.59-4.45-1.59-4.45-9-5.51C866.23,433.61,869.65,434.38,873.3,435.22Z" transform="translate(0 0)"/><path class="cls-4" d="M943.41,339.73c-13.38,1.45-25.16-4-37.35-7.62-7.92-2.36-15.77-4.91-23.65-7.38.38,2.17-.34,4.16-1.09,6.17q-6.9,18.42-13.74,36.86l23.51,3.56c7.22-7.64,14.58-15.17,21.61-23,4.06-4.52,7.55-4.4,10.72,1,1.91,3.24,1.13,6.38-.85,9.25-5.9,8.59-15.83,10.85-25.25,13.9,9.47,3.78,19.62,5.38,29.46,8,19.17,5,37.41,12.36,56.71,19.69-2.91-10.45-5.75-20.39-8.43-30.36-2.8-10.42-5.44-20.87-8.16-31.31C959.14,340.12,951.27,339.77,943.41,339.73Z" transform="translate(0 0)"/><path class="cls-5" d="M891.67,553.82c-.73-2-1.84-2.81-3.1-.45a37.91,37.91,0,0,0-3.51,8,318.35,318.35,0,0,0-10.28,65.87c-.18,3.79-.8,7.63-1.21,11.45-.52,4.81,2.19,6.17,6.31,6.42,15.29.92,30.49-1.1,45.75-1.21,2.83,0,4.81-8.32,2.06-11.33-5-5.48-5.53-10.88-2-17,3.08-5.32,6.3-10.4,13.48-11.54,3.3-.53,2.52-3.59,2.17-5-.81-3.38,0-6.47.51-9.66-5.77-3.15-8.2-8.89-11.8-13.67-5.68-7.55-5.7-7.78-11,0-2.55,3.78-4.52,5-8.34,1.32-2.71-2.57-6.59-4.1-9.14-6.77C897.13,565.47,888.9,562.51,891.67,553.82Z" transform="translate(0 0)"/><path class="cls-6" d="M947.2,568.16c1.56,0,3.61.58,2.56,2-5.48,7.6-3.39,16.73-6.11,24.86-.79,2.34,2.24,2.76,4.1,3.46l47.85,18c.33-8.54-2.18-16.52-2.82-24.65-.77-9.83-4.42-19.07-6.15-28.72-1-5.31-4.78-10.17-7.31-15.23-1.13-2.24-3-4.26-2.31-7,0-.44-.22-.66-.7-.65-3.08.36-3.2-1.48-3-3.56l0,.05c-2.94.13-2.66-1.75-2.53-3.54l0,0c-2.1.37-2.46-.87-2.52-2.39l.11,0c-5-.91-7.2-5.48-11.28-7.65-1.79-1-2.91-2-4.68-.22-7.13,7.25-15.34,13.51-21.89,21.31-2.54,3-2.12,4.9.66,7.31,4.4,3.82,8.58,7.87,12.75,11.92,1.36,1.32,3.51,2.27,3.2,4.65Z" transform="translate(0 0)"/><path class="cls-4" d="M783,413.16c-.4.07-1,0-1.17.24-.84,1.45.62.89,1.09.92,5.16.31,10.2-.95,15.31-1.36,15.71-1.24,31-4.9,46.53-7.51,18.53-3.13,37.1-7.53,56.09-6.09,21.63,1.63,43,4.61,63.94,10.75,11.52,3.38,22.65,8,34.6,10.11a40.73,40.73,0,0,1-3.42-2.29c-5.19-4.24-12.73-6.44-14-14.11a194.23,194.23,0,0,0-49.69-16.11c-9.59-1-19.21-1.76-28.65-3.72H861.15c-8.63-.48-17,.3-24.52,4.73,10.42-.46,20.44-5.25,31.34-1.35,8.17,2.93,17.16.78,27.48,1.66-18.61,3.93-35.65,7.13-52.45,11.2C823.12,405.06,803,408.71,783,413.16Z" transform="translate(0 0)"/><path class="cls-3" d="M956,638.22c1.34.35,1,1.34,1,2.23,3.26.49,6.79.38,8.83,3.54l2.44.07c3.55-2.44,7.58-.82,11.38-1.18,8.73-9,8.77-12.25-1.52-21.85s-23.52-12.88-37.09-15.37c-4.32-.8-13.38,8-13.73,13-.18,2.7,0,5.41,0,8.91,2.7-3.9,2.68-8.23,6.12-11.34v5.42c2.5,4.57,8.63,6.43,10.05,11.81l1.52,1.08C949.16,634.47,952,637.84,956,638.22Z" transform="translate(0 0)"/><path class="cls-7" d="M867.58,367.76q6.87-18.43,13.74-36.86c.75-2,1.47-4,1.09-6.17v0c-2.11,0-4-.34-4.87-2.47-.14-.14-.26-.37-.43-.41-5.5-1.27-10.72-8.11-16.66-.5-3.64,4.68-9.44,7.39-10.58,14.34-1.81,11.05-5.46,21.82-9.62,32.61C849.6,366.35,858.61,368.38,867.58,367.76Z" transform="translate(0 0)"/><path class="cls-8" d="M917.19,555.46a183.93,183.93,0,0,1,48.1-47.25c-28.62,1.86-53.22,12.25-75.37,28.34,8.66,5.68,18.14,10.37,25,18.21C915.37,555.24,916.43,555.24,917.19,555.46Z" transform="translate(0 0)"/><path class="cls-4" d="M909.76,680.22a29.27,29.27,0,0,0,25-3.65c10.66-6.81,21.29-13.64,32-21.08-9.36,4-16.36-1.36-23.11-5.26-7.33-4.25-14.52-1.47-21.61-1.2-4.86.18-9.82.93-14.73.75-3.88-.14-5.27,1.22-4.86,4.71.74,6.25.59,12.59,2.3,18.73.05-1.92.22-3.85.11-5.76-.15-2.76,1.24-3.49,4-3.75,3.94-.36,6.17.85,7,4.51C916.89,672.74,913.77,679,909.76,680.22Z" transform="translate(0 0)"/><path class="cls-9" d="M918.78,691.64c1.75,5.31,5.88,9.64,7.14,15.17.89.29,2.11-.27,2.86,1.22h-4.36a1,1,0,0,0-.95.12c-1.1,2.7-4.09,2.85-6.21,3.09-4.1.46-3.63,2.8-3.7,5.35-.09,3.21,2.16,3.18,4.55,3.18,3.51,0,7,.06,10.54.09l22.36-.31c.82-1.2,2.13-.91,3.31-1,9.69-.38,10.15-.43,8.86-9.69A145,145,0,0,1,962.1,693c0-1-.1-1.93-1.41-2.19-.6,1.07-1.6,1.12-2.7,1a.91.91,0,0,0-.93.12c-.48,3.47-3.39,2-5.33,2.19C940.58,695.35,929.83,691.68,918.78,691.64Z" transform="translate(0 0)"/><path class="cls-10" d="M1039.1,447.48c-13.49-5.42-24.32-14.46-37.84-18.87-1.61-.52-3.89-2.81-4.34,1.11-.92,8-6.6,12.41-13.82,15.59-1.32.59-3.68.24-3.37,2.62a3.88,3.88,0,0,0,3.1,3.33c18.12,3.08,36.25,5.53,53.93-2A14.06,14.06,0,0,0,1039.1,447.48Z" transform="translate(0 0)"/><path class="cls-7" d="M783,413.16c20-4.45,40.1-8.1,60-12.92,16.8-4.07,33.84-7.27,52.45-11.2-10.32-.88-19.31,1.27-27.48-1.66-10.9-3.9-20.92.89-31.34,1.35-2.66,1.93-6.21,1-9,2.44C812.52,398.1,797.61,405.35,783,413.16Z" transform="translate(0 0)"/><path class="cls-10" d="M891.67,553.82c-2.77,8.69,5.46,11.65,10,16.38,2.55,2.67,6.43,4.2,9.14,6.77,3.82,3.63,5.79,2.46,8.34-1.32,5.25-7.81,5.27-7.58,11,0,3.6,4.78,6,10.52,11.8,13.67,1.06-7.2,2.21-14.38,5.32-21.13l0,0c-8.79-4.06-13.6-12.14-21.1-17.91-5.22,4.14-8.12,10.24-11.74,15.77-2.42,3.7-3.93,3.34-6.89.64C902.48,562.14,898.46,556.46,891.67,553.82Z" transform="translate(0 0)"/><path class="cls-8" d="M859.47,632.83c-3.63-6-2.33-12.66-1.42-18.7,1.21-8,.38-16.11,1.82-24.14.72-4,2.33-8.24,1.2-13.21-3,5.42-5.3,10.56-8.44,15.23-5.91,8.79-12.38,17.23-20.74,24.2-3.06,2.54-3.74,4.39.75,6.14,8.86,3.46,16.68,9.06,26.17,11.22C859,633.31,859.24,633.07,859.47,632.83Z" transform="translate(0 0)"/><path class="cls-11" d="M869.87,710.42a3.91,3.91,0,0,0-1.08,0c-2.56,3.37-8,2.84-10.21,6.7,8.83.11,17.65.24,26.48.29a6.75,6.75,0,0,0,3.51-.7c7.16-4.73,15.58-6.7,23.49-9.77q.06-7.56.1-15.11l-32.19,0c1.45,5,5.4,8.84,7.43,13.58.91.41,2.49-.51,2.79,1.25Z" transform="translate(0 0)"/><path class="cls-12" d="M885.19,414.43c15.53-3.34,30.88.61,46.28,1.3,5.74.25,11.36,2.89,17,4.45l2.48,0v0c-1.16-2.39,2.12-2.06,2.46-3.53a7,7,0,0,1-1.3-4.39C945,408,936.54,408,928.66,406.51c-13-2.37-26.22-4.23-39.62-3.88-3.3.08-6.46.26-9.5,1.73C880.93,408,884.58,410.46,885.19,414.43Z" transform="translate(0 0)"/><path class="cls-13" d="M883.38,676.67c.5.56,1.26,1.05,1.47,1.7,2.89,8.73,2.87,8.73,12.28,8.73h13.76c-.11-.49-.13-1-.24-1-11.45-2-12.21-2.54-11.84-13.41.23-6.64-1.41-13.09-1.36-19.67,0-2.13-.91-3.25-3.29-3.23-3.73,0-7.46.05-11.19,0-2.82-.07-3.9.36-3.25,3.62,1.55,7.72,4.22,15.33,3.72,23.34Z" transform="translate(0 0)"/><path class="cls-14" d="M826.66,475c-1.07-.12-2.13-.28-2.67-1.34-.73-1.1-1.37-2.41-3.08-1.09l-1.79-1.68a1.5,1.5,0,0,0,.54-2c.38-.51.14-.79-.41-.95a1.52,1.52,0,0,1-.2-1c-.48-4.07,1.14-5.22,5.25-3.56,7.5,3,15.2,2.2,23.1,1.44s15.94-1.46,23.86-2.71c1.72-.27,4.14-.74,5.13,1.07,1.11,2-.87,3.48-2.19,4.93-3.66,4-8.22,7-12.73,10.07A96.6,96.6,0,0,1,826.66,475ZM843,472.27a10.18,10.18,0,0,0,10.68,2.1c.67-.23,1.35-1.05.55-1.81-2.54-2.44-5.83-2.41-9.13-2.26-.95,0-1.91.13-3.15.21A8.2,8.2,0,0,0,843,472.27Zm-14.47-2.55c2,3.61,5.38,4.4,9.33,3.85.35-.05.93-1.14.82-1.24-2.68-2.74-6.13-3.35-9.76-3.16C828.73,469.48,828.53,469.66,828.57,469.72Z" transform="translate(0 0)"/><path class="cls-3" d="M903.68,384c9.44,2,19.06,2.74,28.65,3.72l8.06-.44c-24.92-7.94-48.88-14.32-74-16.2-3.14,3.46-3.79,7.82-4.92,12,3-.69,6-.22,9.08-.85C881.7,379.93,892.75,381.61,903.68,384Z" transform="translate(0 0)"/><path class="cls-15" d="M861.49,383.07c1.13-4.18,1.78-8.54,4.92-12a74.61,74.61,0,0,0-19.07-2.2,2.54,2.54,0,0,0-.62,0c-3.35.79-20.33,18.61-20.77,21.88a12.94,12.94,0,0,0,1.66.4c2.81-1.44,6.36-.51,9-2.44,7.55-4.43,15.89-5.21,24.52-4.73A2.81,2.81,0,0,0,861.49,383.07Z" transform="translate(0 0)"/><path class="cls-16" d="M816.61,438.8c.08,7.73,3,9.7,11.11,7.66a27.66,27.66,0,0,0,8.17-4,35.48,35.48,0,0,1,22-6,4,4,0,0,0,3.42-1c-.92-.3-2.21,0-2.52-1.31l.12.06c-7.56-2.92-14.86-6-23.63-4.95-7.14.88-13,3-17.49,8.25l-1.23,1.25Z" transform="translate(0 0)"/><path class="cls-17" d="M862.6,630.08a12.92,12.92,0,0,0,1.91,2.18c1.53,1.15,2.51,3.91,4.57,3.21,2.23-.75.67-3.37,1-5.14a342.2,342.2,0,0,0,5-35.3c.44-5.67-3.16-9.72-6.21-14-.29.27-.79.51-.83.8C866.09,597.9,862.53,613.81,862.6,630.08Z" transform="translate(0 0)"/><path class="cls-7" d="M897.32,372.5c9.42-3.05,19.35-5.31,25.25-13.9,2-2.87,2.76-6,.85-9.25-3.17-5.4-6.66-5.52-10.72-1-7,7.8-14.39,15.33-21.61,23C892.83,373.28,895.28,371.94,897.32,372.5Z" transform="translate(0 0)"/><path class="cls-14" d="M964.82,426.07l4.72,11.38c1.93,1.13,3.27,2.53,2.58,4.88l0-.09c10.5.27,18.44-3.84,20.82-11.11,1-2.91,2.35-6.34-3.27-7-2.31-.27-4.49-1.56-7.82-2.78,2.68,3.87-.9,6.19-.95,9.22,2.15.5,4.61-.66,7.81,1.69-3.77.53-6.29,2.07-8.6-.92a6.43,6.43,0,0,1-3.08-3l.08.06c-2.16-1.52-2.1-3.85-2.78-6s-.66-5.3-4.64-4.7c2,6.71,4,13.42,6.09,20.55-3.42-1.09-3.72-3.68-5.09-5.51-2.17-2.91-2.3-6.94-5.76-9.11Z" transform="translate(0 0)"/><path class="cls-18" d="M917.19,555.46c-.76-.22-1.82-.22-2.24-.7-6.89-7.84-16.37-12.53-25-18.21-6.29,5.21-6.54,5.55.24,10.09,6,4,10.19,9.77,16.56,13.26,2.89,1.59,5.48,3.39,7.52-1C914.85,557.62,916.18,556.61,917.19,555.46Z" transform="translate(0 0)"/><path class="cls-12" d="M850.09,635.66c-4.77-4.62-11.94-5.44-17.05-9.51-.86-.68-1.86-1.06-2.56.07-1.26,2-2.36,4.07-.5,6.38,4.8,5.94,9.26,12.16,15.83,16.61a5.57,5.57,0,0,1,.82-.71,7.11,7.11,0,0,1,4.84-2.24l-.08.06,3.83-2.58C854.34,640.58,851.62,638.45,850.09,635.66Z" transform="translate(0 0)"/><path class="cls-19" d="M957.1,668.64C946.6,675,938.05,682.21,925.66,687c9.76,0,17.8.19,25.81-.08,3.89-.13,6.28-2,5.73-6.33C956.74,677,957.1,673.26,957.1,668.64Z" transform="translate(0 0)"/><path class="cls-8" d="M877.09,529a88.76,88.76,0,0,1-24.09.13c1.83,8.41,8.78,13.12,15.09,19.1C870,541.09,874.44,535.5,877.09,529Z" transform="translate(0 0)"/><path class="cls-12" d="M850,416.56l19.87.2c.44-3.78-.56-7.77,3.27-12.06-8,1.35-14.47,3-21.2,3.1-1.41,0-3.59,1-2.25,3.62C850.45,412.86,850,414.83,850,416.56Z" transform="translate(0 0)"/><path class="cls-4" d="M870.07,570.57,875,582.66c6.75-14.57,6.65-23-.13-32C872.64,557.18,870.23,563.63,870.07,570.57Z" transform="translate(0 0)"/><path class="cls-14" d="M943.46,633.5c-1.42-5.38-7.55-7.24-10.05-11.81-2.79,5.49-2.31,11.36-2.43,17.19-.07,3.87,4,3,5.92,4.66,1.24,1.05,2-1.79,2.73-3C941.07,638.31,942.2,635.87,943.46,633.5Z" transform="translate(0 0)"/><path class="cls-7" d="M909.76,680.22c4-1.24,7.13-7.48,6.13-12-.82-3.66-3-4.87-7-4.51-2.78.26-4.17,1-4,3.75.11,1.91-.06,3.84-.11,5.76C904.8,676.57,904.47,680.15,909.76,680.22Z" transform="translate(0 0)"/><path class="cls-18" d="M862.6,630.08c-.07-16.27,3.49-32.18,5.43-48.26,0-.29.54-.53.83-.8-.63-2.31-1.25-4.62-2-7.25-3.42,2.36-2.36,6.08-2.69,8.52-1.92,14.5-2.87,29.12-4,43.71C860.06,627.63,859.09,630.15,862.6,630.08Z" transform="translate(0 0)"/><path class="cls-7" d="M982,403.82c1.24,7.67,8.78,9.87,14,14.11a40.73,40.73,0,0,0,3.42,2.29c2.77,1.32,5.06,3.89,9.49,2.89-5.26-6.28-12-10.19-18.31-14.51C988,406.79,986.31,403.09,982,403.82Z" transform="translate(0 0)"/><path class="cls-10" d="M769.55,419.67c12.65.54,25.3.82,37.93-1.4a40.37,40.37,0,0,1,17.15.36c1.55.41,3.44.95,4.16-1.11.42-1.2.85-2.94.24-3.77-.87-1.18-2.56-.19-4,.08C806.78,417.38,788.21,418.55,769.55,419.67Z" transform="translate(0 0)"/><path class="cls-14" d="M850.09,635.66c1.53,2.79,4.25,4.92,5.13,8.08l1.71-.44c.68-.85,1.18-2.06,2.73-1.21-.63.65-1.27,1.3-1.9,2a10.12,10.12,0,0,1-.27,1.05c2.12,1.1,4.89,1.52,5.19,4.46,7-.38,3.89-6.06,5.45-9.29a1.93,1.93,0,0,0-1.16-.86c-5.8.35-10.28-3.12-15.44-4.57C851.17,634.74,850.57,635.37,850.09,635.66Z" transform="translate(0 0)"/><path class="cls-20" d="M928.61,720.71l-36.77,0a1.08,1.08,0,0,0,.2-1c6.63-3.35,13-7.14,20.27-9.35l1.47-1.37c3.38,1.14,6.35-1.68,9.69-.88-1.1,2.7-4.09,2.85-6.21,3.09-4.1.46-3.63,2.8-3.7,5.35-.09,3.21,2.16,3.18,4.55,3.18,3.51,0,7,.06,10.54.09A6.12,6.12,0,0,0,928.61,720.71Zm-19.16-1c1.64,0,2.87-.55,2.85-2.28,0-1.32.22-3-.51-3.88-1.13-1.36-2.63.11-3.81.62-2.91,1.28-5.73,2.77-8.58,4.17l.35,1.37Z" transform="translate(0 0)"/><path class="cls-17" d="M881.32,536.81c6.48-2.75,10.91-8.07,16.71-11.68a7.59,7.59,0,0,0,2.34-2c-5.75.46-12.42-2.87-16.67,4.06C884.24,530.65,881.54,533.46,881.32,536.81Z" transform="translate(0 0)"/><path class="cls-14" d="M956,638.22c-4-.38-6.87-3.75-11-3.64-1.07,2.42-1.43,5.09-3.38,7.22-1,1.11-2.09,2.5.38,4,1.94,1.13,3,2.15,5.09.16C949.87,643.18,953,640.77,956,638.22Z" transform="translate(0 0)"/><path class="cls-3" d="M964.88,423.62c3.46,2.17,3.59,6.2,5.76,9.11,1.37,1.83,1.67,4.42,5.09,5.51-2.11-7.13-4.1-13.84-6.09-20.55-3.08-1.7-6-3.07-4.85,2.47.15.11.42.25.41.33a3.91,3.91,0,0,1-.33.86C964.87,422.11,964.88,422.86,964.88,423.62Z" transform="translate(0 0)"/><path class="cls-7" d="M943.41,339.73c7.86,0,15.73.39,23.49-1.24-5.27-2.88-11.14-.47-16.79-1.69-6.63-1.43-13.77-.62-22.29-2.44C933.36,339,939.11,337.28,943.41,339.73Z" transform="translate(0 0)"/><path class="cls-14" d="M965.84,644c-2-3.16-5.57-3-8.83-3.54a75.37,75.37,0,0,0-5.76,5c-.87.91-3.45,1.53-1.63,3.49,1.23,1.31,3.08,1.1,4.52.42,3.78-1.77,7.54-3.54,11.72-4.34l-.07.08C965.81,644.76,965.83,644.38,965.84,644Z" transform="translate(0 0)"/><path class="cls-12" d="M862.68,649.56c-.3-2.94-3.07-3.36-5.19-4.46-2.16-.17-3.79,2-6.1,1.22l.08-.06c-.13,3.56-3,1.93-4.84,2.24a5.57,5.57,0,0,0-.82.71C850.45,654.65,855.44,654.75,862.68,649.56Z" transform="translate(0 0)"/><path class="cls-14" d="M979.66,642.88c-3.8.36-7.83-1.26-11.38,1.18-.6.82-.95,2.15-2.49,1.09l.07-.08c-.47,5.24-6.41,4-9.47,7.16C965.85,652,973.65,649.45,979.66,642.88Z" transform="translate(0 0)"/><path class="cls-17" d="M875.26,542.51c1.74,5.15,3.44,10.31,6.66,14.82,4.89-8.48,4.89-8.48-4.27-16.08A2.25,2.25,0,0,1,875.26,542.51Z" transform="translate(0 0)"/><path class="cls-20" d="M918.78,691.64c11.05,0,21.8,3.71,33,2.38,1.94-.23,4.85,1.28,5.33-2.19a301.25,301.25,0,0,1-32.63-1.11C922.65,690.54,920.32,689.6,918.78,691.64Z" transform="translate(0 0)"/><path class="cls-7" d="M870.07,570.57c.16-6.94,2.57-13.39,4.82-19.89l-1.35-5.13C866.89,559.51,866.16,564.87,870.07,570.57Z" transform="translate(0 0)"/><path class="cls-17" d="M971.15,612.08c4.81,3,9.64,6,14.41,9,2.55,1.63,3-.34,3.94-1.77,1.81-2.64-.66-1.81-1.88-2.32-5.08-2.12-9.9-4.82-15.48-5.77Z" transform="translate(0 0)"/><path class="cls-9" d="M880,691.89l32.19,0a1,1,0,0,0,.4-1c-9.76-2-19.67-1.34-29.55-1.4C881.25,689.4,879.59,689.56,880,691.89Z" transform="translate(0 0)"/><path class="cls-18" d="M875.26,542.51a2.25,2.25,0,0,0,2.39-1.26l3.67-4.44c.22-3.35,2.92-6.16,2.38-9.67C878.84,531.28,875.18,536,875.26,542.51Z" transform="translate(0 0)"/><path class="cls-1" d="M914,705.81c6.34-.72,7-1.56,4.23-6.56-1.05-1.92-1.3-4.58-4.23-5.21A41.81,41.81,0,0,0,914,705.81Z" transform="translate(0 0)"/><path class="cls-9" d="M858.58,717.13c2.19-3.86,7.65-3.33,10.21-6.7-6.53-.32-11,4-16.38,7Z" transform="translate(0 0)"/><path class="cls-9" d="M869.87,710.42l20.32-3.7c-.3-1.76-1.88-.84-2.79-1.25C881.13,705.77,875.12,706.92,869.87,710.42Z" transform="translate(0 0)"/><path class="cls-14" d="M977,428.33c1-.69,2.31-.68,3-2.07,1.26-2.37-.67-3.83-1.29-5.64a2.65,2.65,0,0,0-2.14-.12c-1.4,1.48-.86,3.1,0,4.71.51,1,1.13,2,.47,3.18Z" transform="translate(0 0)"/><path class="cls-18" d="M928.65,719.86a6.12,6.12,0,0,0,0,.85c7.56.06,15.12.13,22.68.17.49,0,1.42-.32,1.42-.49,0-1.14-1.17-.44-1.7-.84Z" transform="translate(0 0)"/><path class="cls-17" d="M914,705.81A41.81,41.81,0,0,1,914,694c-.77-1,1.23-3-1.41-3.22a1,1,0,0,1-.4,1q0,7.56-.1,15.11c.09,1.15.17,2.3.25,3.45l1.47-1.37C913.84,708,913.9,706.89,914,705.81Z" transform="translate(0 0)"/><path class="cls-14" d="M866.45,653.39c3.37-.1,6.61-.56,10-3.28-4.55-.26-8.38-1.62-10.83,2.49A4.28,4.28,0,0,1,866.45,653.39Z" transform="translate(0 0)"/><path class="cls-17" d="M972.14,611.23c-1.62-1.43-3.34-2.58-6.46-1.89l5.47,2.74Z" transform="translate(0 0)"/><path class="cls-4" d="M877.55,322.22c.87,2.13,2.76,2.5,4.87,2.47C881.33,323,879.5,322.49,877.55,322.22Z" transform="translate(0 0)"/><path class="cls-20" d="M924.42,708h4.36c-.75-1.49-2-.93-2.86-1.22Z" transform="translate(0 0)"/><path class="cls-11" d="M892,719.75c-.67,0-1.52-.34-1.52.74a6.6,6.6,0,0,0,1.32.25A1.08,1.08,0,0,0,892,719.75Z" transform="translate(0 0)"/><path class="cls-7" d="M1010.38,424.69l-.55.66a6.5,6.5,0,0,0,1,.41c.08,0,.25-.28.39-.42C1011,425.12,1010.68,424.9,1010.38,424.69Z" transform="translate(0 0)"/><path class="cls-8" d="M858.81,633.57c.39.78,1.24,1.33,1.79.66s-.63-1-1.13-1.4C859.24,633.07,859,633.31,858.81,633.57Z" transform="translate(0 0)"/><path class="cls-14" d="M865.65,652.6c-.44.47-1.76.68-1,1.49.58.63,1.45.12,1.82-.7A4.28,4.28,0,0,0,865.65,652.6Z" transform="translate(0 0)"/><path class="cls-20" d="M958,691.71c1.1.17,2.1.12,2.7-1A2.3,2.3,0,0,0,958,691.71Z" transform="translate(0 0)"/><path class="cls-3" d="M816.6,438.81l1.23-1.25Z" transform="translate(0 0)"/><path class="cls-14" d="M964.87,421.35a3.91,3.91,0,0,0,.33-.86c0-.08-.26-.22-.41-.33C964.82,420.56,964.85,421,964.87,421.35Z" transform="translate(0 0)"/><path class="cls-21" d="M860.23,495.94c8.21-.21,16.49.75,24.54-2,2.34-.79,3.37-1,2.71-3.67-2.25-9-2.06-8.26-12.79-7.51a210,210,0,0,1-37.78-.29c-4-.45-4.21.93-4.11,3.58.21,5.33,5.53,9.61,12.53,9.83C850.29,496.07,855.26,495.94,860.23,495.94Z" transform="translate(0 0)"/><path class="cls-21" d="M886.57,515.75a12.65,12.65,0,0,0,3.08,0c2.41-.6,6.16,1.86,7.08-1.91.65-2.68-6.15-8.71-9.08-8.31a178.39,178.39,0,0,1-21.9,2.12c-1,0-2.29-.09-2.48,1.13-.22,1.4,1.11,1.74,2.21,2.31C873.66,515.3,875.58,515.75,886.57,515.75Z" transform="translate(0 0)"/><path d="M956,431.91c-.5,5.33-.16,10.68-1.15,16-.77,4.19-.06,8.63-1.28,12.86,2.12-1.62,2.3-3.83,2.38-6.19a88.84,88.84,0,0,1,2.77-21.37C959.3,431,957.15,431.91,956,431.91Z" transform="translate(0 0)"/><path d="M953.42,416.71c-.34,1.47-3.62,1.14-2.46,3.53,3.06.28,3.51,3.63,2.86,4.35-3.06,3.38,1.59,2.61,2.07,3.94C958,424.05,956,420.32,953.42,416.71Z" transform="translate(0 0)"/><path d="M918.25,466.17c-2.34,5.23-4.06,9.09-5.79,12.94C916.35,476.06,919.09,472.58,918.25,466.17Z" transform="translate(0 0)"/><path d="M920.19,504.8c-1.74-3.22-4.55-4.82-9-5.28a16.61,16.61,0,0,0,8.6,5.82A4.51,4.51,0,0,0,920.19,504.8Z" transform="translate(0 0)"/><path d="M898.53,469.25c-3.54-.4-6,1.54-8.62,3.34C893.42,472.92,896,471.1,898.53,469.25Z" transform="translate(0 0)"/><path d="M952.15,463.34c-1.65-.23-3.43.38-5-.65-.46,1.52,0,2.57,1.78,2.82S952.16,465.44,952.15,463.34Z" transform="translate(0 0)"/><path d="M927.38,451.6c-1.49-3.11-1.88-3.11-5.71,0Z" transform="translate(0 0)"/><path d="M932.12,453.84c-1-1.94-2.45-2.95-4.83-2.29A5.64,5.64,0,0,0,932.12,453.84Z" transform="translate(0 0)"/><path d="M972.12,442.33c.69-2.35-.65-3.75-2.58-4.88A5.63,5.63,0,0,0,972.12,442.33Z" transform="translate(0 0)"/><path d="M946.58,462.12l-4.35-2.39C942.26,462.8,944.48,462.36,946.58,462.12Z" transform="translate(0 0)"/><path d="M921.06,452.2,918.72,455C920.82,455,921.63,454.13,921.06,452.2Z" transform="translate(0 0)"/><path d="M919.75,505.34c.39.68,1.19,1.31,1.67.62s-.68-.86-1.23-1.15A5.37,5.37,0,0,1,919.75,505.34Z" transform="translate(0 0)"/><path d="M942.27,459.76c-.38-1.21-1.38-1.12-2.39-1C940.36,459.76,941,460.34,942.27,459.76Z" transform="translate(0 0)"/><path class="cls-16" d="M918.69,420.2c-10.62-2-17.17,5.45-23.73,12.46-2.5,2.67-1.61,6.21-.12,9.35,1.33,2.81,3.67,3.63,6.91,3.89,13.68,1.1,24.12-3.25,31-14.75,3.11-5.21,1-10.07-5.42-10.89C924.86,419.94,922.34,420.2,918.69,420.2Z" transform="translate(0 0)"/><path d="M864.25,429.71c2,3.9,5.4,4.67,9,5.51C871.71,430.77,871.71,430.77,864.25,429.71Z" transform="translate(0 0)"/><path d="M858.83,434.2c.31,1.35,1.6,1,2.52,1.31l.44-1.22C860.8,434.43,859.87,432.85,858.83,434.2Z" transform="translate(0 0)"/><path d="M817.78,466.79c-.87,1.76.35,2.92,1.34,4.14a1.5,1.5,0,0,0,.54-2,.7.7,0,0,1-.41-.95,1.52,1.52,0,0,1-.2-1Z" transform="translate(0 0)"/><path d="M951,420.22l-2.48,0C949.29,421.8,950.11,421.81,951,420.22Z" transform="translate(0 0)"/><path d="M976.31,540.23c-.2-.78-.41-1.55-.61-2.33l-2.39-1.23C973.11,538.75,973.23,540.59,976.31,540.23Z" transform="translate(0 0)"/><path d="M973.35,536.72a3.43,3.43,0,0,0-2.53-3.54C970.69,535,970.41,536.85,973.35,536.72Z" transform="translate(0 0)"/><path d="M970.87,533.22c-.28-1.33-.06-3.11-2.52-2.39C968.41,532.35,968.77,533.59,970.87,533.22Z" transform="translate(0 0)"/><path d="M861.49,383.07a2.81,2.81,0,0,1-.34.93h42.53c-10.93-2.38-22-4.06-33.11-1.77C867.49,382.85,864.46,382.38,861.49,383.07Z" transform="translate(0 0)"/><path d="M965.79,645.15c1.54,1.06,1.89-.27,2.49-1.09l-2.44-.07C965.83,644.38,965.81,644.76,965.79,645.15Z" transform="translate(0 0)"/><path d="M842,470.51a8.2,8.2,0,0,0,1,1.76,10.18,10.18,0,0,0,10.68,2.1c.67-.23,1.35-1.05.55-1.81-2.54-2.44-5.83-2.41-9.13-2.26C844.19,470.34,843.23,470.43,842,470.51Z" transform="translate(0 0)"/><path d="M829,469.17c-.23.31-.43.49-.39.55,2,3.61,5.38,4.4,9.33,3.85.35-.05.93-1.14.82-1.24C836,469.59,832.59,469,829,469.17Z" transform="translate(0 0)"/><path d="M820.91,472.61l.8,1,2.28.06C823.26,472.6,822.62,471.29,820.91,472.61Z" transform="translate(0 0)"/><path class="cls-3" d="M819.25,468a.7.7,0,0,0,.41.95C820,468.44,819.8,468.16,819.25,468Z" transform="translate(0 0)"/><path d="M980.06,431.34c2.31,3,4.83,1.45,8.6.92-3.2-2.35-5.66-1.19-7.81-1.69A3.85,3.85,0,0,0,980.06,431.34Z" transform="translate(0 0)"/><path d="M846.63,648.5c1.84-.31,4.71,1.32,4.84-2.24A7.11,7.11,0,0,0,846.63,648.5Z" transform="translate(0 0)"/><path d="M851.39,646.32c2.31.8,3.94-1.39,6.1-1.22a10.12,10.12,0,0,0,.27-1.05,4.58,4.58,0,0,1-.83-.75l-1.71.44Z" transform="translate(0 0)"/><path d="M857.76,644.05c.63-.66,1.27-1.31,1.9-2-1.55-.85-2,.36-2.73,1.21A4.58,4.58,0,0,0,857.76,644.05Z" transform="translate(0 0)"/><path class="cls-9" d="M899.75,719.73h9.7c1.64,0,2.87-.55,2.85-2.28,0-1.32.22-3-.51-3.88-1.13-1.36-2.63.11-3.81.62-2.91,1.28-5.73,2.77-8.58,4.17Z" transform="translate(0 0)"/><path d="M875.45,419.4a1.5,1.5,0,0,0,0-3,1.5,1.5,0,0,0,0,3Z" transform="translate(0 0)"/><path d="M877.76,416.21a2.17,2.17,0,0,0-.82.47,1.63,1.63,0,0,0-.33.45,2,2,0,0,0-.21.52,4.07,4.07,0,0,0-.07.61,7.48,7.48,0,0,1,0,.95l.06-.4a1.05,1.05,0,0,1,0,.19l.15-.36-.06.11.23-.3a.27.27,0,0,1-.08.07l.31-.23-.11.06.36-.15-.12,0,.39-.06h-.1l.4.06-.15,0,.36.15a.67.67,0,0,1-.14-.09l.3.24a1.21,1.21,0,0,1-.16-.16l.24.3a1.28,1.28,0,0,1-.15-.25l.15.36a5,5,0,0,1-.15-.67,3.19,3.19,0,0,0-.24-.65,2.07,2.07,0,0,0-.41-.56,1.52,1.52,0,0,0-1.06-.44,1.06,1.06,0,0,0-.58.13,1,1,0,0,0-.48.31,1.5,1.5,0,0,0-.44,1.06,1.56,1.56,0,0,0,.44,1.06l.07.09-.23-.31a1,1,0,0,1,.11.2l-.15-.35a2.41,2.41,0,0,1,.12.48c0,.08,0,.16,0,.25a2.49,2.49,0,0,0,.22.57.78.78,0,0,0,.11.2,2.17,2.17,0,0,0,.39.47,2.3,2.3,0,0,0,.47.35,2.19,2.19,0,0,0,.94.25,2,2,0,0,0,1.06-.3,2,2,0,0,0,.68-.72,2.07,2.07,0,0,0,.18-.47,3.08,3.08,0,0,0,.08-.53c0-.11,0-.22,0-.32a3.77,3.77,0,0,1,0-.75l-.05.39a1,1,0,0,1,0-.17l-.15.36.06-.11-.23.31.07-.08-.3.23.1-.06-.36.16,0,0a1.06,1.06,0,0,0,.51-.27,1,1,0,0,0,.38-.42,1.09,1.09,0,0,0,.18-.55,1,1,0,0,0,0-.6,1.5,1.5,0,0,0-1.84-1.05Z" transform="translate(0 0)"/><path d="M876,417.16a1.5,1.5,0,0,0,0-3,1.5,1.5,0,0,0,0,3Z" transform="translate(0 0)"/><path d="M875,415.73a12.4,12.4,0,0,0-.67,1.79,11.76,11.76,0,0,0-.35,1.88l.06.4a1.13,1.13,0,0,0,.26.51,1.5,1.5,0,0,0,.78.53,1.8,1.8,0,0,0,.8,0,1.49,1.49,0,0,0,.9-.69,8.71,8.71,0,0,0,.56-1.5,7.62,7.62,0,0,0,.22-1.59,1.52,1.52,0,0,0-.44-1.06,1.54,1.54,0,0,0-1.06-.44A1.56,1.56,0,0,0,875,416a1.66,1.66,0,0,0-.44,1.06,4.73,4.73,0,0,1,0,.53l.05-.4a6.21,6.21,0,0,1-.43,1.57l.15-.36-.1.24,2.79.76s0-.11,0-.16l0,.4a9.54,9.54,0,0,1,.67-2.46l-.15.36a2.55,2.55,0,0,1,.13-.29,1.26,1.26,0,0,0,.17-.56,1.11,1.11,0,0,0,0-.6,1.59,1.59,0,0,0-.69-.9,1.56,1.56,0,0,0-1.16-.15,1.49,1.49,0,0,0-.9.69Z" transform="translate(0 0)"/><path d="M874.54,416.22l.11,1.31a1.57,1.57,0,0,0,.32.91,1.39,1.39,0,0,0,.78.54,1.54,1.54,0,0,0,1.69-.69,5.46,5.46,0,0,0,.76-2.39,4.86,4.86,0,0,0-.08-1.26,3.17,3.17,0,0,0-.37-1.07,2.24,2.24,0,0,0-3-1,2.4,2.4,0,0,0-1,1.07,4.4,4.4,0,0,0-.4,1.19,4.93,4.93,0,0,0-.08,1.38,7,7,0,0,0,.14.82,7.46,7.46,0,0,0,.31.83,1.52,1.52,0,0,0,.9.69,1.5,1.5,0,0,0,1.85-1.05l.05-.4a1.42,1.42,0,0,0-.21-.75l0-.06.15.36a3.47,3.47,0,0,1-.22-.84l.05.4a4.12,4.12,0,0,1,0-.86l-.05.4a3.45,3.45,0,0,1,.24-.89l-.15.36a1.94,1.94,0,0,1,.22-.4l-.24.3a1.14,1.14,0,0,1,.16-.15l-.31.24a.33.33,0,0,1,.1-.06l-.36.15.14,0-.4.06h.14l-.4-.05.17.05-.36-.15.17.1-.31-.24a2.28,2.28,0,0,1,.22.22l-.24-.3a1.65,1.65,0,0,1,.18.32l-.15-.36a2.48,2.48,0,0,1,.15.61l-.06-.4a3.62,3.62,0,0,1,0,.93l.06-.4a4.43,4.43,0,0,1-.25.95l.15-.36a4.25,4.25,0,0,1-.29.56l2.8.75-.11-1.31a1.58,1.58,0,0,0-.44-1.06,1.5,1.5,0,0,0-2.12,0,1.52,1.52,0,0,0-.44,1.06Z" transform="translate(0 0)"/><path d="M877.72,418.29c.13-.68.24-1.37.34-2.06a7.44,7.44,0,0,0,.15-2.53,2.52,2.52,0,0,0-1.35-1.73,3.53,3.53,0,0,0-2.15-.26,3.7,3.7,0,0,0-2.78,2.72,10,10,0,0,0-.32,1.88,3.7,3.7,0,0,0,0,1.15,2.3,2.3,0,0,0,1,1.41,2,2,0,0,0,3-.74,4.18,4.18,0,0,0,.35-1.3,8.77,8.77,0,0,0,.11-1.45,1.5,1.5,0,0,0-3,0,6.17,6.17,0,0,1-.06,1.05l.06-.4a4.91,4.91,0,0,1-.2.94l.15-.35a.76.76,0,0,1-.12.19l.24-.3a.34.34,0,0,1-.09.08l.31-.23-.09.05.36-.16-.1,0,.4,0h-.16l.4.05-.2-.05.36.15a1.18,1.18,0,0,1-.19-.11l.31.23-.12-.11.24.3a.55.55,0,0,1-.09-.14l.15.35a1.17,1.17,0,0,1-.09-.32l.06.4a4.77,4.77,0,0,1,.07-1.13l0,.4a5.57,5.57,0,0,1,.32-1.34l-.15.36a3.42,3.42,0,0,1,.35-.62l-.23.31a2.16,2.16,0,0,1,.36-.38l-.3.24a2.4,2.4,0,0,1,.38-.23l-.36.16a2.38,2.38,0,0,1,.58-.16l-.4,0a2.44,2.44,0,0,1,.54,0l-.4,0a2.08,2.08,0,0,1,.41.11l-.36-.15.27.16-.31-.23a1.14,1.14,0,0,1,.19.19l-.24-.31a1.06,1.06,0,0,1,.12.2l-.15-.36a1.48,1.48,0,0,1,.1.36l-.06-.4a4.91,4.91,0,0,1-.07,1.08l0-.4q-.18,1.33-.42,2.64a1.67,1.67,0,0,0,.15,1.16,1.52,1.52,0,0,0,.9.69,1.49,1.49,0,0,0,1.15-.15,1.45,1.45,0,0,0,.69-.9Z" transform="translate(0 0)"/><path class="cls-22" d="M875.74,416.88a1.5,1.5,0,0,0,0-3,1.5,1.5,0,0,0,0,3Z" transform="translate(0 0)"/><path class="cls-22" d="M844.4,415.48a1.5,1.5,0,0,0,0-3,1.5,1.5,0,0,0,0,3Z" transform="translate(0 0)"/></g></svg>