<svg xmlns="http://www.w3.org/2000/svg" xmlns:xlink="http://www.w3.org/1999/xlink" viewBox="0 0 1366 768"><defs><style>.cls-1{fill:#2e2e2e;}.cls-2{fill:#664d3f;}.cls-3{fill:#b4815f;}.cls-4{fill:#630;}.cls-5{fill:#693534;}.cls-6{fill:#633;}.cls-7{fill:#97572c;}.cls-8{fill:#924e44;}.cls-9{fill:#606060;}.cls-10{fill:#442f20;}.cls-11{fill:#1c1c1c;}.cls-12{fill:#7b5438;}.cls-13{fill:#232323;}.cls-14{fill:#9c6a48;}.cls-15{fill:#b2b2b2;}.cls-16{fill:#c8a480;}.cls-17{fill:#cbcbcb;}.cls-18{fill:#fbfbfb;}.cls-19{fill:#454445;}.cls-20{fill:#aba798;}.cls-21{fill:#8d6c57;}.cls-22{fill:#fffdec;}</style></defs><g id="Capa_15" data-name="Capa 15"><image width="612" height="459" transform="translate(0 0) scale(2.23 1.67)" xlink:href="../istockphoto-519221134-612x612.jpg"/></g><g id="Capa_14" data-name="Capa 14"><path class="cls-1" d="M1085.69,643a5.81,5.81,0,0,0,.07-.83l-1.84-.12A1.73,1.73,0,0,0,1085.69,643Z" transform="translate(0 0)"/><path d="M1326.13,422.57c-4.48,2.32-9.52,3-14.34,4.42h-14.52c-4.06.18-7.92-.91-12.93-2.18,2,2.05.4,4.06,2.07,5.51-1.32,2.14-3.07,4.09-3.49,6.65l-4.36,6.78c-5,6.92-11.51,12.42-18.47,17.74l8.49-.87c2.77.09,5.4-1.29,8.22-.72.9.18,2.19-.5,2.49,1,.21,1.07-.62,1.28-1.38,1.77-3.21,2.07-6.32,4.28-9.47,6.44-2.13,1-3.27,1.57-.5,3.61,2.36,1.75,5.3,3.43,6.08,6.64-3.62-.66-5.21-4-8.17-5.56-1.29-.69-2.1-1.47-3.38-.16-5.16,5.27-11.11,9.82-15.85,15.49-1.84,2.2-1.53,3.56.48,5.32,3.18,2.77,6.21,5.72,9.23,8.66,1,1,2.54,1.65,2.31,3.38-6.36-2.95-9.84-8.82-15.27-13-3.78,3-5.89,7.45-8.51,11.46-1.75,2.69-2.84,2.43-5,.47-3.62-3.31-6.53-7.44-11.45-9.35-.53-1.44-1.33-2.05-2.24-.34a27.62,27.62,0,0,0-2.54,5.78,232,232,0,0,0-7.45,47.88c-.13,2.76-.58,5.55-.87,8.32-.38,3.5,1.58,4.49,4.57,4.67,11.06.67,22.07-.8,33.12-.88,2,0,3.49-6,1.49-8.24-3.62-4-4-7.9-1.43-12.36,2.24-3.87,4.57-7.56,9.77-8.4,2.39-.38,1.82-2.6,1.57-3.63-.59-2.46,0-4.7.37-7,.76-5.23,1.6-10.45,3.85-15.35,1.13,0,2.61.42,1.86,1.47-4,5.52-2.46,12.15-4.43,18.07-.57,1.7,1.62,2,3,2.51l34.64,13.08c.25-6.21-1.57-12-2-17.92-.55-7.14-3.2-13.86-4.45-20.87-.69-3.86-3.46-7.39-5.29-11.07-.82-1.63-2.16-3.1-1.67-5.1l2.7,3,3.74,8.48,5.16,13.57,2,13.54c.53,4.49.63,9,1.8,13.45,0,.94-.66,2.08.85,2.58v2.58c-4.24-1.84-6,3.18-10,3.25l3.56,5.2c-2.07,7.14-6.66,12.35-13.59,15.79-.68.33-2.25.53-1.45,1.56,3.11,4-1.14,4.87-3.2,6-3.35,1.79-5.43,3.58-4.27,7.56.82,2.84-1,6,.9,8.81,1.24.43,2.89-.49,3.8,1-.82,4.55.71,9,.9,13.46.41,3.14.64,6.32,1.3,9.41.34,1.57.39,2.23-1.55,2.53-6.25,1-12.46,2.18-18.85,1.79h-28.81c-4.41-.54-8.67-.31-13.2-2.1s-10.28-.42-15.5-.44c-2.6-.52-5.24.13-7.94-.75-3-1-2.36-2.16-.76-3.46a29.18,29.18,0,0,1,11.33-5.86c4.12-1,8.16-2.29,12.73-3.06-2.57-3.93-4.1-8.12-7.2-11.49,2.75-.29,6.19.93,8.1-.72s-1.07-4.5-.39-6.93c.36.41.91.76,1.06,1.24,2.1,6.34,2.08,6.34,8.9,6.34h10c-.08-.35-.09-.71-.17-.72-8.3-1.46-8.85-1.85-8.58-9.75.17-4.83-1-9.51-1-14.29,0-1.56-.66-2.37-2.39-2.36-2.7,0-5.4.05-8.1,0-2,0-2.82.26-2.35,2.63,1.12,5.61,3,11.14,2.69,17-1.29-1.81-1.31-3.93-1.7-6-.56-2.67-1.21-5.33-1.65-8-.37-2.25-1.75-3.22-3.71-2-2.85,1.7-5.91,1.46-9,1.67a25.14,25.14,0,0,0-4.9-.07c-4.37.75-7.27-1-9.44-4.34l-.86-.81c-4.11-4.17-8.13-8.41-11-13.49,0-.27,0-.64.18-.81,3-3.06,2.63-5.48-1.71-7,1.18-2.12,4-3.07,3.58-5.73,2.23-3.91,6.45-5.77,9.87-8.45,2-1.35,3.66-2.92,4.28-5.24a46.29,46.29,0,0,0,7.21-13.45,20,20,0,0,0,2.84-6.78c1.08-2.18,2.94-4.1,2.56-6.77,1.09-2.73.14-4.71-2.48-6.09-1.08-3-3.7-5-5.62-7.46-1.65-3.26-3.29-6.52-5.13-10.18,3.74.92,6.9,3.2,10.72,2.36,5.17.42,10.24.38,14.73-2.9-4-1.88-8.7-.5-12.52-2.81a1.52,1.52,0,0,0-2.35,1.5c-1-.2-.72-1.05-1-1.64,0-2.41-3-2.12-3.59-4.13-1.25,1.11-.49,2.28-.92,3.2h-1.52c1.88-4.88-2.64-7.2-4.8-10.44-.51-.77-1.62-.42-2.49-.31l-7.2-1.83a9.83,9.83,0,0,1-4.75-5.65c-1,.63-1.15,2.13-2.5,2.22-1-1.13,3.78-4-1.45-4-.67,0,.25-1.6.66-2a18.15,18.15,0,0,0,4.45-9.13,69.78,69.78,0,0,0,25.2,2.35c7.37.74,14-1.82,20.65-4.17-1.19,3.12-4.66,3.18-7.11,4a34,34,0,0,1-13.55,2c-7.23-.6-14.65,1.17-21.74-1.58-1.42-.55-2.38.09-2.66,1.84-1.22,7.68,2.6,13.05,10.95,13.11,11.4.08,23,1.68,34.18-2.22a26.52,26.52,0,0,0,12.39-8.42c.91-1.14,1.69-2.2,3.25-2.36-9.69,16.64-26.52,17.22-44,16.88,7,5.61,14.35,10.46,23.84,10.65,17.73.33,33.34-5.28,47.77-14.79a69,69,0,0,0,22.17-24.2,2.85,2.85,0,0,0,0-3c-2-4.65-4-9.28-6.07-13.92,7.6.2,13.36-2.79,15.07-8.08.69-2.11,1.71-4.6-2.36-5.08-1.68-.2-3.25-1.13-5.67-2,2,2.82-.65,4.51-.69,6.71a3.29,3.29,0,0,0-.57.55,4.57,4.57,0,0,1-2.22-2.18c.72-.5,1.67-.49,2.2-1.5.92-1.73-.48-2.79-.93-4.11a2,2,0,0,0-1.55-.08c-1,1.07-.62,2.25,0,3.42.37.71.81,1.47.33,2.32-1.56-1.11-1.52-2.8-2-4.37s-.48-3.85-3.36-3.42c-2.23-1.23-4.32-2.22-3.51,1.8l.06.87v1.64c0,.6,0,1.19,0,1.79a1.66,1.66,0,0,1-1.16-1.59c-.93-6.7-1-6.77-8-8.41-5.17-3.11-11.28-3.17-17-4.22-9.43-1.72-19-3.07-28.68-2.82a16.06,16.06,0,0,0-6.88,1.26c1,2.61,3.65,4.43,4.09,7.31-.66,2.84.41,5.54.75,8.29.29,2.24,0,4.48-2.74,5.08-2.55.56-4.89.23-6.34-2.54a26.23,26.23,0,0,1-2.73-9.13c.31-2.75-.41-5.65,2.36-8.76-5.77,1-10.48,2.16-15.35,2.25-1,0-2.59.7-1.63,2.63.53,1,.18,2.48.23,3.73a4.52,4.52,0,0,0-1.67,3.67c.32,2.78-1.69,2.29-3.44,2.35-2.49.1-2.28-1.71-1.9-2.86.82-2.5-.26-4.65-.57-7-3.76,1.2-7.16,6.57-6.74,9.94.3,2.37,2.18,1.72,3.34,1.54,6.21-1,11.5,1.55,16.91,3.65.53.2,1.37.75.52,1.57-5.48-2.12-10.76-4.38-17.11-3.6-5.17.64-9.41,2.18-12.66,6l-.9.91h0c-2.7,5.32-2.37,10.72-.43,16.16.51,1.4.9,2.84,1.34,4.26-2.48.65-1.49-2.1-2.84-2.56-1.71-4.42-1.78-9-1.8-13.66.7-4.59,3.41-7.78,7.63-10,.75-.4,1.22-1.26,1.94-1.74a4.09,4.09,0,0,0,1.72-3.94c-.08-.74-2.26-1.61-3.89-1.08-4.87-.21-9.75-.48-14.52.85-4.55-.08-9,.68-13.58.87-6.63.28-12.8-.4-18.43-3.95.37-1.58,2.3-1.79,3.34-2.87,2.85-1.18,6.1-1.73,8-4.43a18.16,18.16,0,0,0,6.26-2.58l14.52-6.78c3.33-1.61,6.94-2.7,9.91-5,1.77,0,3-1.18,4.5-1.83,5.79-2,7.52-7.13,9.9-11.72a89.87,89.87,0,0,0,5.18-13.63c0-.55,0-1.1.08-1.65,2.13-3.72,2.5-7.9,3.55-11.9,2.39-6.05,8.39-9.18,12.61-13.74,1-1,2-.38,3.2,0,7.91,2.31,15.25,5.91,23,8.61a83.46,83.46,0,0,0,14.52,3.39c4.61,1.67,9.62.41,14.29,1.7,4.83.39,9.74-.34,14.53.82l6.26.07c.1,4.57,2.4,8.58,3.71,12.85l4.35,13.51c.21,4.63,2,9,2.85,13.49-.12,5.51,2.22,9.12,7.44,12.34,6.72,4.15,12.33,9.88,18.42,14.93l14.44,12.7.87.82C1328.56,418.93,1328.36,420.87,1326.13,422.57ZM1207.42,566c-3.29-.2-6.07-1.18-7.84,1.8-.32.34-1.28.5-.74,1.09s1.05.08,1.32-.52A11.12,11.12,0,0,0,1207.42,566Zm26.13,29.58c-7.07-1.45-14.25-1-21.4-1-1.27,0-2.47.1-2.2,1.8,1,3.65,3.91,6.42,5.38,9.87-4.54.22-8.89,1.05-12.69,3.6a3,3,0,0,0-.79,0c-4.73-.24-8,2.87-11.85,5.06l4.46-.19c6.39.07,12.78.17,19.17.2a4.85,4.85,0,0,0,2.55-.5c5.18-3.44,11.28-4.87,17-7.1l.18,2.5c-5.24,1.61-9.88,4.36-14.68,6.8-.48,0-1.1-.25-1.1.54a4.76,4.76,0,0,0,1,.18l26.63,0c5.47,0,10.95.1,16.42.12.36,0,1-.23,1-.36,0-.82-.85-.32-1.23-.6.59-.87,1.54-.67,2.4-.7,7-.28,7.35-.31,6.42-7a105.45,105.45,0,0,1-.79-11.6c0-.7-.07-1.4-1-1.59a1.66,1.66,0,0,0-2,.69.63.63,0,0,0-.67.09,219.34,219.34,0,0,1-23.63-.81c-1.29-.13-3-.81-4.09.67,1.27,3.86,4.26,7,5.17,11l-1.09.89a.67.67,0,0,0-.68.09c-2.42-.58-4.57,1.47-7,.64,0-.78.09-1.56.14-2.34,4.59-.52,5-1.14,3.06-4.77-.76-1.39-.94-3.33-3.06-3.78C1234,597.27,1235.46,595.8,1233.55,595.62ZM1272,536.4l4,2c3.48,2.18,7,4.34,10.44,6.55,1.84,1.19,2.15-.25,2.85-1.29,1.31-1.92-.48-1.31-1.36-1.68-3.68-1.54-7.17-3.51-11.21-4.2A4.72,4.72,0,0,0,1272,536.4Zm-61.08-52.72c4.69-2,7.9-5.87,12.1-8.49a5.39,5.39,0,0,0,1.69-1.49c-4.16.34-9-2.09-12.07,2.95-3.52,3-6.17,6.44-6.11,11.17,1.26,3.74,2.49,7.49,4.82,10.78,3.54-6.17,3.54-6.17-3.09-11.69Zm54.35,83.9c6.86-.2,12.51-2,16.85-6.8,6.32-6.58,6.35-8.91-1.1-15.89s-17-9.36-26.85-11.17c-3.13-.58-9.69,5.82-9.94,9.48-.14,2,0,3.94,0,6.48,2-2.84,1.94-6,4.43-8.24v3.94c-2,4-1.67,8.25-1.75,12.49-.06,2.81,2.91,2.21,4.29,3.39.89.76,1.43-1.31,2-2.15,1-1.65,1.86-3.43,2.77-5.15l1.1.78c-.77,1.76-1,3.7-2.44,5.26-.73.8-1.52,1.81.27,2.86,1.4.83,2.21,1.57,3.69.12,2-2,4.31-3.74,6.49-5.59,1,.25.74,1,.7,1.62-1.4,1.21-2.9,2.34-4.17,3.67-.63.66-2.5,1.11-1.18,2.53a2.76,2.76,0,0,0,3.28.32,35.75,35.75,0,0,1,8.48-3.16C1271.8,566.18,1267.5,565.27,1265.28,567.58Zm-63.9-8.7a1.39,1.39,0,0,0-.85-.62c-4.19.25-7.43-2.27-11.17-3.33-.26-.07-.7.39-1,.6-3.45-3.36-8.64-3.95-12.35-6.91-.62-.5-1.34-.77-1.85,0-.91,1.46-1.7,3-.36,4.63,3.48,4.33,6.71,8.84,11.46,12.09,3.36,3.94,7,4,12.22.24C1202.51,565.36,1200.24,561.23,1201.38,558.88Zm5-41.87c4.89-10.6,4.82-16.76-.09-23.25-.31-1.18-.62-2.37-1-3.73-4.81,10.15-5.34,14.05-2.51,18.18C1203.94,511.06,1205.1,513.9,1206.36,517Zm-5.87-6.47c-2.48,1.72-1.71,4.42-1.94,6.2-1.39,10.54-2.08,21.16-2.92,31.77-.1,1.18-.8,3,1.74,3a10.49,10.49,0,0,0,1.38,1.58c1.11.83,1.82,2.84,3.32,2.33s.48-2.45.72-3.74A246.88,246.88,0,0,0,1206.4,526c.32-4.13-2.29-7.07-4.5-10.19Zm-14.17-148.93a2.24,2.24,0,0,0-.45,0c-2.42.58-14.71,13.53-15,15.91a9.81,9.81,0,0,0,1.21.29c-10.93,5-21.72,10.31-32.29,16-.3.05-.76,0-.85.18-.61,1,.45.64.79.67,3.74.22,7.38-.7,11.08-1,11.38-.9,22.48-3.56,33.7-5.46,13.42-2.28,26.86-5.48,40.62-4.43,15.66,1.19,31.15,3.35,46.29,7.81,8.34,2.46,16.4,5.84,25.06,7.35,2,1,3.66,2.83,6.87,2.11-3.81-4.57-8.71-7.41-13.26-10.55-1.91-1.32-3.1-4-6.21-3.48a140.79,140.79,0,0,0-36-11.71l5.84-.31c-18-5.78-35.4-10.41-53.57-11.78A53.89,53.89,0,0,0,1186.32,361.61Zm9.6,192.88c.47-.59-.45-.72-.82-1-2.63-4.37-1.68-9.21-1-13.6.88-5.84.28-11.71,1.32-17.55.53-2.92,1.69-6,.87-9.6-2.14,3.94-3.83,7.68-6.1,11.07-4.28,6.39-9,12.53-15,17.59-2.21,1.85-2.7,3.2.55,4.47,6.41,2.51,12.07,6.58,19,8.15C1194.91,554.58,1195.53,555,1195.92,554.49Zm53.73,30.78c7.71-4.95,15.41-9.92,23.16-15.33-6.78,2.94-11.85-1-16.73-3.82-5.31-3.09-10.52-1.07-15.65-.88-3.52.14-7.11.69-10.67.55-2.81-.1-3.82.89-3.52,3.43.54,4.54.43,9.15,1.67,13.61,0,2.44-.22,5,3.61,5.09A21.16,21.16,0,0,0,1249.65,585.27Zm22.08-122.38c-20.72,1.36-38.54,8.91-54.57,20.6-4.56,3.79-4.74,4,.17,7.34,4.32,2.9,7.38,7.1,12,9.63,2.09,1.15,4,2.46,5.44-.7a12.57,12.57,0,0,1,2.14-2.52A133.45,133.45,0,0,1,1271.73,462.89ZM1208.2,327.7c-.1-.1-.19-.27-.31-.3-4-.92-7.77-5.89-12.07-.36-2.63,3.4-6.83,5.37-7.66,10.43-1.31,8-4,15.85-7,23.7,6.76-1.39,13.29.08,19.78-.37l17,2.59c1.26,1.42,3,.45,4.52.86,6.85,2.74,14.2,3.91,21.32,5.79,13.89,3.67,27.09,9,41.07,14.32-2.11-7.6-4.17-14.83-6.11-22.08-2-7.57-3.94-15.16-5.9-22.75-3.82-2.1-8.07-.35-12.16-1.23-4.8-1-10-.45-16.14-1.77,4,3.38,8.17,2.12,11.28,3.9-9.68,1.05-18.21-2.9-27-5.54-5.73-1.72-11.42-3.57-17.13-5.36l0,0C1210.94,328.23,1209.61,327.9,1208.2,327.7ZM1297.77,405c-1.16-.39-2.81-2.05-3.13.8-.67,5.85-4.79,9-10,11.33-1,.43-2.67.18-2.45,1.91a2.82,2.82,0,0,0,2.25,2.41c13.12,2.24,26.25,4,39-1.44a11,11,0,0,0,1.69-1.3C1315.41,414.81,1307.57,408.24,1297.77,405ZM1243,592.84c7.07,0,12.89.14,18.69-.06,2.82-.09,4.55-1.43,4.15-4.6a74.55,74.55,0,0,1-.07-8.68C1258.2,584.09,1252,589.37,1243,592.84Zm-52.61-114.78c1.33,6.12,6.36,9.54,10.93,13.88,1.36-5.15,4.6-9.22,6.52-14A63.75,63.75,0,0,1,1190.42,478.06Zm-33-80.54a29.11,29.11,0,0,1,12.42.26c1.12.29,2.49.69,3-.81.3-.87.62-2.14.18-2.74-.63-.86-1.86-.14-2.87.06-13.25,2.58-26.7,3.43-40.21,4.25C1139.15,398.93,1148.31,399.13,1157.46,397.52ZM1304,402.67a5.28,5.28,0,0,0,.75.29c.06,0,.18-.2.28-.31l-.62-.47Z" transform="translate(0 0)"/><path class="cls-2" d="M1274.81,411.46a4.1,4.1,0,0,0,1.86,3.54l0-.06c2,4.64,4.06,9.27,6.07,13.92a2.85,2.85,0,0,1,0,3,69,69,0,0,1-22.17,24.2c-14.43,9.51-30,15.12-47.77,14.79-9.49-.19-16.8-5-23.84-10.65,17.47.34,34.3-.24,44-16.88-1.56.16-2.34,1.22-3.25,2.36a26.52,26.52,0,0,1-12.39,8.42c-11.2,3.9-22.78,2.3-34.18,2.22-8.35-.06-12.17-5.43-10.95-13.11.28-1.75,1.24-2.39,2.66-1.84,7.09,2.75,14.51,1,21.74,1.58a34,34,0,0,0,13.55-2c2.45-.81,5.92-.87,7.11-4l0,0c2.54.24,4.39-1.08,6.24-2.43,5.28-2.94,10.4-6.08,14.62-10.35,1.52,0,2.11-.64,1.69-2,0-.27.15-.41.44-.42h4.14l-.07,0a4.1,4.1,0,0,0,3.5,1.66,19.63,19.63,0,0,0,5.62,3.58c.35.72.84,1.15,1.73.72l0,0c0,2.23,1.63,1.91,3.15,1.74.29,0,.44.14.44.42-.33,1.1,0,1.86,1.29,2s2.31,0,2.3-1.57l1-1.84c1.54-1.17,1.67-2.78,1.73-4.5a64.84,64.84,0,0,1,2-15.53c.45-1.63-1.11-1-2-1l-.06-2.45c1.52-3.26.11-6-1.79-8.6a5.22,5.22,0,0,1-.94-3.19c7,1.64,7.11,1.71,8,8.41a1.66,1.66,0,0,0,1.16,1.59ZM1240,461.25c.4-.58-.49-.62-.89-.83-1.26-2.35-3.29-3.51-6.54-3.85a12,12,0,0,0,6.23,4.24C1239,461.3,1239.62,461.76,1240,461.25Zm-26.53-8.71c1.69-.58,2.43-.74,2-2.67-1.63-6.54-1.49-6-9.27-5.47a150.54,150.54,0,0,1-27.35-.2c-2.92-.33-3,.67-3,2.6.14,3.87,4,7,9.07,7.15,3.59.11,7.19,0,10.79,0C1201.6,453.82,1207.59,454.52,1213.43,452.54Zm3.53,15.81c1.74-.45,4.46,1.34,5.12-1.39.48-2-4.45-6.34-6.57-6a129.41,129.41,0,0,1-15.86,1.55c-.71,0-1.66-.07-1.8.82s.81,1.26,1.6,1.68c5.93,3.08,7.32,3.41,15.28,3.41A9.76,9.76,0,0,0,1217,468.35Zm16.52-26.61c2.81-2.22,4.8-4.75,4.19-9.41Z" transform="translate(0 0)"/><path class="cls-3" d="M1244.21,421.71l.07,0c-1.08-2.27-1.36-2.26-4.14,0-.29,0-.44.15-.44.42l-1.69,2c-4.22,4.27-9.34,7.41-14.62,10.35-2.56-.29-4.38,1.12-6.24,2.43l0,0c-6.66,2.35-13.28,4.91-20.65,4.17,3.27-2.23,6.57-4.41,9.22-7.32,1-1.06,2.39-2.1,1.59-3.59-.72-1.31-2.47-1-3.72-.77-5.73.91-11.5,1.4-17.28,2s-11.29,1.16-16.72-1.05c-3-1.2-4.15-.37-3.81,2.59l-.92-.17.07.07c-.44-1.42-.83-2.86-1.34-4.26-1.94-5.44-2.27-10.84.43-16.16.06,5.62,2.2,7.05,8,5.57a20.42,20.42,0,0,0,5.91-2.88,25.61,25.61,0,0,1,16-4.38,2.91,2.91,0,0,0,2.48-.7l.31-.89c-.71.1-1.39-1-2.14-.06l.09,0c.85-.82,0-1.37-.52-1.57-5.41-2.1-10.7-4.65-16.91-3.65-1.16.18-3,.83-3.34-1.54-.42-3.37,3-8.74,6.74-9.94.31,2.34,1.39,4.49.57,7-.38,1.15-.59,3,1.9,2.86,1.75-.06,3.76.43,3.44-2.35a4.52,4.52,0,0,1,1.67-3.67l14.39.15a26.23,26.23,0,0,0,2.73,9.13c1.45,2.77,3.79,3.1,6.34,2.54,2.71-.6,3-2.84,2.74-5.08-.34-2.75-1.41-5.45-.75-8.29,11.25-2.42,22.36.45,33.51.95,4.16.18,8.22,2.1,12.33,3.23.57,1.18,1.17,1.19,1.79,0h0c2.22.2,2.55,2.63,2.08,3.16-2.22,2.46,1.14,1.9,1.49,2.87l.06,2.45c-.37,3.88-.12,7.77-.84,11.67-.55,3,0,6.27-.93,9.34-.33.61-.66,1.23-1,1.84-1.19-.17-2.48.27-3.59-.47,0-.28-.15-.42-.44-.42l-3.15-1.74,0,0c-.27-.88-1-.81-1.73-.72a19.63,19.63,0,0,1-5.62-3.58A2.74,2.74,0,0,0,1244.21,421.71ZM1220.8,408c-1.81,1.94-1.16,4.51-.08,6.79,1,2.05,2.65,2.64,5,2.83,9.91.8,17.47-2.36,22.43-10.72,2.25-3.79.7-7.32-3.93-7.92a54.34,54.34,0,0,0-6.23,0C1230.3,397.46,1225.55,402.88,1220.8,408Zm-15.68,1.86c-1.15-3.24-1.15-3.24-6.55-4C1200,408.67,1202.48,409.23,1205.12,409.84Z" transform="translate(0 0)"/><path class="cls-4" d="M1255.88,340.43c-9.68,1.05-18.21-2.9-27-5.54-5.73-1.72-11.42-3.57-17.13-5.36a8.39,8.39,0,0,1-.79,4.48q-5,13.39-9.94,26.79l17,2.59c5.23-5.56,10.56-11,15.65-16.7,2.94-3.28,5.46-3.19,7.76.73,1.39,2.35.82,4.64-.61,6.73-4.27,6.24-11.47,7.88-18.28,10.1,6.85,2.74,14.2,3.91,21.32,5.79,13.89,3.67,27.09,9,41.07,14.32-2.11-7.6-4.17-14.83-6.11-22.08-2-7.57-3.94-15.16-5.9-22.75C1267.28,340.71,1261.58,340.46,1255.88,340.43Z" transform="translate(0 0)"/><path class="cls-5" d="M1218.42,496.05c-.53-1.44-1.33-2.05-2.24-.34a27.62,27.62,0,0,0-2.54,5.78,232,232,0,0,0-7.45,47.88c-.13,2.76-.58,5.55-.87,8.32-.38,3.5,1.58,4.49,4.57,4.67,11.06.67,22.07-.8,33.12-.88,2,0,3.49-6,1.49-8.24-3.62-4-4-7.9-1.43-12.36,2.24-3.87,4.57-7.56,9.77-8.4,2.39-.38,1.82-2.6,1.57-3.63-.59-2.46,0-4.7.37-7-4.18-2.29-5.94-6.46-8.54-9.93-4.12-5.49-4.13-5.66-7.94,0-1.84,2.75-3.27,3.6-6,1-2-1.87-4.78-3-6.62-4.92C1222.38,504.51,1216.42,502.36,1218.42,496.05Z" transform="translate(0 0)"/><path class="cls-6" d="M1258.63,506.47c1.13,0,2.61.42,1.86,1.47-4,5.52-2.46,12.15-4.43,18.07-.57,1.7,1.62,2,3,2.51l34.64,13.08c.25-6.21-1.57-12-2-17.92-.55-7.14-3.2-13.86-4.45-20.87-.69-3.86-3.46-7.39-5.29-11.07-.82-1.63-2.16-3.1-1.67-5.1,0-.33-.16-.48-.51-.47-2.23.26-2.32-1.08-2.17-2.59l0,0c-2.13.1-1.93-1.27-1.83-2.57l0,0c-1.52.27-1.78-.64-1.83-1.74l.08,0c-3.62-.66-5.21-4-8.17-5.56-1.29-.69-2.1-1.47-3.38-.16-5.16,5.27-11.11,9.82-15.85,15.49-1.84,2.2-1.53,3.56.48,5.32,3.18,2.77,6.21,5.72,9.23,8.66,1,1,2.54,1.65,2.31,3.38Z" transform="translate(0 0)"/><path class="cls-4" d="M1139.75,393.8c-.3.05-.76,0-.85.18-.61,1,.45.64.79.67,3.74.22,7.38-.7,11.08-1,11.38-.9,22.48-3.56,33.7-5.46,13.42-2.28,26.86-5.48,40.62-4.43,15.66,1.19,31.15,3.35,46.29,7.81,8.34,2.46,16.4,5.84,25.06,7.35-.83-.55-1.72-1-2.48-1.66-3.76-3.08-9.22-4.68-10.12-10.26a140.79,140.79,0,0,0-36-11.71,203.51,203.51,0,0,1-20.74-2.7h-30.8c-6.24-.35-12.29.21-17.75,3.44,7.55-.34,14.8-3.82,22.69-1,5.91,2.12,12.42.56,19.9,1.2-13.47,2.86-25.82,5.18-38,8.14C1168.78,387.92,1154.2,390.57,1139.75,393.8Z" transform="translate(0 0)"/><path class="cls-3" d="M1265,557.39c1,.25.74,1,.7,1.62,2.36.35,4.92.28,6.4,2.58l1.77,0c2.57-1.77,5.49-.59,8.23-.85,6.32-6.58,6.35-8.91-1.1-15.89s-17-9.36-26.85-11.17c-3.13-.58-9.69,5.82-9.94,9.48-.14,2,0,3.94,0,6.48,2-2.84,1.94-6,4.43-8.24v3.94c1.82,3.32,6.25,4.67,7.28,8.58l1.1.78C1260.05,554.67,1262.13,557.11,1265,557.39Z" transform="translate(0 0)"/><path class="cls-7" d="M1201,360.8q5-13.4,9.94-26.79a8.39,8.39,0,0,0,.79-4.48l0,0c-1.54,0-2.9-.25-3.53-1.8-.1-.1-.19-.27-.31-.3-4-.92-7.77-5.89-12.07-.36-2.63,3.4-6.83,5.37-7.66,10.43-1.31,8-4,15.85-7,23.7C1188,359.78,1194.49,361.25,1201,360.8Z" transform="translate(0 0)"/><path class="cls-8" d="M1236.9,497.24a133.45,133.45,0,0,1,34.83-34.35c-20.72,1.36-38.54,8.91-54.57,20.6,6.27,4.13,13.13,7.54,18.12,13.24C1235.59,497.08,1236.35,497.07,1236.9,497.24Z" transform="translate(0 0)"/><path class="cls-4" d="M1231.52,587.92a21.16,21.16,0,0,0,18.13-2.65c7.71-4.95,15.41-9.92,23.16-15.33-6.78,2.94-11.85-1-16.73-3.82-5.31-3.09-10.52-1.07-15.65-.88-3.52.14-7.11.69-10.67.55-2.81-.1-3.82.89-3.52,3.43.54,4.54.43,9.15,1.67,13.61,0-1.4.16-2.8.08-4.18-.11-2,.9-2.55,2.91-2.73,2.85-.26,4.47.61,5.06,3.28C1236.68,582.48,1234.42,587,1231.52,587.92Z" transform="translate(0 0)"/><path class="cls-9" d="M1238.05,596.22c1.27,3.86,4.26,7,5.17,11,.65.21,1.53-.19,2.08.89h-3.17a.67.67,0,0,0-.68.09c-.79,2-3,2.07-4.5,2.25-3,.33-2.63,2-2.68,3.88-.06,2.34,1.56,2.32,3.3,2.32,2.54,0,5.08,0,7.63.06l16.19-.22c.59-.87,1.54-.67,2.4-.7,7-.28,7.35-.31,6.42-7a105.45,105.45,0,0,1-.79-11.6c0-.7-.07-1.4-1-1.59-.43.78-1.16.82-2,.69a.63.63,0,0,0-.67.09c-.35,2.52-2.45,1.42-3.86,1.59C1253.84,598.92,1246.05,596.25,1238.05,596.22Z" transform="translate(0 0)"/><path class="cls-10" d="M1325.17,418.75c-9.76-3.94-17.6-10.51-27.4-13.71-1.16-.39-2.81-2.05-3.13.8-.67,5.85-4.79,9-10,11.33-1,.43-2.67.18-2.45,1.91a2.82,2.82,0,0,0,2.25,2.41c13.12,2.24,26.25,4,39-1.44A11,11,0,0,0,1325.17,418.75Z" transform="translate(0 0)"/><path class="cls-7" d="M1139.75,393.8c14.45-3.23,29-5.88,43.43-9.39,12.16-3,24.51-5.28,38-8.14-7.48-.64-14,.92-19.9-1.2-7.89-2.84-15.14.64-22.69,1-1.93,1.4-4.5.72-6.54,1.77C1161.11,382.86,1150.32,388.13,1139.75,393.8Z" transform="translate(0 0)"/><path class="cls-10" d="M1218.42,496.05c-2,6.31,4,8.46,7.23,11.9,1.84,1.94,4.65,3.05,6.62,4.92,2.76,2.64,4.19,1.79,6-1,3.81-5.68,3.82-5.51,7.94,0,2.6,3.47,4.36,7.64,8.54,9.93.76-5.23,1.6-10.45,3.85-15.35v0c-6.36-2.95-9.84-8.82-15.27-13-3.78,3-5.89,7.45-8.51,11.46-1.75,2.69-2.84,2.43-5,.47C1226.25,502.09,1223.34,498,1218.42,496.05Z" transform="translate(0 0)"/><path class="cls-8" d="M1195.11,553.47c-2.64-4.36-1.69-9.2-1-13.59.88-5.84.28-11.71,1.32-17.55.53-2.92,1.69-6,.87-9.6-2.14,3.94-3.83,7.68-6.1,11.07-4.28,6.39-9,12.53-15,17.59-2.21,1.85-2.7,3.2.55,4.47,6.41,2.51,12.07,6.58,19,8.15A6.17,6.17,0,0,1,1195.11,553.47Z" transform="translate(0 0)"/><path class="cls-11" d="M1202.64,609.87a3,3,0,0,0-.79,0c-1.85,2.45-5.8,2.06-7.39,4.87,6.39.07,12.78.17,19.17.2a4.85,4.85,0,0,0,2.55-.5c5.18-3.44,11.28-4.87,17-7.1,0-3.66,0-7.32.07-11l-23.31,0c1,3.65,3.91,6.42,5.38,9.87.66.3,1.81-.37,2,.91Z" transform="translate(0 0)"/><path class="cls-12" d="M1213.73,394.72c11.25-2.42,22.36.45,33.51.95,4.16.18,8.22,2.1,12.33,3.23l1.79,0h0c-.84-1.74,1.54-1.5,1.78-2.57a5.22,5.22,0,0,1-.94-3.19c-5.17-3.11-11.28-3.17-17-4.22-9.43-1.72-19-3.07-28.68-2.82a16.06,16.06,0,0,0-6.88,1.26C1210.65,390,1213.29,391.84,1213.73,394.72Z" transform="translate(0 0)"/><path class="cls-13" d="M1212.42,585.34c.36.41.91.76,1.06,1.24,2.1,6.34,2.08,6.34,8.9,6.34h10c-.08-.35-.09-.71-.17-.72-8.3-1.46-8.85-1.85-8.58-9.75.17-4.83-1-9.51-1-14.29,0-1.56-.66-2.37-2.39-2.36-2.7,0-5.4.05-8.1,0-2,0-2.82.26-2.35,2.63,1.12,5.61,3,11.14,2.7,17Z" transform="translate(0 0)"/><path class="cls-14" d="M1171.35,438.78c-.78-.09-1.54-.2-1.93-1s-1-1.75-2.23-.79l-1.3-1.22a1.11,1.11,0,0,0,.39-1.45c.27-.37.1-.57-.3-.69a1.15,1.15,0,0,1-.15-.7c-.34-3,.83-3.79,3.81-2.59,5.43,2.21,11,1.6,16.72,1.05s11.55-1.06,17.28-2c1.25-.2,3-.54,3.72.77.8,1.49-.63,2.53-1.59,3.59-2.65,2.91-6,5.09-9.22,7.32A69.78,69.78,0,0,1,1171.35,438.78Zm11.86-2a7.36,7.36,0,0,0,7.73,1.52c.49-.17,1-.76.4-1.31-1.84-1.78-4.22-1.76-6.61-1.65-.69,0-1.38.1-2.28.16A5.77,5.77,0,0,0,1183.21,436.77Zm-10.48-1.85c1.46,2.62,3.9,3.2,6.76,2.79.25,0,.67-.82.59-.9-1.94-2-4.44-2.43-7.07-2.29C1172.85,434.74,1172.7,434.87,1172.73,434.92Z" transform="translate(0 0)"/><path class="cls-3" d="M1227.12,372.6a203.51,203.51,0,0,0,20.74,2.7l5.84-.31c-18-5.78-35.4-10.41-53.57-11.78-2.27,2.51-2.74,5.68-3.56,8.72,2.15-.5,4.34-.16,6.57-.62C1211.2,369.65,1219.2,370.87,1227.12,372.6Z" transform="translate(0 0)"/><path class="cls-15" d="M1196.57,371.93c.82-3,1.29-6.21,3.56-8.72a53.89,53.89,0,0,0-13.81-1.6,2.24,2.24,0,0,0-.45,0c-2.42.58-14.71,13.53-15,15.91a9.81,9.81,0,0,0,1.21.29c2-1.05,4.6-.37,6.53-1.77,5.46-3.23,11.51-3.79,17.75-3.44A1.93,1.93,0,0,0,1196.57,371.93Z" transform="translate(0 0)"/><path class="cls-16" d="M1164.07,412.44c.06,5.62,2.2,7.05,8,5.57a20.42,20.42,0,0,0,5.91-2.88,25.61,25.61,0,0,1,16-4.38,2.91,2.91,0,0,0,2.48-.7c-.67-.22-1.61,0-1.83-.95l.09,0c-5.48-2.12-10.76-4.38-17.11-3.6-5.17.64-9.41,2.18-12.66,6l-.9.91Z" transform="translate(0 0)"/><path class="cls-17" d="M1197.37,551.48a10.49,10.49,0,0,0,1.38,1.58c1.11.83,1.82,2.84,3.32,2.33s.48-2.45.72-3.74A246.88,246.88,0,0,0,1206.4,526c.32-4.13-2.29-7.07-4.5-10.19-.2.2-.57.37-.59.59C1199.9,528.08,1197.32,539.65,1197.37,551.48Z" transform="translate(0 0)"/><path class="cls-7" d="M1222.52,364.25c6.81-2.22,14-3.86,18.28-10.1,1.43-2.09,2-4.38.61-6.73-2.3-3.92-4.82-4-7.76-.73-5.09,5.67-10.42,11.14-15.65,16.7C1219.26,364.81,1221,363.84,1222.52,364.25Z" transform="translate(0 0)"/><path class="cls-14" d="M1271.39,403.19l3.42,8.27c1.4.82,2.36,1.84,1.86,3.54l0-.06c7.6.2,13.36-2.79,15.07-8.08.69-2.11,1.71-4.6-2.36-5.08-1.68-.2-3.25-1.13-5.67-2,2,2.82-.65,4.51-.69,6.71,1.56.36,3.34-.48,5.66,1.22-2.73.39-4.55,1.51-6.23-.67a4.57,4.57,0,0,1-2.22-2.18l0,.05c-1.56-1.11-1.52-2.8-2-4.37s-.48-3.85-3.36-3.42l4.41,14.94c-2.48-.79-2.69-2.67-3.68-4-1.58-2.12-1.67-5-4.18-6.63C1271.42,402,1271.4,402.59,1271.39,403.19Z" transform="translate(0 0)"/><path class="cls-18" d="M1236.9,497.24c-.55-.17-1.31-.16-1.62-.51-5-5.7-11.85-9.11-18.12-13.24-4.56,3.79-4.74,4,.17,7.34,4.32,2.9,7.38,7.1,12,9.63,2.09,1.15,4,2.46,5.44-.7A12.57,12.57,0,0,1,1236.9,497.24Z" transform="translate(0 0)"/><path class="cls-12" d="M1188.31,555.53c-3.45-3.36-8.64-3.95-12.35-6.91-.62-.5-1.34-.77-1.85,0-.91,1.46-1.7,3-.36,4.63,3.48,4.33,6.71,8.84,11.47,12.08a3.23,3.23,0,0,1,.59-.51,5.14,5.14,0,0,1,3.5-1.64l0,0,2.77-1.87C1191.39,559.1,1189.42,557.56,1188.31,555.53Z" transform="translate(0 0)"/><path class="cls-19" d="M1265.8,579.5c-7.6,4.59-13.8,9.87-22.77,13.34,7.07,0,12.89.14,18.69-.06,2.82-.09,4.55-1.43,4.15-4.6A74.55,74.55,0,0,1,1265.8,579.5Z" transform="translate(0 0)"/><path class="cls-8" d="M1207.87,478a63.75,63.75,0,0,1-17.45.1c1.33,6.12,6.36,9.54,10.93,13.88C1202.71,486.79,1206,482.72,1207.87,478Z" transform="translate(0 0)"/><path class="cls-12" d="M1188.28,396.27l14.39.15c.31-2.75-.41-5.65,2.36-8.76-5.77,1-10.48,2.16-15.35,2.25-1,0-2.59.7-1.63,2.63C1188.58,393.59,1188.23,395,1188.28,396.27Z" transform="translate(0 0)"/><path class="cls-4" d="M1202.78,508.21c1.16,2.85,2.32,5.69,3.58,8.8,4.89-10.6,4.82-16.76-.09-23.25C1204.64,498.48,1202.9,503.17,1202.78,508.21Z" transform="translate(0 0)"/><path class="cls-14" d="M1255.92,554c-1-3.91-5.46-5.26-7.28-8.58-2,4-1.67,8.25-1.75,12.49-.06,2.81,2.91,2.21,4.29,3.39.89.76,1.43-1.31,2-2.15C1254.19,557.46,1255,555.68,1255.92,554Z" transform="translate(0 0)"/><path class="cls-7" d="M1231.52,587.92c2.9-.9,5.16-5.44,4.44-8.72-.59-2.67-2.21-3.54-5.06-3.28-2,.18-3,.72-2.91,2.73.08,1.38,0,2.78-.08,4.18C1227.93,585.27,1227.69,587.87,1231.52,587.92Z" transform="translate(0 0)"/><path class="cls-18" d="M1197.37,551.48c0-11.83,2.53-23.4,3.94-35.08,0-.22.39-.39.59-.59l-1.41-5.27c-2.48,1.72-1.71,4.42-1.94,6.2-1.39,10.54-2.08,21.16-2.92,31.77C1195.53,549.69,1194.83,551.52,1197.37,551.48Z" transform="translate(0 0)"/><path class="cls-7" d="M1283.84,387c.9,5.58,6.36,7.18,10.12,10.26.76.62,1.65,1.11,2.48,1.66,2,1,3.66,2.83,6.87,2.11-3.81-4.57-8.71-7.41-13.26-10.55C1288.14,389.17,1287,386.48,1283.84,387Z" transform="translate(0 0)"/><path class="cls-10" d="M1130,398.54c9.16.39,18.32.59,27.47-1a29.11,29.11,0,0,1,12.42.26c1.12.29,2.49.69,3-.81.3-.87.62-2.14.18-2.74-.63-.86-1.86-.14-2.87.06C1157,396.87,1143.5,397.72,1130,398.54Z" transform="translate(0 0)"/><path class="cls-14" d="M1188.31,555.53c1.11,2,3.08,3.57,3.72,5.87l1.24-.32c.49-.61.85-1.5,2-.88l-1.37,1.43c-.06.25-.12.51-.2.76,1.53.8,3.54,1.11,3.76,3.24,5.08-.27,2.81-4.4,4-6.75a1.39,1.39,0,0,0-.85-.62c-4.19.25-7.43-2.27-11.17-3.33C1189.1,554.86,1188.66,555.32,1188.31,555.53Z" transform="translate(0 0)"/><path class="cls-20" d="M1245.17,617.35l-26.63,0a.79.79,0,0,0,.15-.72c4.8-2.44,9.44-5.19,14.68-6.8l1.06-1c2.45.83,4.6-1.22,7-.64-.79,2-3,2.07-4.5,2.25-3,.33-2.63,2-2.68,3.88-.06,2.34,1.56,2.32,3.3,2.32,2.54,0,5.08,0,7.63.06C1245.18,616.94,1245.17,617.14,1245.17,617.35Zm-13.88-.71c1.19,0,2.08-.4,2.07-1.66,0-1,.16-2.18-.37-2.82-.82-1-1.9.08-2.76.45-2.11.93-4.14,2-6.21,3,.08.33.17.66.25,1Z" transform="translate(0 0)"/><path class="cls-17" d="M1210.93,483.68c4.69-2,7.9-5.87,12.1-8.49a5.39,5.39,0,0,0,1.69-1.49c-4.16.34-9-2.09-12.07,2.95C1213,479.2,1211.08,481.25,1210.93,483.68Z" transform="translate(0 0)"/><path class="cls-14" d="M1265,557.39c-2.9-.28-5-2.72-8-2.65-.77,1.76-1,3.7-2.44,5.26-.73.8-1.52,1.81.27,2.86,1.4.83,2.21,1.57,3.69.12C1260.56,561,1262.85,559.24,1265,557.39Z" transform="translate(0 0)"/><path class="cls-3" d="M1271.43,401.4c2.51,1.58,2.6,4.51,4.18,6.63,1,1.33,1.2,3.21,3.68,4l-4.41-14.94c-2.23-1.23-4.32-2.22-3.51,1.8.1.08.3.18.29.24a3,3,0,0,1-.23.63Z" transform="translate(0 0)"/><path class="cls-7" d="M1255.88,340.43c5.7,0,11.4.28,17-.9-3.82-2.1-8.07-.35-12.16-1.23-4.8-1-10-.45-16.14-1.77C1248.61,339.91,1252.77,338.65,1255.88,340.43Z" transform="translate(0 0)"/><path class="cls-14" d="M1272.13,561.59c-1.48-2.3-4-2.23-6.4-2.58-1.4,1.21-2.9,2.34-4.17,3.67-.63.66-2.5,1.11-1.18,2.53a2.76,2.76,0,0,0,3.28.32,35.75,35.75,0,0,1,8.48-3.16l-.05.06C1272.1,562.15,1272.12,561.87,1272.13,561.59Z" transform="translate(0 0)"/><path class="cls-12" d="M1197.43,565.63c-.22-2.13-2.23-2.44-3.76-3.24-1.56-.13-2.74,1.47-4.41.88l0,0c-.09,2.59-2.17,1.41-3.5,1.64a3.23,3.23,0,0,0-.59.51C1188.57,569.33,1192.18,569.41,1197.43,565.63Z" transform="translate(0 0)"/><path class="cls-14" d="M1282.13,560.78c-2.74.26-5.66-.92-8.23.85-.44.6-.69,1.57-1.81.8l.05-.06c-.34,3.81-4.64,2.9-6.86,5.21C1272.14,567.38,1277.79,565.55,1282.13,560.78Z" transform="translate(0 0)"/><path class="cls-17" d="M1206.54,487.82c1.26,3.74,2.49,7.49,4.82,10.78,3.54-6.17,3.54-6.17-3.09-11.69A1.62,1.62,0,0,1,1206.54,487.82Z" transform="translate(0 0)"/><path class="cls-20" d="M1238.05,596.22c8,0,15.79,2.7,23.86,1.73,1.41-.17,3.51.93,3.86-1.59a219.34,219.34,0,0,1-23.63-.81C1240.85,595.42,1239.17,594.74,1238.05,596.22Z" transform="translate(0 0)"/><path class="cls-7" d="M1202.78,508.21c.12-5,1.86-9.73,3.49-14.45-.31-1.18-.62-2.37-1-3.73C1200.48,500.18,1200,504.08,1202.78,508.21Z" transform="translate(0 0)"/><path class="cls-17" d="M1276,538.39c3.48,2.18,7,4.34,10.44,6.55,1.84,1.19,2.15-.25,2.85-1.29,1.31-1.92-.48-1.31-1.36-1.68-3.68-1.54-7.17-3.51-11.21-4.2Z" transform="translate(0 0)"/><path class="cls-9" d="M1210,596.4l23.31,0a.76.76,0,0,0,.29-.75c-7.07-1.45-14.25-1-21.4-1C1210.88,594.59,1209.68,594.7,1210,596.4Z" transform="translate(0 0)"/><path class="cls-18" d="M1206.54,487.82a1.62,1.62,0,0,0,1.73-.91l2.66-3.23c.15-2.43,2.11-4.48,1.72-7C1209.13,479.66,1206.48,483.09,1206.54,487.82Z" transform="translate(0 0)"/><path class="cls-1" d="M1234.57,606.52c4.59-.52,5-1.14,3.06-4.77-.76-1.39-.94-3.33-3.06-3.78A30.61,30.61,0,0,0,1234.57,606.52Z" transform="translate(0 0)"/><path class="cls-9" d="M1194.46,614.75c1.59-2.81,5.54-2.42,7.39-4.87-4.73-.24-8,2.87-11.85,5.06Z" transform="translate(0 0)"/><path class="cls-9" d="M1202.64,609.87l14.71-2.69c-.21-1.28-1.36-.61-2-.91C1210.79,606.49,1206.44,607.32,1202.64,609.87Z" transform="translate(0 0)"/><path class="cls-14" d="M1280.2,404.83c.72-.5,1.67-.49,2.2-1.5.92-1.73-.48-2.79-.93-4.11a2,2,0,0,0-1.55-.08c-1,1.07-.62,2.25,0,3.42.37.71.81,1.47.33,2.32Z" transform="translate(0 0)"/><path class="cls-18" d="M1245.2,616.73c0,.21,0,.41,0,.62,5.47,0,10.95.1,16.42.12.36,0,1-.23,1-.36,0-.82-.85-.32-1.23-.6Z" transform="translate(0 0)"/><path class="cls-17" d="M1234.57,606.52a30.61,30.61,0,0,1,0-8.55c-.56-.7.89-2.17-1-2.35a.76.76,0,0,1-.29.75c0,3.66,0,7.32-.07,11l.18,2.5,1.06-1C1234.48,608.08,1234.52,607.3,1234.57,606.52Z" transform="translate(0 0)"/><path class="cls-14" d="M1200.16,568.41a11.12,11.12,0,0,0,7.26-2.37c-3.29-.2-6.07-1.18-7.84,1.8A3.48,3.48,0,0,1,1200.16,568.41Z" transform="translate(0 0)"/><path class="cls-17" d="M1276.69,537.77a4.72,4.72,0,0,0-4.68-1.37l4,2Z" transform="translate(0 0)"/><path class="cls-4" d="M1208.2,327.7c.63,1.55,2,1.82,3.53,1.8C1210.94,328.23,1209.61,327.9,1208.2,327.7Z" transform="translate(0 0)"/><path class="cls-20" d="M1242.13,608.13h3.17c-.55-1.08-1.43-.68-2.08-.89C1242.86,607.54,1242.5,607.84,1242.13,608.13Z" transform="translate(0 0)"/><path class="cls-11" d="M1218.69,616.65c-.48,0-1.1-.25-1.1.54a4.76,4.76,0,0,0,1,.18A.79.79,0,0,0,1218.69,616.65Z" transform="translate(0 0)"/><path class="cls-7" d="M1304.38,402.18c-.13.17-.27.33-.4.49a5.28,5.28,0,0,0,.75.29c.06,0,.18-.2.28-.31Z" transform="translate(0 0)"/><path class="cls-8" d="M1194.63,554c.28.57.9,1,1.29.48s-.45-.72-.82-1C1194.94,553.64,1194.78,553.82,1194.63,554Z" transform="translate(0 0)"/><path class="cls-14" d="M1199.58,567.84c-.32.34-1.28.5-.74,1.09s1.05.08,1.32-.52A3.48,3.48,0,0,0,1199.58,567.84Z" transform="translate(0 0)"/><path class="cls-20" d="M1266.44,596.27c.8.13,1.53.09,2-.69A1.66,1.66,0,0,0,1266.44,596.27Z" transform="translate(0 0)"/><path class="cls-3" d="M1164.06,412.45l.9-.91Z" transform="translate(0 0)"/><path class="cls-14" d="M1271.43,399.76a3,3,0,0,0,.23-.63c0-.06-.19-.16-.29-.24Z" transform="translate(0 0)"/><path class="cls-21" d="M1195.66,454c5.94-.15,11.93.55,17.77-1.43,1.69-.58,2.43-.74,2-2.67-1.63-6.54-1.49-6-9.27-5.47a150.54,150.54,0,0,1-27.35-.2c-2.92-.33-3,.67-3,2.6.14,3.87,4,7,9.07,7.15C1188.46,454.06,1192.06,454,1195.66,454Z" transform="translate(0 0)"/><path class="cls-21" d="M1214.73,468.37a9.76,9.76,0,0,0,2.23,0c1.74-.45,4.46,1.34,5.12-1.39.48-2-4.45-6.34-6.57-6a129.41,129.41,0,0,1-15.86,1.55c-.71,0-1.66-.07-1.8.82s.81,1.26,1.6,1.68C1205.38,468,1206.77,468.37,1214.73,468.37Z" transform="translate(0 0)"/><path d="M1265,407.43c-.37,3.88-.12,7.77-.84,11.67-.55,3,0,6.27-.93,9.34,1.54-1.17,1.67-2.78,1.73-4.5a64.84,64.84,0,0,1,2-15.53C1267.39,406.78,1265.83,407.43,1265,407.43Z" transform="translate(0 0)"/><path d="M1263.13,396.38c-.24,1.07-2.62.83-1.78,2.57,2.22.2,2.55,2.63,2.08,3.16-2.22,2.46,1.14,1.9,1.49,2.87C1266.44,401.72,1265,399,1263.13,396.38Z" transform="translate(0 0)"/><path d="M1237.67,432.33l-4.19,9.41C1236.29,439.52,1238.28,437,1237.67,432.33Z" transform="translate(0 0)"/><path d="M1239.07,460.41c-1.26-2.34-3.29-3.5-6.54-3.84a12,12,0,0,0,6.23,4.24A3.9,3.9,0,0,0,1239.07,460.41Z" transform="translate(0 0)"/><path d="M1223.39,434.57c-2.56-.29-4.38,1.12-6.24,2.43C1219.69,437.24,1221.54,435.92,1223.39,434.57Z" transform="translate(0 0)"/><path d="M1262.21,430.28c-1.19-.17-2.48.27-3.59-.47-.33,1.1,0,1.86,1.29,2S1262.22,431.81,1262.21,430.28Z" transform="translate(0 0)"/><path d="M1244.28,421.75c-1.08-2.27-1.36-2.26-4.14,0Z" transform="translate(0 0)"/><path d="M1247.71,423.37a2.74,2.74,0,0,0-3.5-1.66A4.1,4.1,0,0,0,1247.71,423.37Z" transform="translate(0 0)"/><path d="M1276.67,415c.5-1.7-.46-2.72-1.86-3.54A4.1,4.1,0,0,0,1276.67,415Z" transform="translate(0 0)"/><path d="M1258.18,429.39l-3.15-1.74C1255.06,429.88,1256.66,429.56,1258.18,429.39Z" transform="translate(0 0)"/><path d="M1239.7,422.18l-1.69,2C1239.53,424.24,1240.12,423.58,1239.7,422.18Z" transform="translate(0 0)"/><path d="M1238.76,460.81c.28.49.86.95,1.2.44s-.49-.62-.89-.83C1239,460.55,1238.87,460.68,1238.76,460.81Z" transform="translate(0 0)"/><path d="M1255.06,427.67c-.27-.88-1-.81-1.73-.72C1253.68,427.67,1254.17,428.1,1255.06,427.67Z" transform="translate(0 0)"/><path class="cls-16" d="M1238,398.92c-7.69-1.46-12.44,4-17.19,9.06-1.81,1.94-1.16,4.51-.08,6.79,1,2.05,2.65,2.64,5,2.83,9.91.8,17.47-2.36,22.43-10.72,2.25-3.79.7-7.32-3.93-7.92A54.34,54.34,0,0,0,1238,398.92Z" transform="translate(0 0)"/><path d="M1198.57,405.83c1.43,2.84,3.91,3.4,6.55,4C1204,406.6,1204,406.6,1198.57,405.83Z" transform="translate(0 0)"/><path d="M1194.64,409.1c.22,1,1.16.73,1.83.95l.31-.89C1196.07,409.26,1195.39,408.12,1194.64,409.1Z" transform="translate(0 0)"/><path d="M1164.91,432.79c-.62,1.27.26,2.12,1,3a1.11,1.11,0,0,0,.39-1.45.51.51,0,0,1-.3-.69,1.15,1.15,0,0,1-.15-.7Z" transform="translate(0 0)"/><path d="M1261.36,398.94l-1.79,0C1260.14,400.08,1260.74,400.09,1261.36,398.94Z" transform="translate(0 0)"/><path d="M1279.71,486.17c-.15-.57-.3-1.13-.44-1.7l-1.73-.89C1277.39,485.09,1277.48,486.43,1279.71,486.17Z" transform="translate(0 0)"/><path d="M1277.57,483.61a2.51,2.51,0,0,0-1.83-2.57C1275.64,482.34,1275.44,483.71,1277.57,483.61Z" transform="translate(0 0)"/><path d="M1275.77,481.07c-.2-1,0-2.26-1.83-1.74C1274,480.43,1274.25,481.34,1275.77,481.07Z" transform="translate(0 0)"/><path d="M1196.57,371.93a1.93,1.93,0,0,1-.25.68h30.8c-7.92-1.73-15.92-3-24-1.29C1200.91,371.77,1198.72,371.43,1196.57,371.93Z" transform="translate(0 0)"/><path d="M1272.09,562.43c1.12.77,1.37-.2,1.81-.8l-1.77,0C1272.12,561.87,1272.1,562.15,1272.09,562.43Z" transform="translate(0 0)"/><path d="M1182.45,435.49a5.77,5.77,0,0,0,.76,1.28,7.36,7.36,0,0,0,7.73,1.52c.49-.17,1-.76.4-1.31-1.84-1.78-4.22-1.76-6.61-1.65C1184,435.36,1183.35,435.43,1182.45,435.49Z" transform="translate(0 0)"/><path d="M1173,434.52c-.16.22-.31.35-.28.4,1.46,2.62,3.9,3.2,6.76,2.79.25,0,.67-.82.59-.9C1178.14,434.82,1175.64,434.38,1173,434.52Z" transform="translate(0 0)"/><path d="M1167.19,437l.57.75,1.66,0C1168.89,437,1168.42,436.06,1167.19,437Z" transform="translate(0 0)"/><path class="cls-3" d="M1166,433.66a.51.51,0,0,0,.3.69C1166.55,434,1166.38,433.78,1166,433.66Z" transform="translate(0 0)"/><path d="M1282.42,407c1.68,2.18,3.5,1.06,6.23.67-2.32-1.7-4.1-.86-5.66-1.22A3.29,3.29,0,0,0,1282.42,407Z" transform="translate(0 0)"/><path d="M1185.81,564.87c1.33-.23,3.41,1,3.5-1.64A5.14,5.14,0,0,0,1185.81,564.87Z" transform="translate(0 0)"/><path d="M1189.26,563.27c1.67.59,2.85-1,4.41-.88.08-.25.14-.51.2-.76a2.87,2.87,0,0,1-.6-.55l-1.24.32Z" transform="translate(0 0)"/><path d="M1193.87,561.63l1.37-1.43c-1.12-.62-1.48.27-2,.88A2.87,2.87,0,0,0,1193.87,561.63Z" transform="translate(0 0)"/><path class="cls-9" d="M1224.27,616.64h7c1.19,0,2.08-.4,2.07-1.66,0-1,.16-2.18-.37-2.82-.82-1-1.9.08-2.76.45-2.11.93-4.14,2-6.21,3C1224.1,616,1224.19,616.3,1224.27,616.64Z" transform="translate(0 0)"/><path d="M1206.67,398.75a1.5,1.5,0,0,0,0-3,1.5,1.5,0,0,0,0,3Z" transform="translate(0 0)"/><path d="M1208.24,395.62a2,2,0,0,0-.77.45,1.35,1.35,0,0,0-.31.41,1.55,1.55,0,0,0-.19.48,3.62,3.62,0,0,0-.06.46.28.28,0,0,0,0,.09,5.3,5.3,0,0,1,0,.69l.06-.4a.57.57,0,0,1,0,.14l.15-.36a.2.2,0,0,1,0,.08l.23-.3,0,.05.3-.23-.08,0,.36-.15-.09,0,.4,0H1208l.4,0-.09,0,.36.15-.12-.07.3.23a.94.94,0,0,1-.1-.1l.23.3a1.18,1.18,0,0,1-.11-.19l.15.36a3.52,3.52,0,0,1-.11-.49,2.92,2.92,0,0,0-.21-.56,2,2,0,0,0-.37-.5,1,1,0,0,0-.48-.31,1.15,1.15,0,0,0-.58-.13,1.72,1.72,0,0,0-1.06.44l-.23.3a1.48,1.48,0,0,0-.21.76l.06.4a1.57,1.57,0,0,0,.38.66l0,.05-.24-.3a.67.67,0,0,1,.09.14l-.15-.35a2,2,0,0,1,.09.35l0,.19a3.17,3.17,0,0,0,.2.51,1.29,1.29,0,0,0,.09.16l.27.35.07.07c.11.09.23.19.35.27l.08,0a1.93,1.93,0,0,0,.88.24,1.77,1.77,0,0,0,1-.27,2.11,2.11,0,0,0,.64-.67,2.06,2.06,0,0,0,.25-.94v-.24a3.25,3.25,0,0,1,0-.54l-.05.4a.35.35,0,0,1,0-.13l-.15.36a.25.25,0,0,1,0-.07l-.23.3,0-.06-.3.24.07,0-.36.15h0a1.26,1.26,0,0,0,.51-.27,1.18,1.18,0,0,0,.38-.42,1.12,1.12,0,0,0,.18-.56,1,1,0,0,0,0-.6l-.15-.36a1.45,1.45,0,0,0-.54-.53l-.35-.16a1.55,1.55,0,0,0-.8,0Z" transform="translate(0 0)"/><path d="M1207.11,397.12a1.5,1.5,0,0,0,0-3,1.5,1.5,0,0,0,0,3Z" transform="translate(0 0)"/><path d="M1206,395.47a11.06,11.06,0,0,0-.53,1.39,10.41,10.41,0,0,0-.26,1.48l0,.4a1.26,1.26,0,0,0,.27.51.75.75,0,0,0,.27.26,1,1,0,0,0,.51.27,1.8,1.8,0,0,0,.8,0,1.06,1.06,0,0,0,.51-.27,1,1,0,0,0,.38-.42,6.24,6.24,0,0,0,.45-1.18,6.94,6.94,0,0,0,.18-1.27,1.15,1.15,0,0,0-.13-.58,1.08,1.08,0,0,0-.31-.48,1.14,1.14,0,0,0-.48-.31,1.08,1.08,0,0,0-.58-.13,1.5,1.5,0,0,0-1.06.44,1.61,1.61,0,0,0-.44,1.06l0,.38.05-.4a4.93,4.93,0,0,1-.31,1.14l.15-.36a1.42,1.42,0,0,1-.08.18l2.8.76a.88.88,0,0,1,0-.16l-.06.4a7.57,7.57,0,0,1,.48-1.75l-.15.36.09-.21a1.73,1.73,0,0,0,.16-1.16,1.57,1.57,0,0,0-.69-.89,1.47,1.47,0,0,0-1.16-.15,1.46,1.46,0,0,0-.9.69Z" transform="translate(0 0)"/><path d="M1205.61,396l.07,1,0,.4a1.26,1.26,0,0,0,.27.51,1.43,1.43,0,0,0,.78.54,1.8,1.8,0,0,0,.8,0,1.59,1.59,0,0,0,.9-.69,4.54,4.54,0,0,0,.6-1.92,4.47,4.47,0,0,0-.07-1,2.55,2.55,0,0,0-.3-.88,3.07,3.07,0,0,0-.38-.51,2.19,2.19,0,0,0-.48-.37,1.89,1.89,0,0,0-1.87,0,1.47,1.47,0,0,0-.48.38,2.19,2.19,0,0,0-.37.53,4.06,4.06,0,0,0-.34,1,4,4,0,0,0,.16,2.18,1.14,1.14,0,0,0,.27.51,1.31,1.31,0,0,0,.42.39,1.62,1.62,0,0,0,1.16.15,1.55,1.55,0,0,0,.9-.69l.15-.36a1.55,1.55,0,0,0,0-.8,2.41,2.41,0,0,1-.18-.65l0,.4a3.21,3.21,0,0,1,0-.62l0,.4a2.41,2.41,0,0,1,.18-.65l-.16.36a2.69,2.69,0,0,1,.16-.29l-.23.3.11-.11-.31.24.07,0-.36.15.1,0-.39,0h.09l-.39,0,.12,0-.36-.15.12.07-.3-.23a.75.75,0,0,1,.15.16l-.23-.31a1.83,1.83,0,0,1,.13.24l-.15-.36a1.65,1.65,0,0,1,.1.44l0-.39a2.42,2.42,0,0,1,0,.71l.06-.4a2.73,2.73,0,0,1-.2.69l.15-.36a2,2,0,0,1-.18.36l2.79.76-.07-1a1.66,1.66,0,0,0-.44-1.06,1.52,1.52,0,0,0-1.06-.44,1.5,1.5,0,0,0-1.06.44,1.47,1.47,0,0,0-.44,1.06Z" transform="translate(0 0)"/><path d="M1208.72,397.64c.09-.5.17-1,.25-1.5a5.94,5.94,0,0,0,.1-2.06,2.21,2.21,0,0,0-1.14-1.49,3,3,0,0,0-1.92-.23,3.11,3.11,0,0,0-2.28,2.26,7.1,7.1,0,0,0-.25,1.52,2.94,2.94,0,0,0,0,.89,2.12,2.12,0,0,0,.9,1.27,1.88,1.88,0,0,0,2.72-.68,3.45,3.45,0,0,0,.3-1,7.55,7.55,0,0,0,.09-1.16,1.5,1.5,0,0,0-1.5-1.5,1.46,1.46,0,0,0-1.06.44,1.59,1.59,0,0,0-.44,1.06,4.84,4.84,0,0,1,0,.76l0-.4a3.25,3.25,0,0,1-.14.69l.15-.36a.64.64,0,0,1-.08.14l.23-.3s0,0-.06.06l.31-.24-.07,0,.36-.15-.07,0,.4-.06h-.11l.39.05-.14,0,.35.15a.46.46,0,0,1-.13-.08l.3.24-.08-.08.24.3a.41.41,0,0,1-.07-.11l.15.36a.86.86,0,0,1-.06-.23l0,.4a4.57,4.57,0,0,1,.06-.83l0,.4a4,4,0,0,1,.23-1l-.15.36a2.46,2.46,0,0,1,.25-.45l-.23.31a1.39,1.39,0,0,1,.26-.28l-.3.24a1.61,1.61,0,0,1,.28-.17l-.36.15a1.86,1.86,0,0,1,.39-.1l-.4.05a1.34,1.34,0,0,1,.4,0l-.4-.06a1.32,1.32,0,0,1,.3.08l-.36-.15a.67.67,0,0,1,.2.12l-.3-.24a1.85,1.85,0,0,1,.14.14l-.24-.3a.67.67,0,0,1,.09.14l-.15-.35a1.63,1.63,0,0,1,.07.26l-.06-.4a3.41,3.41,0,0,1-.05.78l.05-.4c-.08.65-.19,1.29-.3,1.92A1.67,1.67,0,0,0,1206,398a1.52,1.52,0,0,0,.9.69,1.5,1.5,0,0,0,1.84-1.05Z" transform="translate(0 0)"/><path class="cls-22" d="M1206.89,396.92a1.5,1.5,0,0,0,0-3,1.5,1.5,0,0,0,0,3Z" transform="translate(0 0)"/><path class="cls-22" d="M1184.2,395.9a1.5,1.5,0,0,0,0-3,1.5,1.5,0,0,0,0,3Z" transform="translate(0 0)"/></g></svg>