<svg xmlns="http://www.w3.org/2000/svg" xmlns:xlink="http://www.w3.org/1999/xlink" viewBox="0 0 1366 768"><defs><style>.cls-1{fill:#2e2e2e;}.cls-2{fill:#664d3f;}.cls-3{fill:#b4815f;}.cls-4{fill:#630;}.cls-5{fill:#693534;}.cls-6{fill:#633;}.cls-7{fill:#97572c;}.cls-8{fill:#924e44;}.cls-9{fill:#606060;}.cls-10{fill:#442f20;}.cls-11{fill:#1c1c1c;}.cls-12{fill:#7b5438;}.cls-13{fill:#232323;}.cls-14{fill:#9c6a48;}.cls-15{fill:#b2b2b2;}.cls-16{fill:#c8a480;}.cls-17{fill:#cbcbcb;}.cls-18{fill:#fbfbfb;}.cls-19{fill:#454445;}.cls-20{fill:#aba798;}.cls-21{fill:#8d6c57;}.cls-22{fill:#fffdec;}</style></defs><g id="Capa_7" data-name="Capa 7"><image width="626" height="375" transform="translate(0 0) scale(2.18 2.05)" xlink:href="../t1.jpg"/></g><g id="Capa_14" data-name="Capa 14"><path class="cls-1" d="M747.9,760a10,10,0,0,1-.09-1.09l2.19-.16A2,2,0,0,1,747.9,760Z" transform="translate(0 0)"/><path d="M461.19,463.51l1-1.08,17.16-16.65c7.24-6.62,13.9-14.13,21.89-19.56,6.21-4.22,9-9,8.84-16.18,1-5.91,3.14-11.61,3.38-17.68q2.6-8.87,5.18-17.71c1.55-5.59,4.28-10.84,4.41-16.83l7.44-.1c5.69-1.51,11.52-.55,17.27-1.07,5.54-1.69,11.5,0,17-2.22A92.35,92.35,0,0,0,582,350c9.19-3.54,17.92-8.26,27.32-11.29,1.41-.45,2.67-1.32,3.8,0,5,6,12.14,10.09,15,18,1.26,5.24,1.69,10.72,4.23,15.59l.09,2.17a125.51,125.51,0,0,0,6.15,17.86c2.84,6,4.89,12.68,11.77,15.36,1.76.86,3.25,2.37,5.36,2.4,3.52,2.94,7.82,4.37,11.76,6.48l17.27,8.89a20.28,20.28,0,0,0,7.43,3.38c2.27,3.54,6.13,4.26,9.52,5.81,1.23,1.42,3.53,1.69,4,3.76-6.69,4.65-14,5.54-21.9,5.17-5.4-.25-10.73-1.24-16.14-1.13-5.67-1.75-11.47-1.39-17.26-1.11-1.93-.7-4.53.43-4.62,1.41a5.67,5.67,0,0,0,2,5.17c.86.62,1.42,1.75,2.32,2.27,5,2.92,8.23,7.11,9,13.12,0,6.05-.1,12.11-2.14,17.91-1.6.59-.42,4.2-3.36,3.35.52-1.86,1-3.75,1.58-5.58,2.31-7.14,2.7-14.2-.51-21.19l0,0-1.07-1.19c-3.87-5-8.91-7-15.05-7.86-7.54-1-13.82,1.93-20.33,4.71-1-1.07,0-1.79.61-2.06,6.43-2.74,12.72-6.09,20.1-4.78,1.38.24,3.61,1.09,4-2,.5-4.42-3.54-11.45-8-13-.37,3.07-1.66,5.88-.69,9.15.45,1.52.71,3.88-2.25,3.76-2.08-.09-4.47.56-4.1-3.08a6.18,6.18,0,0,0-2-4.81c.06-1.65-.35-3.52.27-4.89,1.15-2.53-.72-3.43-1.93-3.46-5.79-.11-11.38-1.66-18.25-2.94,3.3,4.08,2.44,7.88,2.81,11.48a37.22,37.22,0,0,1-3.24,12c-1.72,3.63-4.51,4.07-7.54,3.33-3.22-.79-3.6-3.72-3.26-6.66.41-3.61,1.68-7.14.9-10.86.52-3.78,3.66-6.17,4.85-9.59-2.61-1.4-5.33-1.57-8.17-1.65-11.53-.33-22.88,1.44-34.09,3.7-6.79,1.37-14,1.46-20.19,5.53-8.37,2.15-8.45,2.23-9.56,11-.12,1-.39,1.75-1.37,2.08,0-.78,0-1.56-.05-2.34v-2.16l.07-1.13c1-5.27-1.52-4-4.17-2.35-3.43-.57-3.45,2.54-4,4.47s-.52,4.27-2.38,5.72c-.57-1.1,0-2.1.4-3,.73-1.54,1.19-3.08,0-4.48a2.08,2.08,0,0,0-1.84.11c-.54,1.72-2.2,3.12-1.11,5.38.64,1.32,1.76,1.31,2.62,2a5.77,5.77,0,0,1-2.64,2.87,4,4,0,0,0-.68-.73c0-2.89-3.13-5.1-.82-8.79-2.87,1.17-4.74,2.4-6.73,2.65-4.84.63-3.63,3.9-2.82,6.67,2,6.92,8.88,10.84,17.92,10.59-2.4,6.08-4.82,12.15-7.21,18.23a4.1,4.1,0,0,0,0,4C520.28,496,528.61,506.68,540.1,515c17.15,12.47,35.71,19.82,56.77,19.38,11.28-.24,20-6.6,28.34-13.95-20.76.44-40.77-.32-52.28-22.12,1.85.21,2.78,1.59,3.86,3.09a31.59,31.59,0,0,0,14.73,11c13.31,5.12,27.07,3,40.62,2.91,9.92-.08,14.46-7.11,13-17.18-.33-2.3-1.47-3.13-3.16-2.41-8.43,3.61-17.24,1.29-25.83,2.07-5.63.51-11-.8-16.11-2.66-2.91-1.06-7-1.14-8.44-5.23,7.91,3.09,15.77,6.44,24.53,5.46a75.39,75.39,0,0,0,30-3.07,24.89,24.89,0,0,0,5.29,12c.48.58,1.58,2.68.78,2.67-6.21-.08-.59,3.73-1.72,5.2-1.6-.1-1.72-2.07-3-2.9a12.64,12.64,0,0,1-5.66,7.4l-8.56,2.4c-1-.14-2.35-.6-3,.41-2.56,4.25-7.93,7.28-5.7,13.68h-1.81c-.51-1.2.4-2.74-1.08-4.2-.69,2.65-4.3,2.26-4.27,5.42-.28.77,0,1.89-1.13,2.16.07-2.21-1.71-2.7-2.8-2-4.53,3-10.08,1.22-14.87,3.69,5.33,4.3,11.35,4.35,17.5,3.8,4.54,1.1,8.3-1.89,12.74-3.09-2.18,4.79-4.14,9.06-6.09,13.33-2.28,3.22-5.4,5.83-6.68,9.79-3.12,1.8-4.25,4.4-3,8-.45,3.5,1.75,6,3,8.88a27.87,27.87,0,0,0,3.38,8.89,63.4,63.4,0,0,0,8.56,17.62c.75,3,2.74,5.1,5.09,6.86,4.07,3.52,9.08,5.95,11.74,11.07-.46,3.5,2.85,4.74,4.25,7.52-5.16,2-5.56,5.14-2,9.16.2.23.15.7.21,1.06-3.4,6.66-8.18,12.21-13.07,17.69l-1,1c-2.58,4.36-6,6.67-11.23,5.69-1.86-.36-3.87,0-5.81.1-3.63-.29-7.27,0-10.65-2.19-2.34-1.54-4-.27-4.41,2.68-.53,3.53-1.3,7-2,10.51-.46,2.67-.48,5.46-2,7.82-.43-7.64,1.87-14.88,3.2-22.23.56-3.11-.36-3.52-2.79-3.45-3.21.09-6.42.06-9.63,0-2,0-2.85,1-2.84,3.09.05,6.26-1.36,12.4-1.16,18.72.31,10.37-.34,10.87-10.19,12.78-.1,0-.12.48-.21,1h11.84c8.1,0,8.08,0,10.57-8.32.18-.62.83-1.08,1.26-1.62.81,3.18-2.68,7-.46,9.08s6.36.57,9.63,1c-3.69,4.41-5.51,9.91-8.56,15.06,5.43,1,10.23,2.73,15.13,4a33.66,33.66,0,0,1,13.47,7.68c1.9,1.7,2.72,3.23-.91,4.53-3.21,1.15-6.34.3-9.44,1-6.2,0-13.13-1.73-18.41.57s-10.46,2.05-15.69,2.76H547.79c-7.59.5-15-1.08-22.4-2.35-2.3-.4-2.24-1.26-1.84-3.32.78-4,1.06-8.22,1.55-12.34.22-5.88,2-11.66,1.07-17.63,1.08-2,3-.77,4.51-1.34,2.2-3.68.1-7.82,1.07-11.55,1.37-5.21-1.09-7.55-5.07-9.9-2.45-1.44-7.51-2.54-3.8-7.83.94-1.35-.92-1.6-1.73-2A31.91,31.91,0,0,1,505,641.06l4.23-6.81c-4.73-.09-6.86-6.67-11.89-4.26,0-1.13,0-2.25,0-3.38,1.8-.65,1-2.15,1-3.38,1.38-5.79,1.51-11.74,2.14-17.63l2.43-17.74,6.13-17.79q2.22-5.55,4.45-11.1l3.21-3.89c.58,2.63-1,4.55-2,6.68-2.18,4.83-5.47,9.45-6.29,14.51-1.49,9.19-4.63,18-5.29,27.36-.55,7.74-2.71,15.34-2.43,23.48,14-5.84,27.6-11.5,41.18-17.14,1.6-.67,4.2-1.07,3.53-3.3-2.35-7.75-.55-16.45-5.26-23.68-.9-1.37.86-2,2.2-1.92,2.68,6.42,3.67,13.26,4.58,20.12.4,3,1.14,6,.44,9.2-.3,1.36-1,4.27,1.87,4.77,6.18,1.09,8.94,5.93,11.6,11,3.06,5.85,2.6,11-1.7,16.21-2.36,2.87-.66,10.78,1.77,10.8,13.14.1,26.22,2,39.37,1.15,3.55-.24,5.88-1.53,5.43-6.12-.35-3.63-.88-7.29-1-10.9a333,333,0,0,0-8.84-62.75,38.32,38.32,0,0,0-3-7.58c-1.08-2.24-2-1.45-2.66.44-5.85,2.5-9.3,7.92-13.61,12.26-2.55,2.57-3.85,2.9-5.93-.62-3.12-5.26-5.62-11.07-10.11-15-6.45,5.5-10.59,13.19-18.15,17.06-.28-2.27,1.58-3.17,2.75-4.43,3.59-3.85,7.18-7.71,11-11.35,2.39-2.3,2.76-4.08.57-7C551,550.91,543.94,545,537.8,538c-1.52-1.71-2.49-.69-4,.21-3.52,2.08-5.41,6.42-9.71,7.29.92-4.2,4.42-6.41,7.23-8.7,3.29-2.68,1.94-3.47-.6-4.73-3.74-2.83-7.43-5.73-11.25-8.44-.9-.64-1.89-.92-1.64-2.32.36-2,1.9-1.07,3-1.31,3.35-.76,6.48,1.06,9.77.94l10.09,1.14c-8.28-7-16-14.18-22-23.25L513.5,490c-.5-3.36-2.58-5.91-4.16-8.72,2-1.91.06-4.54,2.47-7.22-6,1.67-10.54,3.09-15.37,2.85H479.18c-5.72-1.81-11.71-2.75-17-5.79C459.49,468.89,459.26,466.34,461.19,463.51ZM611.86,662.25c.31.78,1.06,1.27,1.56.67.64-.77-.5-1-.88-1.42-2.11-3.91-5.41-2.62-9.32-2.37A12.4,12.4,0,0,0,611.86,662.25ZM571,701c-2.52.6-2.74,3.14-3.64,5-2.36,4.76-1.82,5.57,3.64,6.25,0,1,.11,2,.16,3.06-2.91,1.1-5.46-1.59-8.34-.83a.71.71,0,0,0-.81-.11l-1.29-1.17c1.08-5.26,4.63-9.39,6.14-14.45-1.33-1.94-3.33-1.05-4.86-.87a237.34,237.34,0,0,1-28.08,1.06.7.7,0,0,0-.8-.12,1.89,1.89,0,0,0-2.33-.91c-1.12.25-1.19,1.17-1.21,2.09a151.75,151.75,0,0,1-.93,15.19c-1.11,8.82-.72,8.87,7.62,9.24,1,0,2.15-.23,2.85.91-.45.37-1.47-.29-1.46.8,0,.16.8.46,1.23.46,6.5,0,13-.1,19.51-.16l31.64,0a5.16,5.16,0,0,0,1.14-.24c0-1-.74-.72-1.31-.7-5.71-3.19-11.22-6.81-17.44-8.91l.21-3.29c6.81,2.93,14.06,4.81,20.21,9.31a5.3,5.3,0,0,0,3,.66c7.59,0,15.19-.17,22.78-.27l5.31.26c-4.6-2.87-8.47-7-14.09-6.64a3.22,3.22,0,0,0-.93,0c-4.52-3.34-9.69-4.42-15.09-4.72,1.75-4.51,5.15-8.15,6.4-12.93.32-2.22-1.11-2.37-2.62-2.36-8.5.07-17-.56-25.43,1.34C569.9,698.14,571.62,700.07,571,701ZM520.9,622.1c-4.8.9-8.95,3.47-13.33,5.49-1,.48-3.16-.3-1.61,2.21.83,1.36,1.2,3.24,3.39,1.69,4.11-2.91,8.27-5.73,12.4-8.59l4.71-2.61C523.78,619.63,522.29,620.73,520.9,622.1Zm81.31-66.67c-7.88,7.24-7.88,7.24-3.67,15.32,2.77-4.3,4.23-9.22,5.73-14.12.07-6.21-3.08-10.7-7.26-14.64-3.66-6.61-9.4-3.43-14.35-3.87a6.84,6.84,0,0,0,2,2c5,3.44,8.8,8.51,14.37,11.13Zm-75.9,98.9a40.34,40.34,0,0,1,10.08,4.14c1.24.64,2.83.84,3.89-.41,1.57-1.86-.65-2.46-1.4-3.32a68.41,68.41,0,0,0-5-4.82c0-.84-.31-1.78.84-2.12,2.59,2.43,5.31,4.72,7.71,7.33,1.76,1.89,2.72.93,4.39-.16,2.12-1.37,1.18-2.7.32-3.75-1.68-2-2-4.58-2.91-6.89l1.31-1c1.08,2.26,2.06,4.58,3.3,6.74.64,1.11,1.28,3.82,2.34,2.82,1.64-1.54,5.16-.75,5.1-4.44-.1-5.55.31-11.15-2.09-16.37v-5.17c3,3,2.95,7.09,5.27,10.8,0-3.33.13-5.91,0-8.48-.3-4.8-8.1-13.19-11.82-12.43-11.67,2.38-23,5.48-31.91,14.64s-8.82,12.2-1.31,20.82c5.17,6.26,11.88,8.66,20,8.91C531.82,658.13,526.71,659.32,526.31,654.33Zm88.79,4.28c6.23,4.94,10.52,4.85,14.52-.33,5.65-4.25,9.49-10.17,13.61-15.83,1.6-2.2.66-4.16-.42-6.08-.61-1.07-1.46-.71-2.2-.06-4.4,3.88-10.57,4.66-14.67,9.05-.42-.27-.94-.87-1.25-.78-4.44,1.39-8.29,4.69-13.28,4.36-.33,0-1,.71-1,.82C611.75,652.83,609.06,658.24,615.1,658.61Zm-6.36-75.25c3.36-5.43,2.74-10.54-3-23.83l-1.16,4.89c-5.84,8.5-5.92,16.58-.11,30.46C606,590.81,607.36,587.08,608.74,583.36Zm1,9.95c-2.62,4.09-5.72,8-5.35,13.35.78,11.3,2.46,22.47,4.3,33.62.28,1.69-1.06,4.19.86,4.9,1.77.67,2.62-2,3.93-3a12.53,12.53,0,0,0,1.64-2.08c3,.07,2.19-2.33,2.08-3.89-1-13.89-1.82-27.82-3.47-41.64-.28-2.32.63-5.86-2.31-8.11C610.85,588.91,610.32,591.11,609.78,593.31Zm2.11-200c-21.6,1.79-42.22,7.87-63.66,15.43l6.93.42a156.25,156.25,0,0,0-42.76,15.34c-3.7-.69-5.11,2.83-7.38,4.56-5.41,4.12-11.23,7.84-15.76,13.82,3.81.95,5.79-1.5,8.17-2.76,10.29-2,19.87-6.41,29.78-9.63,18-5.85,36.41-8.68,55-10.24,16.35-1.37,32.32,2.83,48.27,5.81,13.34,2.49,26.52,6,40,7.15,4.39.39,8.73,1.59,13.17,1.3.41,0,1.66.5.94-.88-.11-.2-.66-.16-1-.23-12.56-7.43-25.39-14.34-38.37-21a9.88,9.88,0,0,0,1.42-.37c-.38-3.13-15-20.1-17.87-20.85a1.86,1.86,0,0,0-.53,0A58.4,58.4,0,0,0,611.89,393.32Zm6.53,250.05c8.18-2.06,14.9-7.39,22.53-10.68,3.86-1.67,3.28-3.43.64-5.86-7.19-6.63-12.76-14.67-17.85-23-2.7-4.45-4.71-9.36-7.25-14.51-1,4.73.41,8.74,1,12.58,1.24,7.65.52,15.34,1.56,23,.79,5.76,1.91,12.1-1.21,17.82-.44.39-1.54.56-1,1.33S618.09,644.11,618.42,643.37Zm-43.84,44.44c4.55-.06,4.27-3.47,4.29-6.67,1.48-5.85,1.35-11.89,2-17.83.36-3.33-.84-4.63-4.18-4.49-4.23.17-8.49-.55-12.68-.72-6.1-.26-12.28-2.9-18.59,1.14-5.81,3.72-11.83,8.87-19.89,5,9.21,7.08,18.36,13.59,27.53,20.08C559.68,689,566.85,690.31,574.58,687.81ZM568.19,569a16.44,16.44,0,0,1,2.54,3.3c1.75,4.15,4,2.44,6.47.93,5.48-3.33,9.12-8.83,14.25-12.63,5.84-4.33,5.62-4.65.2-9.62-19.06-15.32-40.23-25.22-64.86-27A167.35,167.35,0,0,1,568.19,569Zm29.92-219.83v0c-6.78,2.35-13.54,4.78-20.35,7-10.49,3.46-20.63,8.64-32.14,7.26,3.69-2.33,8.64-.68,13.41-5.11-7.33,1.73-13.48,1-19.18,2.32-4.86,1.16-9.91-1.14-14.45,1.62-2.34,9.94-4.61,19.89-7,29.82-2.31,9.5-4.75,19-7.25,28.92,16.6-7,32.3-13.95,48.8-18.76,8.46-2.47,17.2-4,25.34-7.59,1.76-.54,3.87.74,5.37-1.13l20.23-3.39c7.72.59,15.47-1.34,23.51.48-3.58-10.28-6.72-20.54-8.28-31.06-1-6.63-6-9.21-9.1-13.66-5.11-7.26-9.61-.74-14.34.47-.15,0-.25.26-.37.39C600.63,347,599.05,347.48,598.11,349.14Zm-134.83,117a11.88,11.88,0,0,0,2,1.69c15.21,7.18,30.82,4.84,46.41,1.9a3.56,3.56,0,0,0,2.67-3.17c.27-2.26-1.77-1.93-2.9-2.49-6.21-3-11.1-7.18-11.9-14.85-.39-3.74-2.35-1.56-3.73-1.06C484.2,452.33,474.88,460.94,463.28,466.11Zm70.56,210.67c0,4.4.32,7.93-.08,11.37-.48,4.16,1.58,5.91,4.93,6,6.89.25,13.81.07,22.21.07C550.24,689.71,542.88,682.79,533.84,676.78ZM602.7,543.71c2.28,6.24,6.13,11.57,7.74,18.32,5.43-5.69,11.41-10.18,13-18.19A68.94,68.94,0,0,1,602.7,543.71Zm92.54-104.09c-16-1.07-32-2.19-47.78-5.57-1.2-.26-2.66-1.2-3.41-.08-.52.79-.15,2.46.21,3.6.62,2,2.25,1.44,3.58,1.06a31.39,31.39,0,0,1,14.76-.35C673.47,440.4,684.36,440.13,695.24,439.62ZM488,444.39l-.73.62c.11.14.26.42.33.4a6.26,6.26,0,0,0,.89-.38Z" transform="translate(0 0)"/><path class="cls-2" d="M527.2,445.71c1-.33,1.25-1.12,1.37-2.08,1.11-8.79,1.19-8.87,9.56-11a7.23,7.23,0,0,1-1.12,4.18c-2.25,3.44-3.93,7-2.12,11.26,0,1.08,0,2.15-.07,3.22-1,0-2.87-.85-2.33,1.29a93.66,93.66,0,0,1,2.38,20.35c.06,2.25.22,4.36,2,5.9l1.18,2.41c0,2,1.22,2.3,2.74,2.06s1.92-1.24,1.53-2.68a.49.49,0,0,1,.53-.55c1.8.23,3.71.64,3.74-2.27l0,0c1.07.56,1.65,0,2.06-.95a23.1,23.1,0,0,0,6.68-4.68A4.72,4.72,0,0,0,559.5,470l-.08,0,4.91,0a.48.48,0,0,1,.53.55c-.5,1.83.2,2.69,2,2.67,5,5.59,11.1,9.71,17.38,13.56,2.19,1.77,4.39,3.5,7.41,3.19l0-.06c1.4,4.09,5.53,4.17,8.44,5.23,5.07,1.86,10.48,3.17,16.11,2.66,8.59-.78,17.4,1.54,25.83-2.07,1.69-.72,2.83.11,3.16,2.41,1.45,10.07-3.09,17.1-13,17.18-13.55.11-27.31,2.21-40.62-2.91a31.59,31.59,0,0,1-14.73-11c-1.08-1.5-2-2.88-3.86-3.09,11.51,21.8,31.52,22.56,52.28,22.12-8.37,7.35-17.06,13.71-28.34,13.95-21.06.44-39.62-6.91-56.77-19.38-11.49-8.36-19.82-19.09-26.35-31.71a4.1,4.1,0,0,1,0-4c2.39-6.08,4.81-12.15,7.21-18.23l0,.08a5.53,5.53,0,0,0,2.21-4.65ZM566,521.22a14.26,14.26,0,0,0,7.4-5.54c-3.86.44-6.28,2-7.77,5-.48.27-1.54.32-1.06,1.09S565.65,521.87,566,521.22Zm51.22-9c4.28,0,8.56.13,12.83,0,6-.21,10.6-4.28,10.78-9.36.08-2.53-.07-3.84-3.54-3.41a163.52,163.52,0,0,1-32.51.27c-9.23-.71-9.07-1.42-11,7.16-.57,2.52.32,2.74,2.33,3.5C603,513,610.14,512.07,617.2,512.26Zm-22.66,18.88c9.45,0,11.11-.43,18.15-4.48.95-.54,2.09-.86,1.9-2.2-.16-1.16-1.29-1.06-2.14-1.07a140.35,140.35,0,0,1-18.84-2c-2.53-.39-8.37,5.35-7.81,7.91.78,3.59,4,1.25,6.09,1.82A10.18,10.18,0,0,0,594.54,531.14Zm-27.27-47.23c-.72,6.11,1.64,9.42,5,12.33C570.77,492.57,569.29,488.89,567.27,483.91Z" transform="translate(0 0)"/><path class="cls-3" d="M555.34,472.17a23.1,23.1,0,0,1-6.68,4.68c-.87-.11-1.73-.2-2.06.95l0,0-3.74,2.27a.49.49,0,0,0-.53.55c-1.32,1-2.85.4-4.27.62-.39-.81-.79-1.61-1.18-2.41-1.06-4-.45-8.26-1.11-12.25-.85-5.11-.55-10.21-1-15.29,0-1.07,0-2.14.07-3.22.41-1.26,4.41-.53,1.77-3.75a3.1,3.1,0,0,1,2.47-4.14l0,0c.74,1.51,1.46,1.5,2.14,0,4.88-1.48,9.71-4,14.64-4.24,13.26-.66,26.47-4.42,39.84-1.24.78,3.72-.49,7.25-.9,10.86-.34,2.94,0,5.87,3.26,6.66,3,.74,5.82.3,7.54-3.33a37.22,37.22,0,0,0,3.24-12l17.1-.19a6.18,6.18,0,0,1,2,4.81c-.37,3.64,2,3,4.1,3.08,3,.12,2.7-2.24,2.25-3.76-1-3.27.32-6.08.69-9.15,4.46,1.57,8.5,8.6,8,13-.36,3.11-2.59,2.26-4,2-7.38-1.31-13.67,2-20.1,4.78-.63.27-1.63,1-.61,2.06l.1-.05c-.89-1.29-1.69.21-2.54.08l.37,1.17a3.25,3.25,0,0,0,2.94.91c7-.51,13.21,1.65,19,5.74a23.16,23.16,0,0,0,7,3.78c7,1.94,9.5.06,9.56-7.31,3.21,7,2.82,14.05.51,21.19-.59,1.83-1.06,3.72-1.58,5.58l.07-.1-1.09.23c.4-3.88-1-5-4.52-3.39-6.46,2.89-13.08,2.1-19.88,1.37s-13.72-1.39-20.54-2.58c-1.48-.26-3.56-.7-4.41,1-1,1.94.75,3.31,1.89,4.69,3.15,3.82,7.07,6.68,10.95,9.59-8.76,1-16.62-2.37-24.53-5.46l0,.06c-2.21-1.72-4.37-3.56-7.41-3.19-6.28-3.85-12.37-8-17.38-13.56l-2-2.67a.48.48,0,0,0-.53-.55c-3.3-3-3.63-3-4.91,0l.08,0C557.45,469.36,556.18,470.32,555.34,472.17Zm11.55-32.05a58.83,58.83,0,0,0-7.4.05c-5.5.78-7.34,5.42-4.67,10.38,5.9,10.95,14.88,15.1,26.65,14.05,2.79-.25,4.81-1,5.95-3.71,1.28-3,2.05-6.36-.1-8.9C581.67,445.31,576,438.2,566.89,440.12Zm46.85,9.06c-6.42,1-6.42,1-7.78,5.24C609.1,453.63,612,452.89,613.74,449.18Z" transform="translate(0 0)"/><path class="cls-4" d="M545.63,363.46c11.51,1.38,21.65-3.8,32.14-7.26,6.81-2.25,13.57-4.68,20.35-7a12.07,12.07,0,0,0,.94,5.88q5.93,17.55,11.82,35.11l-20.23,3.39c-6.21-7.28-12.55-14.45-18.59-21.88-3.5-4.3-6.5-4.18-9.24.95-1.64,3.09-1,6.09.73,8.82,5.08,8.18,13.63,10.34,21.73,13.24-8.14,3.6-16.88,5.12-25.34,7.59-16.5,4.81-32.2,11.77-48.8,18.76,2.5-10,4.94-19.42,7.25-28.92,2.41-9.93,4.68-19.88,7-29.82C532.08,363.83,538.86,363.5,545.63,363.46Z" transform="translate(0 0)"/><path class="cls-5" d="M590.15,567.41c.63-1.89,1.58-2.68,2.66-.44a38.32,38.32,0,0,1,3,7.58,333,333,0,0,1,8.84,62.75c.16,3.61.69,7.27,1,10.9.45,4.59-1.88,5.88-5.43,6.12-13.15.88-26.23-1.05-39.37-1.15-2.43,0-4.13-7.93-1.77-10.8,4.3-5.22,4.76-10.36,1.7-16.21-2.66-5.07-5.42-9.91-11.6-11-2.84-.5-2.17-3.41-1.87-4.77.7-3.22,0-6.16-.44-9.2,5-3,7-8.47,10.15-13,4.9-7.19,4.91-7.41,9.43,0,2.19,3.6,3.89,4.71,7.18,1.26,2.33-2.45,5.67-3.9,7.86-6.45C585.45,578.5,592.53,575.68,590.15,567.41Z" transform="translate(0 0)"/><path class="cls-6" d="M542.36,581.07c-1.34-.05-3.1.55-2.2,1.92,4.71,7.23,2.91,15.93,5.26,23.68.67,2.23-1.93,2.63-3.53,3.3-13.58,5.64-27.15,11.3-41.18,17.14-.28-8.14,1.88-15.74,2.43-23.48.66-9.36,3.8-18.17,5.29-27.36.82-5.06,4.11-9.68,6.29-14.51,1-2.13,2.57-4,2-6.68,0-.43.18-.63.6-.62,2.65.34,2.76-1.41,2.58-3.39l0,0c2.53.13,2.29-1.66,2.17-3.37l0,0c1.8.35,2.11-.83,2.16-2.28l-.09,0c4.3-.87,6.19-5.21,9.71-7.29,1.53-.9,2.5-1.92,4-.21,6.14,6.91,13.2,12.87,18.84,20.31,2.19,2.88,1.82,4.66-.57,7-3.79,3.64-7.38,7.5-11,11.35-1.17,1.26-3,2.16-2.75,4.43Z" transform="translate(0 0)"/><path class="cls-4" d="M683.65,433.41c.35.07.9,0,1,.23.72,1.38-.53.85-.94.88-4.44.29-8.78-.91-13.17-1.3-13.53-1.18-26.71-4.66-40-7.15-16-3-31.92-7.18-48.27-5.81-18.61,1.56-37,4.39-55,10.24-9.91,3.22-19.49,7.65-29.78,9.63,1-.72,2-1.36,2.95-2.17,4.46-4,10.95-6.14,12-13.45a156.61,156.61,0,0,1,42.76-15.35c8.25-.93,16.53-1.67,24.65-3.54h36.61c7.42-.45,14.6.29,21.09,4.51-9-.44-17.59-5-27-1.28-7,2.78-14.76.74-23.64,1.57,16,3.75,30.68,6.8,45.14,10.68C649.14,425.7,666.48,429.18,683.65,433.41Z" transform="translate(0 0)"/><path class="cls-3" d="M534.76,647.8c-1.15.34-.88,1.28-.84,2.12-2.81.47-5.85.37-7.6,3.38l-2.1.06c-3.06-2.32-6.52-.77-9.79-1.12-7.51-8.62-7.55-11.67,1.31-20.82s20.24-12.26,31.91-14.64c3.72-.76,11.52,7.63,11.82,12.43.16,2.57,0,5.15,0,8.48-2.32-3.71-2.31-7.84-5.27-10.8v5.17c-2.15,4.35-7.42,6.13-8.65,11.25l-1.31,1C540.68,644.23,538.2,647.44,534.76,647.8Z" transform="translate(0 0)"/><path class="cls-7" d="M610.88,390.16q-5.91-17.55-11.82-35.11a12.07,12.07,0,0,1-.94-5.88v0c1.82,0,3.44-.33,4.19-2.36.12-.13.22-.35.37-.39,4.73-1.21,9.23-7.73,14.34-.47,3.13,4.45,8.12,7,9.1,13.66,1.56,10.52,4.7,20.78,8.28,31.06C626.35,388.82,618.6,390.75,610.88,390.16Z" transform="translate(0 0)"/><path class="cls-8" d="M568.19,569a167.35,167.35,0,0,0-41.4-45c24.63,1.78,45.8,11.68,64.86,27-7.45,5.41-15.61,9.88-21.53,17.35C569.75,568.76,568.84,568.76,568.19,569Z" transform="translate(0 0)"/><path class="cls-4" d="M574.58,687.81c-7.73,2.5-14.9,1.22-21.54-3.47-9.17-6.49-18.32-13-27.53-20.08,8.06,3.85,14.08-1.3,19.89-5,6.31-4,12.49-1.4,18.59-1.14,4.19.17,8.45.89,12.68.72,3.34-.14,4.54,1.16,4.18,4.49-.63,5.94-.5,12-2,17.83,0-1.83-.19-3.66-.09-5.48.13-2.63-1.07-3.33-3.46-3.57-3.39-.35-5.31.8-6,4.29C568.44,680.69,571.13,686.63,574.58,687.81Z" transform="translate(0 0)"/><path class="cls-9" d="M566.82,698.69c-1.51,5.06-5.06,9.19-6.14,14.45-.77.27-1.82-.26-2.47,1.17H562a.71.71,0,0,1,.81.11c1,2.57,3.53,2.72,5.35,2.94,3.52.44,3.12,2.67,3.18,5.09.08,3.07-1.85,3-3.92,3-3,0-6,0-9.06.09l-19.25-.3c-.7-1.14-1.83-.87-2.85-.91-8.34-.37-8.73-.42-7.62-9.24a151.75,151.75,0,0,0,.93-15.19c0-.92.09-1.84,1.21-2.09.52,1,1.38,1.07,2.33.91a.7.7,0,0,1,.8.12c.41,3.3,2.91,1.86,4.58,2.08C548.06,702.23,557.31,698.73,566.82,698.69Z" transform="translate(0 0)"/><path class="cls-10" d="M463.28,466.11c11.6-5.17,20.92-13.78,32.56-18,1.38-.5,3.34-2.68,3.73,1.06.8,7.67,5.69,11.82,11.9,14.85,1.13.56,3.17.23,2.9,2.49a3.56,3.56,0,0,1-2.67,3.17c-15.59,2.94-31.2,5.28-46.41-1.9A11.88,11.88,0,0,1,463.28,466.11Z" transform="translate(0 0)"/><path class="cls-7" d="M683.65,433.41c-17.17-4.23-34.51-7.71-51.61-12.3-14.46-3.88-29.13-6.93-45.14-10.68,8.88-.83,16.62,1.21,23.64-1.57,9.38-3.72,18,.84,27,1.28,2.3,1.84,5.35.95,7.77,2.32C658.26,419.07,671.09,426,683.65,433.41Z" transform="translate(0 0)"/><path class="cls-10" d="M590.15,567.41c2.38,8.27-4.7,11.09-8.59,15.6-2.19,2.55-5.53,4-7.86,6.45-3.29,3.45-5,2.34-7.18-1.26-4.52-7.44-4.53-7.22-9.43,0-3.1,4.55-5.18,10-10.15,13-.91-6.86-1.9-13.7-4.58-20.12v0c7.56-3.87,11.7-11.56,18.15-17.06,4.49,4,7,9.76,10.11,15,2.08,3.52,3.38,3.19,5.93.62C580.85,575.33,584.3,569.91,590.15,567.41Z" transform="translate(0 0)"/><path class="cls-8" d="M617.86,642.67c3.13-5.72,2-12.06,1.22-17.82-1-7.65-.32-15.34-1.56-23-.62-3.84-2-7.85-1-12.58,2.54,5.15,4.55,10.06,7.25,14.51,5.09,8.37,10.66,16.41,17.85,23,2.64,2.43,3.22,4.19-.64,5.86-7.63,3.29-14.35,8.62-22.53,10.68A7.46,7.46,0,0,0,617.86,642.67Z" transform="translate(0 0)"/><path class="cls-11" d="M608.91,716.58a3.22,3.22,0,0,1,.93,0c2.2,3.21,6.9,2.71,8.78,6.38-7.59.1-15.19.23-22.78.27a5.3,5.3,0,0,1-3-.66c-6.15-4.5-13.4-6.38-20.21-9.31l-.09-14.38,27.71,0c-1.25,4.78-4.65,8.42-6.4,12.93-.78.4-2.14-.48-2.4,1.2Z" transform="translate(0 0)"/><path class="cls-12" d="M595.73,434.62c-13.37-3.18-26.58.58-39.84,1.24-4.93.24-9.76,2.76-14.64,4.24l-2.14,0,0,0c1-2.28-1.83-2-2.12-3.37a7.23,7.23,0,0,0,1.12-4.18c6.15-4.07,13.4-4.16,20.19-5.53,11.21-2.26,22.56-4,34.09-3.7,2.84.08,5.56.25,8.17,1.65C599.39,428.45,596.25,430.84,595.73,434.62Z" transform="translate(0 0)"/><path class="cls-13" d="M597.28,684.43c-.43.54-1.08,1-1.26,1.62-2.49,8.31-2.47,8.32-10.57,8.32H573.61c.09-.47.11-.93.21-1,9.85-1.91,10.5-2.41,10.19-12.78-.2-6.32,1.21-12.46,1.16-18.72,0-2,.79-3.11,2.84-3.09,3.21,0,6.42.06,9.63,0,2.43-.07,3.35.34,2.79,3.45-1.33,7.35-3.63,14.59-3.2,22.23Z" transform="translate(0 0)"/><path class="cls-14" d="M616.14,495.43c-3.88-2.91-7.8-5.77-10.95-9.59-1.14-1.38-2.85-2.75-1.89-4.69.85-1.72,2.93-1.28,4.41-1,6.82,1.19,13.67,1.84,20.54,2.58s13.42,1.52,19.88-1.37c3.53-1.58,4.92-.49,4.52,3.39a1.64,1.64,0,0,1-.18.92c-.47.15-.68.42-.35.91a1.53,1.53,0,0,0,.46,1.89l-1.54,1.6c-1.46-1.26-2,0-2.65,1-.47,1-1.37,1.16-2.3,1.28A75.39,75.39,0,0,1,616.14,495.43Zm16.76-7.38c-1.07-.09-1.89-.17-2.71-.21-2.84-.14-5.67-.17-7.86,2.15a1,1,0,0,0,.48,1.73,8.15,8.15,0,0,0,9.19-2A8.23,8.23,0,0,0,632.9,488.05Zm11.22-1.28c-3.13-.18-6.1.4-8.41,3-.09.1.41,1.13.71,1.18,3.4.53,6.3-.23,8-3.67C644.48,487.23,644.31,487.07,644.12,486.77Z" transform="translate(0 0)"/><path class="cls-3" d="M579.81,405.62c-8.12,1.87-16.4,2.61-24.65,3.54l-6.93-.41c21.44-7.56,42.06-13.64,63.66-15.43,2.7,3.29,3.26,7.44,4.23,11.43-2.55-.66-5.16-.21-7.81-.81C598.73,401.76,589.22,403.35,579.81,405.62Z" transform="translate(0 0)"/><path class="cls-15" d="M616.12,404.75c-1-4-1.53-8.14-4.23-11.43a58.4,58.4,0,0,1,16.41-2.1,1.86,1.86,0,0,1,.53,0c2.88.75,17.49,17.72,17.87,20.85a9.88,9.88,0,0,1-1.42.37c-2.42-1.37-5.47-.48-7.77-2.32-6.49-4.22-13.67-5-21.09-4.51A2.78,2.78,0,0,1,616.12,404.75Z" transform="translate(0 0)"/><path class="cls-16" d="M654.74,457.83c-.06,7.37-2.61,9.25-9.56,7.31a23.16,23.16,0,0,1-7-3.78c-5.76-4.09-12-6.25-19-5.74a3.25,3.25,0,0,1-2.94-.91c.79-.29,1.91,0,2.17-1.25l-.1.05c6.51-2.78,12.79-5.74,20.33-4.71,6.14.84,11.18,2.86,15.05,7.86.36.39.71.79,1.07,1.19Z" transform="translate(0 0)"/><path class="cls-17" d="M615.16,640.05a12.53,12.53,0,0,1-1.64,2.08c-1.31,1.09-2.16,3.72-3.93,3-1.92-.71-.58-3.21-.86-4.9-1.84-11.15-3.52-22.32-4.3-33.62-.37-5.4,2.73-9.26,5.35-13.35.25.26.68.49.71.77C612.16,609.39,615.23,624.55,615.16,640.05Z" transform="translate(0 0)"/><path class="cls-7" d="M585.28,394.68c-8.1-2.9-16.65-5.06-21.73-13.24-1.69-2.73-2.37-5.73-.73-8.82,2.74-5.13,5.74-5.25,9.24-.95,6,7.43,12.38,14.6,18.59,21.88C589.15,395.42,587,394.14,585.28,394.68Z" transform="translate(0 0)"/><path class="cls-14" d="M527.2,445.71q-2,5.42-4.07,10.84c-1.65,1.08-2.8,2.41-2.21,4.65l0-.08c-9,.25-15.87-3.67-17.92-10.59-.81-2.77-2-6,2.82-6.67,2-.25,3.86-1.48,6.73-2.65-2.31,3.69.77,5.9.82,8.79-1.86.47-4-.63-6.72,1.6,3.24.51,5.4,2,7.4-.87a5.77,5.77,0,0,0,2.64-2.87l-.06.06c1.86-1.45,1.8-3.66,2.38-5.72s.57-5,4-4.47l-5.24,19.58c2.94-1,3.2-3.51,4.38-5.26,1.87-2.77,2-6.61,5-8.68C527.17,444.15,527.18,444.93,527.2,445.71Z" transform="translate(0 0)"/><path class="cls-18" d="M568.19,569c.65-.21,1.56-.21,1.93-.67,5.92-7.47,14.08-11.94,21.53-17.35,5.42,5,5.64,5.29-.2,9.62-5.13,3.8-8.77,9.3-14.25,12.63-2.49,1.51-4.72,3.22-6.47-.93A16.44,16.44,0,0,0,568.19,569Z" transform="translate(0 0)"/><path class="cls-12" d="M625.94,645.36c4.1-4.39,10.27-5.17,14.67-9.05.74-.65,1.59-1,2.2.06,1.08,1.92,2,3.88.42,6.08-4.12,5.66-8,11.58-13.62,15.83a4.09,4.09,0,0,0-.7-.68,5.89,5.89,0,0,0-4.16-2.14l.06,0-3.29-2.45C622.27,650.05,624.62,648,625.94,645.36Z" transform="translate(0 0)"/><path class="cls-19" d="M533.84,676.78c9,6,16.4,12.93,27.06,17.48-8.4,0-15.32.18-22.21-.07-3.35-.13-5.41-1.88-4.93-6C534.16,684.71,533.84,681.18,533.84,676.78Z" transform="translate(0 0)"/><path class="cls-8" d="M602.7,543.71a68.94,68.94,0,0,0,20.73.13c-1.58,8-7.56,12.5-13,18.19C608.83,555.28,605,550,602.7,543.71Z" transform="translate(0 0)"/><path class="cls-12" d="M626,436.65l-17.1.19c-.37-3.6.49-7.4-2.81-11.48,6.87,1.28,12.46,2.83,18.25,2.94,1.21,0,3.08.93,1.93,3.46C625.62,433.13,626,435,626,436.65Z" transform="translate(0 0)"/><path class="cls-4" d="M608.74,583.36c-1.38,3.72-2.75,7.45-4.26,11.52-5.81-13.88-5.73-22,.11-30.46C606.52,570.6,608.6,576.75,608.74,583.36Z" transform="translate(0 0)"/><path class="cls-14" d="M545.58,643.31c1.23-5.12,6.5-6.9,8.65-11.25,2.4,5.22,2,10.82,2.09,16.37.06,3.69-3.46,2.9-5.1,4.44-1.06,1-1.7-1.71-2.34-2.82C547.64,647.89,546.66,645.57,545.58,643.31Z" transform="translate(0 0)"/><path class="cls-7" d="M574.58,687.81c-3.45-1.18-6.14-7.12-5.27-11.43.7-3.49,2.62-4.64,6-4.29,2.39.24,3.59.94,3.46,3.57-.1,1.82.05,3.65.09,5.48C578.85,684.34,579.13,687.75,574.58,687.81Z" transform="translate(0 0)"/><path class="cls-18" d="M615.16,640.05c.07-15.5-3-30.66-4.67-46,0-.28-.46-.51-.71-.77.54-2.2,1.07-4.4,1.68-6.9,2.94,2.25,2,5.79,2.31,8.11,1.65,13.82,2.47,27.75,3.47,41.64C617.35,637.72,618.19,640.12,615.16,640.05Z" transform="translate(0 0)"/><path class="cls-7" d="M512.4,424.51c-1.07,7.31-7.56,9.41-12,13.45-.91.81-2,1.45-2.95,2.17-2.38,1.26-4.36,3.71-8.17,2.76,4.53-6,10.35-9.7,15.76-13.82C507.29,427.34,508.7,423.82,512.4,424.51Z" transform="translate(0 0)"/><path class="cls-10" d="M695.24,439.62c-10.88.51-21.77.78-32.64-1.34a31.39,31.39,0,0,0-14.76.35c-1.33.38-3,.9-3.58-1.06-.36-1.14-.73-2.81-.21-3.6.75-1.12,2.21-.18,3.41.08C663.21,437.43,679.19,438.55,695.24,439.62Z" transform="translate(0 0)"/><path class="cls-14" d="M625.94,645.36c-1.32,2.66-3.67,4.69-4.42,7.7l-1.48-.42c-.58-.8-1-2-2.34-1.15.54.62,1.09,1.24,1.63,1.87.06.33.14.66.23,1-1.82,1-4.2,1.45-4.46,4.26-6-.37-3.35-5.78-4.69-8.85,0-.11.67-.84,1-.82,5,.33,8.84-3,13.28-4.36C625,644.49,625.52,645.09,625.94,645.36Z" transform="translate(0 0)"/><path class="cls-20" d="M558.33,725.58c3,0,6-.1,9.06-.09,2.07,0,4,0,3.92-3-.06-2.42.34-4.65-3.18-5.09-1.82-.22-4.4-.37-5.35-2.94,2.88-.76,5.43,1.93,8.34.83l1.27,1.31c6.22,2.1,11.73,5.72,17.44,8.91a1.16,1.16,0,0,0,.17.94l-31.64,0A7,7,0,0,0,558.33,725.58Zm24.87-.13.3-1.3c-2.46-1.34-4.88-2.76-7.39-4-1-.49-2.3-1.88-3.27-.59-.64.85-.43,2.44-.44,3.7,0,1.65,1,2.17,2.45,2.17Z" transform="translate(0 0)"/><path class="cls-17" d="M599.05,551.2c-5.57-2.62-9.39-7.69-14.37-11.13a6.84,6.84,0,0,1-2-2c5,.44,10.69-2.74,14.35,3.87C596.54,545.34,598.87,548,599.05,551.2Z" transform="translate(0 0)"/><path class="cls-14" d="M534.76,647.8c3.44-.36,5.92-3.57,9.51-3.47.92,2.31,1.23,4.85,2.91,6.89.86,1,1.8,2.38-.32,3.75-1.67,1.09-2.63,2-4.39.16C540.07,652.52,537.35,650.23,534.76,647.8Z" transform="translate(0 0)"/><path class="cls-3" d="M527.15,443.37c-3,2.07-3.09,5.91-5,8.68-1.18,1.75-1.44,4.22-4.38,5.26l5.24-19.58c2.65-1.62,5.14-2.92,4.17,2.35-.12.11-.36.23-.35.32a4.86,4.86,0,0,0,.28.81Z" transform="translate(0 0)"/><path class="cls-7" d="M545.63,363.46c-6.77,0-13.55.37-20.22-1.17,4.54-2.76,9.59-.46,14.45-1.62,5.7-1.36,11.85-.59,19.18-2.32C554.27,362.78,549.32,361.13,545.63,363.46Z" transform="translate(0 0)"/><path class="cls-14" d="M526.32,653.3c1.75-3,4.79-2.91,7.6-3.38a68.41,68.41,0,0,1,5,4.82c.75.86,3,1.46,1.4,3.32-1.06,1.25-2.65,1.05-3.89.41a40.34,40.34,0,0,0-10.08-4.14l.06.07C526.35,654,526.33,653.67,526.32,653.3Z" transform="translate(0 0)"/><path class="cls-12" d="M615.1,658.61c.26-2.81,2.64-3.21,4.46-4.26,1.86-.16,3.26,1.94,5.25,1.16l-.06,0c.11,3.39,2.57,1.84,4.16,2.14a4.09,4.09,0,0,1,.7.68C625.62,663.46,621.33,663.55,615.1,658.61Z" transform="translate(0 0)"/><path class="cls-14" d="M514.43,652.24c3.27.35,6.73-1.2,9.79,1.12.52.79.82,2.06,2.15,1l-.06-.07c.4,5,5.51,3.8,8.15,6.82C526.31,660.9,519.6,658.5,514.43,652.24Z" transform="translate(0 0)"/><path class="cls-17" d="M604.27,556.63c-1.5,4.9-3,9.82-5.73,14.12-4.21-8.08-4.21-8.08,3.67-15.32A1.9,1.9,0,0,0,604.27,556.63Z" transform="translate(0 0)"/><path class="cls-20" d="M566.82,698.69c-9.51,0-18.76,3.54-28.36,2.27-1.67-.22-4.17,1.22-4.58-2.08A237.34,237.34,0,0,0,562,697.82C563.49,697.64,565.49,696.75,566.82,698.69Z" transform="translate(0 0)"/><path class="cls-7" d="M608.74,583.36c-.14-6.61-2.22-12.76-4.15-18.94l1.16-4.89C611.48,572.82,612.1,577.93,608.74,583.36Z" transform="translate(0 0)"/><path class="cls-17" d="M521.75,622.9c-4.13,2.86-8.29,5.68-12.4,8.59-2.19,1.55-2.56-.33-3.39-1.69-1.55-2.51.57-1.73,1.61-2.21,4.38-2,8.53-4.59,13.33-5.49Z" transform="translate(0 0)"/><path class="cls-9" d="M600.22,698.93l-27.71,0a1.05,1.05,0,0,1-.34-1c8.4-1.9,16.93-1.27,25.43-1.34C599.11,696.56,600.54,696.71,600.22,698.93Z" transform="translate(0 0)"/><path class="cls-18" d="M604.27,556.63a1.9,1.9,0,0,1-2.06-1.2l-3.16-4.23c-.18-3.19-2.51-5.86-2-9.21C601.19,545.93,604.34,550.42,604.27,556.63Z" transform="translate(0 0)"/><path class="cls-1" d="M571,712.19c-5.46-.68-6-1.49-3.64-6.25.9-1.82,1.12-4.36,3.64-5A43.81,43.81,0,0,1,571,712.19Z" transform="translate(0 0)"/><path class="cls-9" d="M618.62,723c-1.88-3.67-6.58-3.17-8.78-6.38,5.62-.31,9.49,3.77,14.09,6.64Z" transform="translate(0 0)"/><path class="cls-9" d="M608.91,716.58l-17.49-3.52c.26-1.68,1.62-.8,2.4-1.2C599.22,712.16,604.39,713.24,608.91,716.58Z" transform="translate(0 0)"/><path class="cls-14" d="M516.73,447.86c-.86-.65-2-.64-2.62-2-1.09-2.26.57-3.66,1.11-5.38a2.08,2.08,0,0,1,1.84-.11c1.2,1.4.74,2.94,0,4.48-.44.93-1,1.93-.4,3Z" transform="translate(0 0)"/><path class="cls-18" d="M558.33,725.58a7,7,0,0,1,0,.8c-6.5.06-13,.13-19.51.16-.43,0-1.23-.3-1.23-.46,0-1.09,1-.43,1.46-.8Z" transform="translate(0 0)"/><path class="cls-17" d="M571,712.19A43.81,43.81,0,0,0,571,701c.66-.91-1.06-2.84,1.21-3.07a1.05,1.05,0,0,0,.34,1l.09,14.38-.21,3.29-1.27-1.31C571.07,714.23,571,713.21,571,712.19Z" transform="translate(0 0)"/><path class="cls-14" d="M611.86,662.25a12.4,12.4,0,0,1-8.64-3.12c3.91-.25,7.21-1.54,9.32,2.37A3.72,3.72,0,0,0,611.86,662.25Z" transform="translate(0 0)"/><path class="cls-17" d="M520.9,622.1c1.39-1.37,2.88-2.47,5.56-1.81l-4.71,2.61Z" transform="translate(0 0)"/><path class="cls-4" d="M602.3,346.78c-.75,2-2.37,2.39-4.19,2.36C599.05,347.48,600.63,347,602.3,346.78Z" transform="translate(0 0)"/><path class="cls-20" d="M562,714.31h-3.76c.65-1.43,1.7-.9,2.47-1.17Z" transform="translate(0 0)"/><path class="cls-11" d="M589.83,725.47c.57,0,1.31-.33,1.31.7a5.16,5.16,0,0,1-1.14.24A1.16,1.16,0,0,1,589.83,725.47Z" transform="translate(0 0)"/><path class="cls-7" d="M488,444.39l.48.64a6.26,6.26,0,0,1-.89.38c-.07,0-.22-.26-.33-.4Z" transform="translate(0 0)"/><path class="cls-8" d="M618.42,643.37c-.33.74-1.06,1.27-1.53.63s.54-.94,1-1.33A7.46,7.46,0,0,1,618.42,643.37Z" transform="translate(0 0)"/><path class="cls-14" d="M612.54,661.5c.38.45,1.52.65.88,1.42-.5.6-1.25.11-1.56-.67A3.72,3.72,0,0,1,612.54,661.5Z" transform="translate(0 0)"/><path class="cls-20" d="M533.08,698.76c-1,.16-1.81.11-2.33-.91A1.89,1.89,0,0,1,533.08,698.76Z" transform="translate(0 0)"/><path class="cls-3" d="M654.76,457.85c-.36-.4-.71-.8-1.07-1.19Z" transform="translate(0 0)"/><path class="cls-14" d="M527.15,441.21a4.86,4.86,0,0,1-.28-.81c0-.09.23-.21.35-.32C527.2,440.46,527.18,440.84,527.15,441.21Z" transform="translate(0 0)"/><path class="cls-21" d="M617.2,512.27c-7.06-.2-14.18.71-21.11-1.88-2-.76-2.9-1-2.33-3.5,1.93-8.58,1.77-7.87,11-7.16a163.52,163.52,0,0,0,32.51-.27c3.47-.43,3.62.88,3.54,3.41-.18,5.08-4.76,9.15-10.78,9.36C625.76,512.39,621.48,512.26,617.2,512.27Z" transform="translate(0 0)"/><path class="cls-21" d="M594.54,531.14a10.18,10.18,0,0,1-2.65,0c-2.08-.57-5.31,1.77-6.09-1.82-.56-2.56,5.28-8.3,7.81-7.91a140.35,140.35,0,0,0,18.84,2c.85,0,2-.09,2.14,1.07.19,1.34-1,1.66-1.9,2.2C605.65,530.71,604,531.14,594.54,531.14Z" transform="translate(0 0)"/><path d="M534.82,451.27c.44,5.08.14,10.18,1,15.29.66,4,.05,8.22,1.11,12.25-1.83-1.54-2-3.65-2-5.9a93.66,93.66,0,0,0-2.38-20.35C532,450.42,533.8,451.27,534.82,451.27Z" transform="translate(0 0)"/><path d="M537,436.79c.29,1.4,3.12,1.09,2.12,3.37a3.1,3.1,0,0,0-2.47,4.14c2.64,3.22-1.36,2.49-1.77,3.75C533.08,443.79,534.76,440.23,537,436.79Z" transform="translate(0 0)"/><path d="M567.27,483.91c2,5,3.5,8.66,5,12.33C568.91,493.33,566.55,490,567.27,483.91Z" transform="translate(0 0)"/><path d="M565.6,520.71c1.5-3.07,3.92-4.59,7.78-5a14.26,14.26,0,0,1-7.4,5.54C565.85,521.06,565.72,520.89,565.6,520.71Z" transform="translate(0 0)"/><path d="M584.25,486.84c3-.37,5.2,1.47,7.41,3.19C588.64,490.34,586.44,488.61,584.25,486.84Z" transform="translate(0 0)"/><path d="M538.1,481.22c1.42-.22,2.95.35,4.27-.62.39,1.44,0,2.44-1.53,2.68S538.1,483.22,538.1,481.22Z" transform="translate(0 0)"/><path d="M559.42,470c1.28-3,1.61-3,4.91,0Z" transform="translate(0 0)"/><path d="M555.34,472.17c.84-1.85,2.11-2.81,4.16-2.19A4.72,4.72,0,0,1,555.34,472.17Z" transform="translate(0 0)"/><path d="M520.92,461.2c-.59-2.24.56-3.57,2.21-4.65A5.53,5.53,0,0,1,520.92,461.2Z" transform="translate(0 0)"/><path d="M542.9,480.05l3.74-2.27C546.61,480.69,544.7,480.28,542.9,480.05Z" transform="translate(0 0)"/><path d="M564.86,470.61l2,2.67C565.06,473.3,564.36,472.44,564.86,470.61Z" transform="translate(0 0)"/><path d="M566,521.22c-.33.65-1,1.25-1.43.59s.58-.82,1.06-1.1A4.74,4.74,0,0,0,566,521.22Z" transform="translate(0 0)"/><path d="M546.6,477.8c.33-1.15,1.19-1.06,2.06-.95C548.25,477.8,547.67,478.36,546.6,477.8Z" transform="translate(0 0)"/><path class="cls-16" d="M566.89,440.12c9.15-1.92,14.78,5.19,20.43,11.87,2.15,2.54,1.38,5.91.1,8.9-1.14,2.68-3.16,3.46-5.95,3.71-11.77,1-20.75-3.1-26.65-14.05-2.67-5-.83-9.6,4.67-10.38A58.83,58.83,0,0,1,566.89,440.12Z" transform="translate(0 0)"/><path d="M613.74,449.18c-1.7,3.71-4.64,4.45-7.78,5.24C607.32,450.19,607.32,450.19,613.74,449.18Z" transform="translate(0 0)"/><path d="M618.41,453.46c-.26,1.28-1.38,1-2.17,1.25l-.37-1.17C616.72,453.67,617.52,452.17,618.41,453.46Z" transform="translate(0 0)"/><path d="M653.74,484.5c.75,1.68-.3,2.78-1.16,3.95a1.53,1.53,0,0,1-.46-1.89.7.7,0,0,0,.35-.91,1.64,1.64,0,0,0,.18-.92Z" transform="translate(0 0)"/><path d="M539.11,440.14l2.14,0C540.57,441.64,539.85,441.65,539.11,440.14Z" transform="translate(0 0)"/><path d="M517.31,554.46c.18-.74.35-1.48.53-2.22l2-1.17C520.07,553.05,520,554.8,517.31,554.46Z" transform="translate(0 0)"/><path d="M519.86,551.11a3.28,3.28,0,0,1,2.17-3.37C522.15,549.45,522.39,551.24,519.86,551.11Z" transform="translate(0 0)"/><path d="M522,547.78c.23-1.26,0-3,2.16-2.28C524.11,547,523.8,548.13,522,547.78Z" transform="translate(0 0)"/><path d="M616.12,404.75a2.78,2.78,0,0,0,.3.88H579.81c9.41-2.27,18.92-3.86,28.5-1.68C611,404.54,613.57,404.09,616.12,404.75Z" transform="translate(0 0)"/><path d="M526.37,654.4c-1.33,1-1.63-.25-2.15-1l2.1-.06C526.33,653.67,526.35,654,526.37,654.4Z" transform="translate(0 0)"/><path d="M632.9,488.05a8.23,8.23,0,0,1-.9,1.67,8.15,8.15,0,0,1-9.19,2,1,1,0,0,1-.48-1.73c2.19-2.32,5-2.29,7.86-2.15C631,487.88,631.83,488,632.9,488.05Z" transform="translate(0 0)"/><path d="M644.12,486.77c.19.3.36.46.33.52-1.73,3.44-4.63,4.2-8,3.67-.3,0-.8-1.08-.71-1.18C638,487.17,641,486.59,644.12,486.77Z" transform="translate(0 0)"/><path d="M651,490.05c-.23.32-.46.65-.68,1l-2,.05C649,490,649.58,488.79,651,490.05Z" transform="translate(0 0)"/><path class="cls-3" d="M652.47,485.65a.7.7,0,0,1-.35.91C651.79,486.07,652,485.8,652.47,485.65Z" transform="translate(0 0)"/><path d="M514.09,450.73c-2,2.85-4.16,1.38-7.4.87,2.75-2.23,4.86-1.13,6.72-1.6A4,4,0,0,1,514.09,450.73Z" transform="translate(0 0)"/><path d="M628.91,657.6c-1.59-.3-4,1.25-4.16-2.14A5.89,5.89,0,0,1,628.91,657.6Z" transform="translate(0 0)"/><path d="M624.81,655.51c-2,.78-3.39-1.32-5.25-1.16-.09-.33-.17-.66-.23-1a4.09,4.09,0,0,0,.72-.72l1.47.42Z" transform="translate(0 0)"/><path d="M619.33,653.36c-.54-.63-1.09-1.25-1.63-1.87,1.33-.81,1.76.35,2.34,1.15A3.72,3.72,0,0,1,619.33,653.36Z" transform="translate(0 0)"/><path class="cls-9" d="M583.2,725.45h-8.35c-1.41,0-2.47-.52-2.45-2.17,0-1.26-.2-2.85.44-3.7,1-1.29,2.26.1,3.27.59,2.51,1.22,4.93,2.64,7.39,4Z" transform="translate(0 0)"/><path d="M604.11,439.43a1.5,1.5,0,0,0,0-3,1.5,1.5,0,0,0,0,3Z" transform="translate(0 0)"/><path d="M601.38,439.14h0L601,439l.09.05-.31-.23a.17.17,0,0,1,.06.06l-.23-.31.06.1-.15-.35a1.16,1.16,0,0,1,0,.18l-.05-.4a3.32,3.32,0,0,1,0,.63,3,3,0,0,0,.08,1l0,.05a2.83,2.83,0,0,0,.17.4l0,0a2.33,2.33,0,0,0,.27.35l0,0a2.88,2.88,0,0,0,.35.26l0,0a2.35,2.35,0,0,0,.44.17,2,2,0,0,0,.47.06l.24,0s.16,0,.23,0a2.08,2.08,0,0,0,.53-.23,2.49,2.49,0,0,0,.43-.36,2.54,2.54,0,0,0,.36-.5,2.85,2.85,0,0,0,.29-.85,2,2,0,0,1,.12-.54l-.15.36a1.18,1.18,0,0,1,.11-.19l-.23.3,0,0a1.11,1.11,0,0,0,.31-.49,1.06,1.06,0,0,0,.13-.58,1,1,0,0,0-.13-.57,1.11,1.11,0,0,0-.31-.49,1.5,1.5,0,0,0-2.12,0,3.32,3.32,0,0,0-.32.42,2.75,2.75,0,0,0-.14.3,3.11,3.11,0,0,0-.16.49,2.9,2.9,0,0,1-.14.65l.16-.36a1.28,1.28,0,0,1-.15.25l.24-.31a.86.86,0,0,1-.13.14l.3-.24a.57.57,0,0,1-.13.08l.36-.15-.09,0,.4-.05h-.09l.39.05-.09,0,.36.15a.33.33,0,0,1-.1-.06l.31.24-.08-.07.24.3a.41.41,0,0,1,0-.09l.15.36a.61.61,0,0,1,0-.18l0,.4a7,7,0,0,1,0-.92,3.81,3.81,0,0,0-.07-.59,2,2,0,0,0-.19-.53l0-.08a3.92,3.92,0,0,0-.25-.32l0,0-.19-.14-.18-.14a2.35,2.35,0,0,0-.43-.19,1.22,1.22,0,0,0-.6,0,1.34,1.34,0,0,0-1,.57,1.14,1.14,0,0,0-.27.51,1.49,1.49,0,0,0,.15,1.15l.24.31a1.45,1.45,0,0,0,.66.38Z" transform="translate(0 0)"/><path d="M603.6,437.3a1.5,1.5,0,0,0,0-3,1.5,1.5,0,0,0,0,3Z" transform="translate(0 0)"/><path d="M601.92,437a10,10,0,0,1,.67,2.47l-.05-.4,0,.3,2.8-.75,0-.05.15.36a6.52,6.52,0,0,1-.43-1.57l.06.4c0-.2,0-.41-.06-.61a1.56,1.56,0,0,0-.44-1.06,1.52,1.52,0,0,0-1.06-.44,1.54,1.54,0,0,0-1.06.44,1.52,1.52,0,0,0-.44,1.06,9,9,0,0,0,.2,1.54,9.12,9.12,0,0,0,.51,1.44l.23.3a1.14,1.14,0,0,0,.48.31,1.44,1.44,0,0,0,1,.08,1.7,1.7,0,0,0,.66-.39,1,1,0,0,0,.31-.48,1.06,1.06,0,0,0,.13-.58,10.74,10.74,0,0,0-.76-3.16,1.11,1.11,0,0,0-.26-.52,1.13,1.13,0,0,0-.43-.38,1.49,1.49,0,0,0-1.15-.15,1.51,1.51,0,0,0-.9.69,1.46,1.46,0,0,0-.15,1.15Z" transform="translate(0 0)"/><path d="M602.1,436.33l-.09,1.25,2.79-.76-.18-.37.15.36a4.19,4.19,0,0,1-.27-1l.06.4a3.87,3.87,0,0,1,0-1l0,.4a2.41,2.41,0,0,1,.14-.59l-.15.35a1.44,1.44,0,0,1,.19-.31l-.24.31a1.45,1.45,0,0,1,.17-.18l-.3.24.11-.07-.36.15.12,0-.39.06h.12l-.4-.06.09,0-.36-.15a.57.57,0,0,1,.13.08l-.3-.24.11.12-.24-.3a2.69,2.69,0,0,1,.16.29l-.15-.36a4.18,4.18,0,0,1,.25.92l-.06-.4a3.39,3.39,0,0,1,0,.9l.06-.4a3.71,3.71,0,0,1-.21.81,1.52,1.52,0,0,0,.15,1.16,1.56,1.56,0,0,0,.9.69,1.54,1.54,0,0,0,1.15-.16l.31-.23a1.57,1.57,0,0,0,.38-.66,3.9,3.9,0,0,0,.23-1,3.8,3.8,0,0,0,0-1,5.23,5.23,0,0,0-.22-1.18,3.33,3.33,0,0,0-.7-1.26,1.92,1.92,0,0,0-1.9-.5,2.43,2.43,0,0,0-1.31,1,3,3,0,0,0-.39,1,6,6,0,0,0-.11,1.2,5.66,5.66,0,0,0,.69,2.49,1.52,1.52,0,0,0,1.7.69,1.9,1.9,0,0,0,.66-.38,1.61,1.61,0,0,0,.44-1.06l.09-1.25a1.54,1.54,0,0,0-.44-1.06,1.52,1.52,0,0,0-1.06-.44,1.5,1.5,0,0,0-1.06.44,1.64,1.64,0,0,0-.44,1.06Z" transform="translate(0 0)"/><path d="M604.84,437.52q-.15-.9-.27-1.8l.06.39a6.89,6.89,0,0,1-.15-1.81l-.05.4a1.34,1.34,0,0,1,.07-.27l-.15.36a1.16,1.16,0,0,1,.14-.24l-.24.31a1.07,1.07,0,0,1,.19-.18l-.31.23a1.71,1.71,0,0,1,.23-.13l-.36.15a1.89,1.89,0,0,1,.34-.09l-.4.06a2,2,0,0,1,.42,0l-.4,0a1.91,1.91,0,0,1,.41.11l-.36-.15a2.71,2.71,0,0,1,.37.21l-.31-.23a1.7,1.7,0,0,1,.3.3l-.24-.3a2.23,2.23,0,0,1,.33.58l-.15-.36a5.26,5.26,0,0,1,.3,1.23l-.05-.4a5.93,5.93,0,0,1,.08,1.26l.05-.4a.77.77,0,0,1-.07.26l.15-.35a1.09,1.09,0,0,1-.08.15l.23-.31a.63.63,0,0,1-.11.12l.31-.23-.19.1.36-.15-.1,0,.4-.05h-.14l.39.05-.09,0,.36.15a.47.47,0,0,1-.09-.06l.31.24a.34.34,0,0,1-.08-.09l.23.31a.8.8,0,0,1-.08-.16l.15.36a4.05,4.05,0,0,1-.16-.77l.05.4a8.88,8.88,0,0,1-.07-1.15,1.5,1.5,0,0,0-1.5-1.5,1.52,1.52,0,0,0-1.5,1.5,8.56,8.56,0,0,0,.23,2.14,2.12,2.12,0,0,0,.91,1.31,1.91,1.91,0,0,0,1.58.2,2.34,2.34,0,0,0,1.56-2.42,12.24,12.24,0,0,0-.23-1.82,4.19,4.19,0,0,0-.7-1.67,3.43,3.43,0,0,0-.87-.87A2.93,2.93,0,0,0,605,432a3,3,0,0,0-1.79,0,2.61,2.61,0,0,0-1.63,1.61,4.89,4.89,0,0,0,0,2.25c.11.81.23,1.63.36,2.44a1.55,1.55,0,0,0,.69.9,1.61,1.61,0,0,0,1.16.15,1.54,1.54,0,0,0,.89-.69,1.72,1.72,0,0,0,.15-1.16Z" transform="translate(0 0)"/><path class="cls-22" d="M603.85,437a1.5,1.5,0,0,0,0-3,1.5,1.5,0,0,0,0,3Z" transform="translate(0 0)"/><path class="cls-22" d="M630.83,435.7a1.5,1.5,0,0,0,0-3,1.5,1.5,0,0,0,0,3Z" transform="translate(0 0)"/></g></svg>